<svg class="main-svg" xmlns="http://www.w3.org/2000/svg" xmlns:xlink="http://www.w3.org/1999/xlink" width="700" height="500" style="" viewBox="0 0 700 500"><rect x="0" y="0" width="700" height="500" style="fill: rgb(255, 255, 255); fill-opacity: 1;"/><defs id="defs-4d64fd"><g class="clips"><clipPath id="clip4d64fdxyplot" class="plotclip"><rect width="126.89999999999999" height="360"/></clipPath><clipPath id="clip4d64fdx2y2plot" class="plotclip"><rect width="126.89999999999999" height="360"/></clipPath><clipPath id="clip4d64fdx3y3plot" class="plotclip"><rect width="126.89999999999999" height="360"/></clipPath><clipPath id="clip4d64fdx4y4plot" class="plotclip"><rect width="126.89999999999999" height="360"/></clipPath><clipPath class="axesclip" id="clip4d64fdx"><rect x="80" y="0" width="126.89999999999999" height="500"/></clipPath><clipPath class="axesclip" id="clip4d64fdy"><rect x="0" y="60" width="700" height="360"/></clipPath><clipPath class="axesclip" id="clip4d64fdxy"><rect x="80" y="60" width="126.89999999999999" height="360"/></clipPath><clipPath class="axesclip" id="clip4d64fdy2"><rect x="0" y="60" width="700" height="360"/></clipPath><clipPath class="axesclip" id="clip4d64fdxy2"><rect x="80" y="60" width="126.89999999999999" height="360"/></clipPath><clipPath class="axesclip" id="clip4d64fdy3"><rect x="0" y="60" width="700" height="360"/></clipPath><clipPath class="axesclip" id="clip4d64fdxy3"><rect x="80" y="60" width="126.89999999999999" height="360"/></clipPath><clipPath class="axesclip" id="clip4d64fdy4"><rect x="0" y="60" width="700" height="360"/></clipPath><clipPath class="axesclip" id="clip4d64fdxy4"><rect x="80" y="60" width="126.89999999999999" height="360"/></clipPath><clipPath class="axesclip" id="clip4d64fdx2"><rect x="217.7" y="0" width="126.89999999999999" height="500"/></clipPath><clipPath class="axesclip" id="clip4d64fdx2y"><rect x="217.7" y="60" width="126.89999999999999" height="360"/></clipPath><clipPath class="axesclip" id="clip4d64fdx2y2"><rect x="217.7" y="60" width="126.89999999999999" height="360"/></clipPath><clipPath class="axesclip" id="clip4d64fdx2y3"><rect x="217.7" y="60" width="126.89999999999999" height="360"/></clipPath><clipPath class="axesclip" id="clip4d64fdx2y4"><rect x="217.7" y="60" width="126.89999999999999" height="360"/></clipPath><clipPath class="axesclip" id="clip4d64fdx3"><rect x="355.4" y="0" width="126.89999999999999" height="500"/></clipPath><clipPath class="axesclip" id="clip4d64fdx3y"><rect x="355.4" y="60" width="126.89999999999999" height="360"/></clipPath><clipPath class="axesclip" id="clip4d64fdx3y2"><rect x="355.4" y="60" width="126.89999999999999" height="360"/></clipPath><clipPath class="axesclip" id="clip4d64fdx3y3"><rect x="355.4" y="60" width="126.89999999999999" height="360"/></clipPath><clipPath class="axesclip" id="clip4d64fdx3y4"><rect x="355.4" y="60" width="126.89999999999999" height="360"/></clipPath><clipPath class="axesclip" id="clip4d64fdx4"><rect x="493.09999999999997" y="0" width="126.89999999999999" height="500"/></clipPath><clipPath class="axesclip" id="clip4d64fdx4y"><rect x="493.09999999999997" y="60" width="126.89999999999999" height="360"/></clipPath><clipPath class="axesclip" id="clip4d64fdx4y2"><rect x="493.09999999999997" y="60" width="126.89999999999999" height="360"/></clipPath><clipPath class="axesclip" id="clip4d64fdx4y3"><rect x="493.09999999999997" y="60" width="126.89999999999999" height="360"/></clipPath><clipPath class="axesclip" id="clip4d64fdx4y4"><rect x="493.09999999999997" y="60" width="126.89999999999999" height="360"/></clipPath></g><g class="gradients"/><g class="patterns"/></defs><g class="bglayer"><rect class="bg" x="80" y="60" width="126.89999999999999" height="360" style="fill: rgb(229, 236, 246); fill-opacity: 1; stroke-width: 0;"/><rect class="bg" x="217.7" y="60" width="126.89999999999999" height="360" style="fill: rgb(229, 236, 246); fill-opacity: 1; stroke-width: 0;"/><rect class="bg" x="355.4" y="60" width="126.89999999999999" height="360" style="fill: rgb(229, 236, 246); fill-opacity: 1; stroke-width: 0;"/><rect class="bg" x="493.09999999999997" y="60" width="126.89999999999999" height="360" style="fill: rgb(229, 236, 246); fill-opacity: 1; stroke-width: 0;"/></g><g class="layer-below"><g class="imagelayer"/><g class="shapelayer"/></g><g class="cartesianlayer"><g class="subplot xy"><g class="layer-subplot"><g class="shapelayer"/><g class="imagelayer"/></g><g class="minor-gridlayer"><g class="x"/><g class="y"/></g><g class="gridlayer"><g class="x"><path class="xgrid crisp" transform="translate(143.45,0)" d="M0,60v360" style="stroke: rgb(255, 255, 255); stroke-opacity: 1; stroke-width: 1px;"/></g><g class="y"><path class="ygrid crisp" transform="translate(0,359.41)" d="M80,0h126.89999999999999" style="stroke: rgb(255, 255, 255); stroke-opacity: 1; stroke-width: 1px;"/><path class="ygrid crisp" transform="translate(0,316.82)" d="M80,0h126.89999999999999" style="stroke: rgb(255, 255, 255); stroke-opacity: 1; stroke-width: 1px;"/><path class="ygrid crisp" transform="translate(0,274.23)" d="M80,0h126.89999999999999" style="stroke: rgb(255, 255, 255); stroke-opacity: 1; stroke-width: 1px;"/><path class="ygrid crisp" transform="translate(0,231.64)" d="M80,0h126.89999999999999" style="stroke: rgb(255, 255, 255); stroke-opacity: 1; stroke-width: 1px;"/><path class="ygrid crisp" transform="translate(0,189.05)" d="M80,0h126.89999999999999" style="stroke: rgb(255, 255, 255); stroke-opacity: 1; stroke-width: 1px;"/><path class="ygrid crisp" transform="translate(0,146.45999999999998)" d="M80,0h126.89999999999999" style="stroke: rgb(255, 255, 255); stroke-opacity: 1; stroke-width: 1px;"/><path class="ygrid crisp" transform="translate(0,103.87)" d="M80,0h126.89999999999999" style="stroke: rgb(255, 255, 255); stroke-opacity: 1; stroke-width: 1px;"/><path class="ygrid crisp" transform="translate(0,61.28)" d="M80,0h126.89999999999999" style="stroke: rgb(255, 255, 255); stroke-opacity: 1; stroke-width: 1px;"/></g></g><g class="zerolinelayer"><path class="xzl zl crisp" transform="translate(80,0)" d="M0,60v360" style="stroke: rgb(255, 255, 255); stroke-opacity: 1; stroke-width: 2px;"/><path class="yzl zl crisp" transform="translate(0,402)" d="M80,0h126.89999999999999" style="stroke: rgb(255, 255, 255); stroke-opacity: 1; stroke-width: 2px;"/></g><g class="layer-between"><g class="shapelayer"/><g class="imagelayer"/></g><path class="xlines-below"/><path class="ylines-below"/><g class="overlines-below"/><g class="xaxislayer-below"/><g class="yaxislayer-below"/><g class="overaxes-below"/><g class="overplot"><g class="xy" transform="translate(80,60)" clip-path="url(#clip4d64fdxyplot)"><g class="scatterlayer mlayer"><g class="trace scatter trace49f961" style="stroke-miterlimit: 2; opacity: 1;"><g class="fills"/><g class="errorbars"/><g class="lines"><path class="js-line" d="M0,342L3.17,342L3.81,340.06L5.08,339.2L5.71,336.55L6.98,332.41L7.61,340.65L10.79,336.91L11.42,339.33L12.06,338.48L12.69,335.67L13.32,334.37L13.96,338.5L15.23,336.71L15.86,336.6L16.5,336.36L17.13,334.91L18.4,342L19.03,339.74L19.67,337.1L20.3,338.65L20.94,337.58L21.57,338.51L22.21,338.25L22.84,337.06L24.11,338.88L24.75,336.69L26.01,334.12L26.65,335.07L27.28,334.75L27.92,333.53L29.19,330.51L29.82,328.93L31.09,328.58L31.73,329.72L33.63,331.15L34.26,331.06L36.17,327.04L36.8,327.31L38.07,325L38.7,325.39L39.34,325.32L39.97,326.25L40.61,327.16L41.24,330.35L42.51,331.48L43.15,330.34L45.05,324.7L45.68,325.68L46.32,328.35L46.95,326.94L47.59,328.75L48.22,326.58L48.86,325.32L49.49,325.71L50.13,327.92L50.76,332.33L51.39,330.57L52.66,329.24L53.3,330.17L53.93,330.03L54.57,328.98L55.84,332.8L56.47,330.72L58.37,327.02L59.01,322.76L59.64,325.35L60.28,324.1L60.91,321.95L61.55,327.28L63.45,332.15L64.08,331.65L64.72,331.85L65.35,329.34L65.99,327.33L66.62,328.69L68.53,332.08L69.16,331.55L70.43,337.38L71.06,335.53L72.33,332.97L72.97,333.86L74.24,336.27L74.87,335.01L76.77,328.73L77.41,336.72L78.04,340.4L78.68,339.83L79.31,337.73L79.95,337.61L80.58,339.82L81.22,339.35L81.85,339.88L84.39,339.57L85.02,339.94L88.2,334.09L88.83,338.94L89.46,342L90.1,341.56L90.73,339.82L91.37,339.78L92,338.39L92.64,338.21L93.27,336.29L94.54,331.51L95.17,333.64L95.81,334.03L96.44,330.87L97.08,331.17L97.71,329.57L98.98,331.93L99.62,332.85L100.89,336.85L101.52,334.84L103.42,331.07L104.06,331.25L105.33,327.4L105.96,323.14L106.6,325.71L107.23,325.14L107.86,325.18L109.13,324.62L109.77,326.26L110.4,325.26L111.04,330.51L111.67,330.88L112.31,329.5L112.94,328.93L113.58,329.82L114.21,328.69L114.84,330.06L115.48,329.67L116.11,328.12L116.75,327.84L117.38,324.42L118.02,328.08L118.65,326.96L119.29,329.45L119.92,328.91L120.56,330.34L121.19,329.51L121.82,330.04L124.36,326.52L125,324.84L126.27,324.33L126.9,323.39" style="vector-effect: none; fill: none; stroke: rgb(99, 110, 250); stroke-opacity: 1; stroke-width: 2px; opacity: 1;"/></g><g class="points"/><g class="text"/></g></g></g></g><g class="zerolinelayer-above"/><path class="xlines-above crisp" d="M0,0" style="fill: none;"/><path class="ylines-above crisp" d="M0,0" style="fill: none;"/><g class="overlines-above"/><g class="xaxislayer-above"><g class="xtick"><text text-anchor="middle" x="0" y="433" transform="translate(80,0)" style="font-family: 'Open Sans', verdana, arial, sans-serif; font-size: 12px; fill: rgb(42, 63, 95); fill-opacity: 1; white-space: pre;">0</text></g><g class="xtick"><text text-anchor="middle" x="0" y="433" style="font-family: 'Open Sans', verdana, arial, sans-serif; font-size: 12px; fill: rgb(42, 63, 95); fill-opacity: 1; white-space: pre;" transform="translate(143.45,0)">500</text></g><g class="xtick"><text text-anchor="middle" x="0" y="433" style="font-family: 'Open Sans', verdana, arial, sans-serif; font-size: 12px; fill: rgb(42, 63, 95); fill-opacity: 1; white-space: pre;" transform="translate(206.9,0)">1000</text></g></g><g class="yaxislayer-above"><g class="ytick"><text text-anchor="end" x="79" y="4.199999999999999" transform="translate(0,402)" style="font-family: 'Open Sans', verdana, arial, sans-serif; font-size: 12px; fill: rgb(42, 63, 95); fill-opacity: 1; white-space: pre;">0</text></g><g class="ytick"><text text-anchor="end" x="79" y="4.199999999999999" style="font-family: 'Open Sans', verdana, arial, sans-serif; font-size: 12px; fill: rgb(42, 63, 95); fill-opacity: 1; white-space: pre;" transform="translate(0,359.41)">50</text></g><g class="ytick"><text text-anchor="end" x="79" y="4.199999999999999" style="font-family: 'Open Sans', verdana, arial, sans-serif; font-size: 12px; fill: rgb(42, 63, 95); fill-opacity: 1; white-space: pre;" transform="translate(0,316.82)">100</text></g><g class="ytick"><text text-anchor="end" x="79" y="4.199999999999999" style="font-family: 'Open Sans', verdana, arial, sans-serif; font-size: 12px; fill: rgb(42, 63, 95); fill-opacity: 1; white-space: pre;" transform="translate(0,274.23)">150</text></g><g class="ytick"><text text-anchor="end" x="79" y="4.199999999999999" style="font-family: 'Open Sans', verdana, arial, sans-serif; font-size: 12px; fill: rgb(42, 63, 95); fill-opacity: 1; white-space: pre;" transform="translate(0,231.64)">200</text></g><g class="ytick"><text text-anchor="end" x="79" y="4.199999999999999" style="font-family: 'Open Sans', verdana, arial, sans-serif; font-size: 12px; fill: rgb(42, 63, 95); fill-opacity: 1; white-space: pre;" transform="translate(0,189.05)">250</text></g><g class="ytick"><text text-anchor="end" x="79" y="4.199999999999999" style="font-family: 'Open Sans', verdana, arial, sans-serif; font-size: 12px; fill: rgb(42, 63, 95); fill-opacity: 1; white-space: pre;" transform="translate(0,146.45999999999998)">300</text></g><g class="ytick"><text text-anchor="end" x="79" y="4.199999999999999" style="font-family: 'Open Sans', verdana, arial, sans-serif; font-size: 12px; fill: rgb(42, 63, 95); fill-opacity: 1; white-space: pre;" transform="translate(0,103.87)">350</text></g><g class="ytick"><text text-anchor="end" x="79" y="4.199999999999999" style="font-family: 'Open Sans', verdana, arial, sans-serif; font-size: 12px; fill: rgb(42, 63, 95); fill-opacity: 1; white-space: pre;" transform="translate(0,61.28)">400</text></g></g><g class="overaxes-above"/></g><g class="subplot x2y2"><g class="layer-subplot"><g class="shapelayer"/><g class="imagelayer"/></g><g class="minor-gridlayer"><g class="x2"/><g class="y2"/></g><g class="gridlayer"><g class="x2"><path class="x2grid crisp" transform="translate(281.15,0)" d="M0,60v360" style="stroke: rgb(255, 255, 255); stroke-opacity: 1; stroke-width: 1px;"/></g><g class="y2"><path class="y2grid crisp" transform="translate(0,359.41)" d="M217.7,0h126.89999999999999" style="stroke: rgb(255, 255, 255); stroke-opacity: 1; stroke-width: 1px;"/><path class="y2grid crisp" transform="translate(0,316.82)" d="M217.7,0h126.89999999999999" style="stroke: rgb(255, 255, 255); stroke-opacity: 1; stroke-width: 1px;"/><path class="y2grid crisp" transform="translate(0,274.23)" d="M217.7,0h126.89999999999999" style="stroke: rgb(255, 255, 255); stroke-opacity: 1; stroke-width: 1px;"/><path class="y2grid crisp" transform="translate(0,231.64)" d="M217.7,0h126.89999999999999" style="stroke: rgb(255, 255, 255); stroke-opacity: 1; stroke-width: 1px;"/><path class="y2grid crisp" transform="translate(0,189.05)" d="M217.7,0h126.89999999999999" style="stroke: rgb(255, 255, 255); stroke-opacity: 1; stroke-width: 1px;"/><path class="y2grid crisp" transform="translate(0,146.45999999999998)" d="M217.7,0h126.89999999999999" style="stroke: rgb(255, 255, 255); stroke-opacity: 1; stroke-width: 1px;"/><path class="y2grid crisp" transform="translate(0,103.87)" d="M217.7,0h126.89999999999999" style="stroke: rgb(255, 255, 255); stroke-opacity: 1; stroke-width: 1px;"/><path class="y2grid crisp" transform="translate(0,61.28)" d="M217.7,0h126.89999999999999" style="stroke: rgb(255, 255, 255); stroke-opacity: 1; stroke-width: 1px;"/></g></g><g class="zerolinelayer"><path class="x2zl zl crisp" transform="translate(217.7,0)" d="M0,60v360" style="stroke: rgb(255, 255, 255); stroke-opacity: 1; stroke-width: 2px;"/><path class="y2zl zl crisp" transform="translate(0,402)" d="M217.7,0h126.89999999999999" style="stroke: rgb(255, 255, 255); stroke-opacity: 1; stroke-width: 2px;"/></g><g class="layer-between"><g class="shapelayer"/><g class="imagelayer"/></g><path class="xlines-below"/><path class="ylines-below"/><g class="overlines-below"/><g class="xaxislayer-below"/><g class="yaxislayer-below"/><g class="overaxes-below"/><g class="overplot"><g class="x2y2" transform="translate(217.7,60)" clip-path="url(#clip4d64fdx2y2plot)"><g class="scatterlayer mlayer"><g class="trace scatter trace3dec99" style="stroke-miterlimit: 2; opacity: 1;"><g class="fills"/><g class="errorbars"/><g class="lines"><path class="js-line" d="M0,342L1.27,337.46L1.9,334.84L2.54,333.27L3.17,324.02L3.81,327.71L4.44,326.65L5.08,315.79L5.71,317.99L6.34,324.23L6.98,317.38L7.61,317.63L8.25,341.83L9.52,333.31L10.15,338.08L12.06,328.89L12.69,317.46L13.32,341.41L13.96,337.71L14.59,335.48L15.23,334.66L15.86,340.5L16.5,338.63L17.13,341.42L17.77,340.36L18.4,335.25L19.03,337.19L19.67,333.58L20.94,322.95L21.57,323.48L22.21,313.41L22.84,314.48L23.48,319.79L24.11,318.13L24.75,290.31L26.01,342L26.65,342L27.28,341.49L27.92,338.99L30.46,326.43L31.09,319.05L31.73,312.09L32.36,320.08L32.99,321.15L33.63,317.53L34.26,319.85L34.9,315.59L35.53,314.45L36.17,304.19L36.8,305.94L37.44,287.34L38.07,269.5L38.7,283.78L39.97,255.58L40.61,342L41.24,342L41.88,338.42L42.51,338.04L43.15,335.37L43.78,335.3L44.41,331.04L45.05,320.47L45.68,322.26L46.32,325.42L46.95,323.83L47.59,309.48L48.22,299.17L48.86,321.36L49.49,321.15L50.13,314.86L50.76,311.32L51.39,316.3L52.03,315.75L52.66,317.83L53.93,306.42L54.57,298.2L55.2,296.5L55.84,246.99L56.47,315.72L57.1,302.72L57.74,310.84L58.37,306.58L59.01,316.27L59.64,316.54L60.28,320.93L60.91,308.02L61.55,309.64L62.18,298.35L62.82,294.85L63.45,282.35L64.08,290.28L64.72,342L65.99,339.01L66.62,342L67.89,341.25L68.53,338.99L70.43,333.71L71.06,328.35L72.33,321.08L72.97,313.51L73.6,323.18L74.24,316.69L78.04,294.9L78.68,295.97L79.31,307.11L79.95,296.73L80.58,309.02L81.22,298.58L81.85,290.99L82.48,294.9L84.39,273.05L85.02,268.79L86.29,286.29L86.93,282.03L87.56,281.91L88.2,281L90.1,266.12L90.73,265.85L91.37,262.51L92,265.89L94.54,245.25L95.17,238.19L95.81,233.93L96.44,215.44L97.71,206.92L98.35,217.15L98.98,219.7L99.62,209.05L100.25,189.88L100.89,190.9L101.52,215.81L102.15,198.46L102.79,213.95L104.06,185.69L104.69,189.35L105.96,169.03L106.6,173.88L107.23,161.04L107.86,126.61L108.5,129.47L109.13,125.21L109.77,103.24L110.4,111.36L111.04,79.32L111.67,99.26L112.31,155.78L112.94,152.79L113.58,148.83L114.84,41.29L115.48,117.47L116.75,18L117.38,94.13L118.02,90.92L118.65,115.13L119.29,202.37L119.92,106.61L121.19,342L121.82,342L122.46,342L123.09,340.38L124.36,342L125,341.9L126.27,342L126.9,339.75" style="vector-effect: none; fill: none; stroke: rgb(99, 110, 250); stroke-opacity: 1; stroke-width: 2px; opacity: 1;"/></g><g class="points"/><g class="text"/></g></g></g></g><g class="zerolinelayer-above"/><path class="xlines-above crisp" d="M0,0" style="fill: none;"/><path class="ylines-above crisp" d="M0,0" style="fill: none;"/><g class="overlines-above"/><g class="xaxislayer-above"><g class="x2tick"><text text-anchor="middle" x="0" y="433" transform="translate(217.7,0)" style="font-family: 'Open Sans', verdana, arial, sans-serif; font-size: 12px; fill: rgb(42, 63, 95); fill-opacity: 1; white-space: pre;">0</text></g><g class="x2tick"><text text-anchor="middle" x="0" y="433" style="font-family: 'Open Sans', verdana, arial, sans-serif; font-size: 12px; fill: rgb(42, 63, 95); fill-opacity: 1; white-space: pre;" transform="translate(281.15,0)">500</text></g><g class="x2tick"><text text-anchor="middle" x="0" y="433" style="font-family: 'Open Sans', verdana, arial, sans-serif; font-size: 12px; fill: rgb(42, 63, 95); fill-opacity: 1; white-space: pre;" transform="translate(344.6,0)">1000</text></g></g><g class="yaxislayer-above"/><g class="overaxes-above"/></g><g class="subplot x3y3"><g class="layer-subplot"><g class="shapelayer"/><g class="imagelayer"/></g><g class="minor-gridlayer"><g class="x3"/><g class="y3"/></g><g class="gridlayer"><g class="x3"><path class="x3grid crisp" transform="translate(418.84999999999997,0)" d="M0,60v360" style="stroke: rgb(255, 255, 255); stroke-opacity: 1; stroke-width: 1px;"/></g><g class="y3"><path class="y3grid crisp" transform="translate(0,359.41)" d="M355.4,0h126.89999999999999" style="stroke: rgb(255, 255, 255); stroke-opacity: 1; stroke-width: 1px;"/><path class="y3grid crisp" transform="translate(0,316.82)" d="M355.4,0h126.89999999999999" style="stroke: rgb(255, 255, 255); stroke-opacity: 1; stroke-width: 1px;"/><path class="y3grid crisp" transform="translate(0,274.23)" d="M355.4,0h126.89999999999999" style="stroke: rgb(255, 255, 255); stroke-opacity: 1; stroke-width: 1px;"/><path class="y3grid crisp" transform="translate(0,231.64)" d="M355.4,0h126.89999999999999" style="stroke: rgb(255, 255, 255); stroke-opacity: 1; stroke-width: 1px;"/><path class="y3grid crisp" transform="translate(0,189.05)" d="M355.4,0h126.89999999999999" style="stroke: rgb(255, 255, 255); stroke-opacity: 1; stroke-width: 1px;"/><path class="y3grid crisp" transform="translate(0,146.45999999999998)" d="M355.4,0h126.89999999999999" style="stroke: rgb(255, 255, 255); stroke-opacity: 1; stroke-width: 1px;"/><path class="y3grid crisp" transform="translate(0,103.87)" d="M355.4,0h126.89999999999999" style="stroke: rgb(255, 255, 255); stroke-opacity: 1; stroke-width: 1px;"/><path class="y3grid crisp" transform="translate(0,61.28)" d="M355.4,0h126.89999999999999" style="stroke: rgb(255, 255, 255); stroke-opacity: 1; stroke-width: 1px;"/></g></g><g class="zerolinelayer"><path class="x3zl zl crisp" transform="translate(355.4,0)" d="M0,60v360" style="stroke: rgb(255, 255, 255); stroke-opacity: 1; stroke-width: 2px;"/><path class="y3zl zl crisp" transform="translate(0,402)" d="M355.4,0h126.89999999999999" style="stroke: rgb(255, 255, 255); stroke-opacity: 1; stroke-width: 2px;"/></g><g class="layer-between"><g class="shapelayer"/><g class="imagelayer"/></g><path class="xlines-below"/><path class="ylines-below"/><g class="overlines-below"/><g class="xaxislayer-below"/><g class="yaxislayer-below"/><g class="overaxes-below"/><g class="overplot"><g class="x3y3" transform="translate(355.4,60)" clip-path="url(#clip4d64fdx3y3plot)"><g class="scatterlayer mlayer"><g class="trace scatter tracedb4035" style="stroke-miterlimit: 2; opacity: 1;"><g class="fills"/><g class="errorbars"/><g class="lines"><path class="js-line" d="M0,342L1.9,341.44L2.54,339.46L3.17,340.96L3.81,337.95L4.44,336.83L5.08,332.92L5.71,332.7L6.34,342L7.61,341.14L8.25,338.68L8.88,336.94L9.52,342L10.15,342L10.79,340.32L12.06,342L12.69,341.21L13.96,342L14.59,342L17.13,342L17.77,339.07L18.4,340.87L19.03,336.96L19.67,336.52L20.3,331.42L20.94,336.93L21.57,333.73L22.21,327.71L22.84,327.8L23.48,341.95L24.11,342L24.75,340.53L25.38,338.24L26.01,332.91L26.65,335.23L27.28,333.01L27.92,341.55L28.55,339.3L29.82,335.69L30.46,336.25L31.73,331.66L32.36,331.14L34.9,310.18L35.53,324.27L36.17,303.32L36.8,320.21L38.07,309.39L38.7,311.75L39.97,300.24L40.61,304.04L41.88,279.16L42.51,302.28L43.15,331.26L43.78,327.54L44.41,324.72L45.68,305.52L46.32,320.72L46.95,318.87L47.59,308.63L48.22,318.03L48.86,314.85L49.49,298.36L50.13,312.35L50.76,309.69L51.39,292.73L52.66,316.56L53.3,307.57L53.93,308.61L54.57,271.44L55.2,311.16L55.84,308.11L56.47,305.12L57.1,308.41L57.74,298.22L58.37,286.92L59.01,310.96L59.64,297.16L60.28,306.09L60.91,299.52L61.55,303.38L62.82,296.56L63.45,298.68L64.72,272.77L65.35,286.93L67.26,277.03L67.89,286.59L68.53,277.83L69.16,280.35L71.7,243.94L72.33,269.91L73.6,216.64L74.24,233.88L74.87,208.02L75.51,211.21L76.14,263.58L76.77,247.05L77.41,268.43L79.31,236.89L79.95,232.63L81.85,222.62L82.48,249.97L83.12,232L83.75,257.47L84.39,225.17L85.02,239.3L85.66,235.75L86.29,269.04L86.93,247.31L87.56,262.54L89.46,218.84L90.1,242.47L90.73,264.39L91.37,260.76L92,249.64L92.64,254.49L93.27,233.37L93.91,239.88L94.54,213.36L95.17,209.1L95.81,229.63L96.44,214.19L97.08,232.66L97.71,218.49L98.35,225.32L98.98,230.55L99.62,206.31L100.25,203.19L100.89,185.29L101.52,171.81L102.15,184.86L102.79,199.08L103.42,180.54L104.69,133.02L105.33,162.87L105.96,159.83L106.6,103.84L107.23,129.56L107.86,110.49L108.5,223.22L109.13,179.75L109.77,176.61L110.4,126.69L111.04,170.6L111.67,167.79L112.31,163.53L113.58,157.87L114.21,131.23L115.48,205.98L116.11,191.78L116.75,187.67L117.38,153.27L119.29,67.06L119.92,133.12L120.56,129.17L121.19,164.8L121.82,143L122.46,90.67L123.09,155.76L123.73,152.8L124.36,178.34L125,174.99L125.63,183.47L126.9,137.2" style="vector-effect: none; fill: none; stroke: rgb(99, 110, 250); stroke-opacity: 1; stroke-width: 2px; opacity: 1;"/></g><g class="points"/><g class="text"/></g></g></g></g><g class="zerolinelayer-above"/><path class="xlines-above crisp" d="M0,0" style="fill: none;"/><path class="ylines-above crisp" d="M0,0" style="fill: none;"/><g class="overlines-above"/><g class="xaxislayer-above"><g class="x3tick"><text text-anchor="middle" x="0" y="433" transform="translate(355.4,0)" style="font-family: 'Open Sans', verdana, arial, sans-serif; font-size: 12px; fill: rgb(42, 63, 95); fill-opacity: 1; white-space: pre;">0</text></g><g class="x3tick"><text text-anchor="middle" x="0" y="433" style="font-family: 'Open Sans', verdana, arial, sans-serif; font-size: 12px; fill: rgb(42, 63, 95); fill-opacity: 1; white-space: pre;" transform="translate(418.84999999999997,0)">500</text></g><g class="x3tick"><text text-anchor="middle" x="0" y="433" style="font-family: 'Open Sans', verdana, arial, sans-serif; font-size: 12px; fill: rgb(42, 63, 95); fill-opacity: 1; white-space: pre;" transform="translate(482.29999999999995,0)">1000</text></g></g><g class="yaxislayer-above"/><g class="overaxes-above"/></g><g class="subplot x4y4"><g class="layer-subplot"><g class="shapelayer"/><g class="imagelayer"/></g><g class="minor-gridlayer"><g class="x4"/><g class="y4"/></g><g class="gridlayer"><g class="x4"><path class="x4grid crisp" transform="translate(556.55,0)" d="M0,60v360" style="stroke: rgb(255, 255, 255); stroke-opacity: 1; stroke-width: 1px;"/></g><g class="y4"><path class="y4grid crisp" transform="translate(0,359.41)" d="M493.09999999999997,0h126.89999999999999" style="stroke: rgb(255, 255, 255); stroke-opacity: 1; stroke-width: 1px;"/><path class="y4grid crisp" transform="translate(0,316.82)" d="M493.09999999999997,0h126.89999999999999" style="stroke: rgb(255, 255, 255); stroke-opacity: 1; stroke-width: 1px;"/><path class="y4grid crisp" transform="translate(0,274.23)" d="M493.09999999999997,0h126.89999999999999" style="stroke: rgb(255, 255, 255); stroke-opacity: 1; stroke-width: 1px;"/><path class="y4grid crisp" transform="translate(0,231.64)" d="M493.09999999999997,0h126.89999999999999" style="stroke: rgb(255, 255, 255); stroke-opacity: 1; stroke-width: 1px;"/><path class="y4grid crisp" transform="translate(0,189.05)" d="M493.09999999999997,0h126.89999999999999" style="stroke: rgb(255, 255, 255); stroke-opacity: 1; stroke-width: 1px;"/><path class="y4grid crisp" transform="translate(0,146.45999999999998)" d="M493.09999999999997,0h126.89999999999999" style="stroke: rgb(255, 255, 255); stroke-opacity: 1; stroke-width: 1px;"/><path class="y4grid crisp" transform="translate(0,103.87)" d="M493.09999999999997,0h126.89999999999999" style="stroke: rgb(255, 255, 255); stroke-opacity: 1; stroke-width: 1px;"/><path class="y4grid crisp" transform="translate(0,61.28)" d="M493.09999999999997,0h126.89999999999999" style="stroke: rgb(255, 255, 255); stroke-opacity: 1; stroke-width: 1px;"/></g></g><g class="zerolinelayer"><path class="x4zl zl crisp" transform="translate(493.09999999999997,0)" d="M0,60v360" style="stroke: rgb(255, 255, 255); stroke-opacity: 1; stroke-width: 2px;"/><path class="y4zl zl crisp" transform="translate(0,402)" d="M493.09999999999997,0h126.89999999999999" style="stroke: rgb(255, 255, 255); stroke-opacity: 1; stroke-width: 2px;"/></g><g class="layer-between"><g class="shapelayer"/><g class="imagelayer"/></g><path class="xlines-below"/><path class="ylines-below"/><g class="overlines-below"/><g class="xaxislayer-below"/><g class="yaxislayer-below"/><g class="overaxes-below"/><g class="overplot"><g class="x4y4" transform="translate(493.09999999999997,60)" clip-path="url(#clip4d64fdx4y4plot)"><g class="scatterlayer mlayer"><g class="trace scatter trace08f732" style="stroke-miterlimit: 2; opacity: 1;"><g class="fills"/><g class="errorbars"/><g class="lines"><path class="js-line" d="M0,342L1.27,339.04L1.9,334.92L2.54,334.97L3.17,331.62L3.81,329.45L4.44,330.05L5.08,329.69L5.71,326.18L7.61,316.51L8.25,319.22L8.88,314.79L9.52,316.59L11.42,301.63L12.06,304.84L12.69,303.83L13.32,296.16L13.96,293.37L14.59,296.34L15.23,300.85L15.86,298.13L16.5,300.16L17.13,293.74L18.4,281.77L19.03,281.86L19.67,282.76L20.3,273.82L22.84,294.93L23.48,294.27L26.01,251.48L26.65,257.53L27.28,245.21L27.92,277.62L28.55,292.87L29.19,290.39L29.82,287.69L30.46,278.41L31.09,342L33.63,342L34.26,340.11L34.9,335.31L35.53,338.44L37.44,331.14L38.07,331.59L41.24,316.11L41.88,316.93L42.51,314.02L43.15,322.23L43.78,342L44.41,340.36L45.05,342L45.68,341.45L46.32,338.7L46.95,336.54L47.59,342L49.49,338.2L50.13,335.64L55.2,318.78L55.84,315.16L56.47,313.29L57.1,307.3L57.74,308.75L58.37,304.49L59.01,301.54L59.64,304.77L60.91,305.82L61.55,305.21L62.82,297.6L63.45,301.13L64.08,301.08L64.72,299.12L65.35,300.49L65.99,297.54L68.53,286.1L69.16,285.68L73.6,264.77L74.24,267.44L74.87,268.24L75.51,264.16L76.77,259.57L77.41,256.91L78.04,257.82L78.68,253.74L79.31,253.26L79.95,247.41L81.22,245.67L81.85,246L82.48,244.53L83.12,240.38L83.75,237.77L84.39,239.08L86.93,225.67L87.56,220.71L88.2,216.45L88.83,218.66L91.37,203L92,198.74L93.27,197.9L93.91,200.81L96.44,181.16L97.08,184.39L97.71,183.98L98.35,179.8L98.98,175.54L99.62,177.21L100.89,163.99L101.52,165.95L102.15,161.65L102.79,162.16L103.42,161.89L104.69,156.13L105.33,157.77L106.6,151.53L107.23,156.03L107.86,162.35L108.5,160.63L109.13,159.04L109.77,149.84L110.4,148.41L111.04,142.05L111.67,138.11L112.31,125.9L113.58,111.99L114.21,117.25L114.84,116.41L115.48,118.81L116.11,117.75L116.75,103.84L119.92,74.35L120.56,81.21L121.19,81.68L121.82,77.65L122.46,73.5L123.09,73.96L123.73,70.55L124.36,81.77L125,76.57L126.27,56.26L126.9,57.89" style="vector-effect: none; fill: none; stroke: rgb(99, 110, 250); stroke-opacity: 1; stroke-width: 2px; opacity: 1;"/></g><g class="points"/><g class="text"/></g></g></g></g><g class="zerolinelayer-above"/><path class="xlines-above crisp" d="M0,0" style="fill: none;"/><path class="ylines-above crisp" d="M0,0" style="fill: none;"/><g class="overlines-above"/><g class="xaxislayer-above"><g class="x4tick"><text text-anchor="middle" x="0" y="433" transform="translate(493.09999999999997,0)" style="font-family: 'Open Sans', verdana, arial, sans-serif; font-size: 12px; fill: rgb(42, 63, 95); fill-opacity: 1; white-space: pre;">0</text></g><g class="x4tick"><text text-anchor="middle" x="0" y="433" style="font-family: 'Open Sans', verdana, arial, sans-serif; font-size: 12px; fill: rgb(42, 63, 95); fill-opacity: 1; white-space: pre;" transform="translate(556.55,0)">500</text></g><g class="x4tick"><text text-anchor="middle" x="0" y="433" style="font-family: 'Open Sans', verdana, arial, sans-serif; font-size: 12px; fill: rgb(42, 63, 95); fill-opacity: 1; white-space: pre;" transform="translate(620,0)">1000</text></g></g><g class="yaxislayer-above"/><g class="overaxes-above"/></g></g><g class="polarlayer"/><g class="smithlayer"/><g class="ternarylayer"/><g class="geolayer"/><g class="funnelarealayer"/><g class="pielayer"/><g class="iciclelayer"/><g class="treemaplayer"/><g class="sunburstlayer"/><g class="glimages"/><defs id="topdefs-4d64fd"><g class="clips"/></defs><g class="layer-above"><g class="imagelayer"/><g class="shapelayer"/></g><g class="infolayer"><g class="g-gtitle"/><g class="g-xtitle"><text class="xtitle" x="143.45" y="460.3" text-anchor="middle" style="opacity: 1; font-family: 'Open Sans', verdana, arial, sans-serif; font-size: 14px; fill: rgb(42, 63, 95); fill-opacity: 1; white-space: pre;">time</text></g><g class="g-x2title"><text class="x2title" x="281.15" y="460.3" text-anchor="middle" style="opacity: 1; font-family: 'Open Sans', verdana, arial, sans-serif; font-size: 14px; fill: rgb(42, 63, 95); fill-opacity: 1; white-space: pre;">time</text></g><g class="g-x3title"><text class="x3title" x="418.84999999999997" y="460.3" text-anchor="middle" style="opacity: 1; font-family: 'Open Sans', verdana, arial, sans-serif; font-size: 14px; fill: rgb(42, 63, 95); fill-opacity: 1; white-space: pre;">time</text></g><g class="g-x4title"><text class="x4title" x="556.55" y="460.3" text-anchor="middle" style="opacity: 1; font-family: 'Open Sans', verdana, arial, sans-serif; font-size: 14px; fill: rgb(42, 63, 95); fill-opacity: 1; white-space: pre;">time</text></g><g class="g-ytitle"><text class="ytitle" transform="rotate(-90,36.709375,240)" x="36.709375" y="240" text-anchor="middle" style="opacity: 1; font-family: 'Open Sans', verdana, arial, sans-serif; font-size: 14px; fill: rgb(42, 63, 95); fill-opacity: 1; white-space: pre;">mean_age</text></g><g class="g-y2title"/><g class="g-y3title"/><g class="g-y4title"/><g class="annotation" data-index="0" style="opacity: 1;"><g class="annotation-text-g" transform="rotate(0,143.45,50.5)"><g class="cursor-pointer" transform="translate(101,41)"><rect class="bg" x="0.5" y="0.5" width="84" height="18" style="stroke-width: 1px; stroke: rgb(0, 0, 0); stroke-opacity: 0; fill: rgb(0, 0, 0); fill-opacity: 0;"/><text class="annotation-text" text-anchor="middle" x="42.3515625" y="14" style="font-family: 'Open Sans', verdana, arial, sans-serif; font-size: 12px; fill: rgb(42, 63, 95); fill-opacity: 1; white-space: pre;">policy=oldest</text></g></g></g><g class="annotation" data-index="1" style="opacity: 1;"><g class="annotation-text-g" transform="rotate(0,281.15,50.5)"><g class="cursor-pointer" transform="translate(236,41)"><rect class="bg" x="0.5" y="0.5" width="90" height="18" style="stroke-width: 1px; stroke: rgb(0, 0, 0); stroke-opacity: 0; fill: rgb(0, 0, 0); fill-opacity: 0;"/><text class="annotation-text" text-anchor="middle" x="45.609375" y="14" style="font-family: 'Open Sans', verdana, arial, sans-serif; font-size: 12px; fill: rgb(42, 63, 95); fill-opacity: 1; white-space: pre;">policy=newest</text></g></g></g><g class="annotation" data-index="2" style="opacity: 1;"><g class="annotation-text-g" transform="rotate(0,418.84999999999997,50.5)"><g class="cursor-pointer" transform="translate(370,41)"><rect class="bg" x="0.5" y="0.5" width="97" height="18" style="stroke-width: 1px; stroke: rgb(0, 0, 0); stroke-opacity: 0; fill: rgb(0, 0, 0); fill-opacity: 0;"/><text class="annotation-text" text-anchor="middle" x="48.8203125" y="14" style="font-family: 'Open Sans', verdana, arial, sans-serif; font-size: 12px; fill: rgb(42, 63, 95); fill-opacity: 1; white-space: pre;">policy=shortest</text></g></g></g><g class="annotation" data-index="3" style="opacity: 1;"><g class="annotation-text-g" transform="rotate(0,556.55,50.5)"><g class="cursor-pointer" transform="translate(511,41)"><rect class="bg" x="0.5" y="0.5" width="91" height="18" style="stroke-width: 1px; stroke: rgb(0, 0, 0); stroke-opacity: 0; fill: rgb(0, 0, 0); fill-opacity: 0;"/><text class="annotation-text" text-anchor="middle" x="46.1484375" y="14" style="font-family: 'Open Sans', verdana, arial, sans-serif; font-size: 12px; fill: rgb(42, 63, 95); fill-opacity: 1; white-space: pre;">policy=longest</text></g></g></g></g></svg>