<svg class="main-svg" xmlns="http://www.w3.org/2000/svg" xmlns:xlink="http://www.w3.org/1999/xlink" width="700" height="500" style="" viewBox="0 0 700 500"><rect x="0" y="0" width="700" height="500" style="fill: rgb(255, 255, 255); fill-opacity: 1;"/><defs id="defs-2c5daa"><g class="clips"><clipPath id="clip2c5daaxyplot" class="plotclip"><rect width="126.89999999999999" height="360"/></clipPath><clipPath id="clip2c5daax2y2plot" class="plotclip"><rect width="126.89999999999999" height="360"/></clipPath><clipPath id="clip2c5daax3y3plot" class="plotclip"><rect width="126.89999999999999" height="360"/></clipPath><clipPath id="clip2c5daax4y4plot" class="plotclip"><rect width="126.89999999999999" height="360"/></clipPath><clipPath class="axesclip" id="clip2c5daax"><rect x="80" y="0" width="126.89999999999999" height="500"/></clipPath><clipPath class="axesclip" id="clip2c5daay"><rect x="0" y="60" width="700" height="360"/></clipPath><clipPath class="axesclip" id="clip2c5daaxy"><rect x="80" y="60" width="126.89999999999999" height="360"/></clipPath><clipPath class="axesclip" id="clip2c5daay2"><rect x="0" y="60" width="700" height="360"/></clipPath><clipPath class="axesclip" id="clip2c5daaxy2"><rect x="80" y="60" width="126.89999999999999" height="360"/></clipPath><clipPath class="axesclip" id="clip2c5daay3"><rect x="0" y="60" width="700" height="360"/></clipPath><clipPath class="axesclip" id="clip2c5daaxy3"><rect x="80" y="60" width="126.89999999999999" height="360"/></clipPath><clipPath class="axesclip" id="clip2c5daay4"><rect x="0" y="60" width="700" height="360"/></clipPath><clipPath class="axesclip" id="clip2c5daaxy4"><rect x="80" y="60" width="126.89999999999999" height="360"/></clipPath><clipPath class="axesclip" id="clip2c5daax2"><rect x="217.7" y="0" width="126.89999999999999" height="500"/></clipPath><clipPath class="axesclip" id="clip2c5daax2y"><rect x="217.7" y="60" width="126.89999999999999" height="360"/></clipPath><clipPath class="axesclip" id="clip2c5daax2y2"><rect x="217.7" y="60" width="126.89999999999999" height="360"/></clipPath><clipPath class="axesclip" id="clip2c5daax2y3"><rect x="217.7" y="60" width="126.89999999999999" height="360"/></clipPath><clipPath class="axesclip" id="clip2c5daax2y4"><rect x="217.7" y="60" width="126.89999999999999" height="360"/></clipPath><clipPath class="axesclip" id="clip2c5daax3"><rect x="355.4" y="0" width="126.89999999999999" height="500"/></clipPath><clipPath class="axesclip" id="clip2c5daax3y"><rect x="355.4" y="60" width="126.89999999999999" height="360"/></clipPath><clipPath class="axesclip" id="clip2c5daax3y2"><rect x="355.4" y="60" width="126.89999999999999" height="360"/></clipPath><clipPath class="axesclip" id="clip2c5daax3y3"><rect x="355.4" y="60" width="126.89999999999999" height="360"/></clipPath><clipPath class="axesclip" id="clip2c5daax3y4"><rect x="355.4" y="60" width="126.89999999999999" height="360"/></clipPath><clipPath class="axesclip" id="clip2c5daax4"><rect x="493.09999999999997" y="0" width="126.89999999999999" height="500"/></clipPath><clipPath class="axesclip" id="clip2c5daax4y"><rect x="493.09999999999997" y="60" width="126.89999999999999" height="360"/></clipPath><clipPath class="axesclip" id="clip2c5daax4y2"><rect x="493.09999999999997" y="60" width="126.89999999999999" height="360"/></clipPath><clipPath class="axesclip" id="clip2c5daax4y3"><rect x="493.09999999999997" y="60" width="126.89999999999999" height="360"/></clipPath><clipPath class="axesclip" id="clip2c5daax4y4"><rect x="493.09999999999997" y="60" width="126.89999999999999" height="360"/></clipPath></g><g class="gradients"/><g class="patterns"/></defs><g class="bglayer"><rect class="bg" x="80" y="60" width="126.89999999999999" height="360" style="fill: rgb(229, 236, 246); fill-opacity: 1; stroke-width: 0;"/><rect class="bg" x="217.7" y="60" width="126.89999999999999" height="360" style="fill: rgb(229, 236, 246); fill-opacity: 1; stroke-width: 0;"/><rect class="bg" x="355.4" y="60" width="126.89999999999999" height="360" style="fill: rgb(229, 236, 246); fill-opacity: 1; stroke-width: 0;"/><rect class="bg" x="493.09999999999997" y="60" width="126.89999999999999" height="360" style="fill: rgb(229, 236, 246); fill-opacity: 1; stroke-width: 0;"/></g><g class="layer-below"><g class="imagelayer"/><g class="shapelayer"/></g><g class="cartesianlayer"><g class="subplot xy"><g class="layer-subplot"><g class="shapelayer"/><g class="imagelayer"/></g><g class="minor-gridlayer"><g class="x"/><g class="y"/></g><g class="gridlayer"><g class="x"><path class="xgrid crisp" transform="translate(143.45,0)" d="M0,60v360" style="stroke: rgb(255, 255, 255); stroke-opacity: 1; stroke-width: 1px;"/></g><g class="y"><path class="ygrid crisp" transform="translate(0,362.96)" d="M80,0h126.89999999999999" style="stroke: rgb(255, 255, 255); stroke-opacity: 1; stroke-width: 1px;"/><path class="ygrid crisp" transform="translate(0,323.93)" d="M80,0h126.89999999999999" style="stroke: rgb(255, 255, 255); stroke-opacity: 1; stroke-width: 1px;"/><path class="ygrid crisp" transform="translate(0,284.89)" d="M80,0h126.89999999999999" style="stroke: rgb(255, 255, 255); stroke-opacity: 1; stroke-width: 1px;"/><path class="ygrid crisp" transform="translate(0,245.86)" d="M80,0h126.89999999999999" style="stroke: rgb(255, 255, 255); stroke-opacity: 1; stroke-width: 1px;"/><path class="ygrid crisp" transform="translate(0,206.82)" d="M80,0h126.89999999999999" style="stroke: rgb(255, 255, 255); stroke-opacity: 1; stroke-width: 1px;"/><path class="ygrid crisp" transform="translate(0,167.78)" d="M80,0h126.89999999999999" style="stroke: rgb(255, 255, 255); stroke-opacity: 1; stroke-width: 1px;"/><path class="ygrid crisp" transform="translate(0,128.75)" d="M80,0h126.89999999999999" style="stroke: rgb(255, 255, 255); stroke-opacity: 1; stroke-width: 1px;"/><path class="ygrid crisp" transform="translate(0,89.71000000000001)" d="M80,0h126.89999999999999" style="stroke: rgb(255, 255, 255); stroke-opacity: 1; stroke-width: 1px;"/></g></g><g class="zerolinelayer"><path class="xzl zl crisp" transform="translate(80,0)" d="M0,60v360" style="stroke: rgb(255, 255, 255); stroke-opacity: 1; stroke-width: 2px;"/><path class="yzl zl crisp" transform="translate(0,402)" d="M80,0h126.89999999999999" style="stroke: rgb(255, 255, 255); stroke-opacity: 1; stroke-width: 2px;"/></g><g class="layer-between"><g class="shapelayer"/><g class="imagelayer"/></g><path class="xlines-below"/><path class="ylines-below"/><g class="overlines-below"/><g class="xaxislayer-below"/><g class="yaxislayer-below"/><g class="overaxes-below"/><g class="overplot"><g class="xy" transform="translate(80,60)" clip-path="url(#clip2c5daaxyplot)"><g class="scatterlayer mlayer"><g class="trace scatter traced85f85" style="stroke-miterlimit: 2; opacity: 1;"><g class="fills"/><g class="errorbars"/><g class="lines"><path class="js-line" d="M0,342L3.17,342L3.81,338.1L5.71,318.58L6.34,318.58L7.61,330.29L8.25,330.29L8.88,318.58L9.52,322.48L10.15,322.48L10.79,330.29L13.96,310.77L14.59,302.96L16.5,318.58L17.13,330.29L18.4,342L19.03,318.58L19.67,322.48L20.3,318.58L20.94,322.48L21.57,318.58L22.84,330.29L23.48,322.48L24.11,318.58L24.75,302.96L25.38,302.96L26.01,310.77L27.28,291.25L27.92,287.35L29.19,279.54L29.82,279.54L30.46,283.45L31.09,279.54L31.73,275.64L32.36,283.45L32.99,283.45L33.63,275.64L35.53,263.93L36.17,275.64L38.07,275.64L38.7,279.54L39.34,279.54L39.97,283.45L40.61,287.35L41.24,279.54L41.88,267.83L42.51,275.64L43.15,263.93L43.78,275.64L44.41,283.45L45.05,279.54L45.68,287.35L46.32,275.64L47.59,279.54L48.22,279.54L49.49,287.35L50.13,283.45L50.76,287.35L51.39,283.45L52.03,291.25L52.66,283.45L54.57,299.06L55.2,291.25L56.47,279.54L57.1,291.25L57.74,287.35L58.37,291.25L59.01,291.25L59.64,275.64L61.55,291.25L62.18,283.45L64.72,267.83L65.35,271.73L66.62,291.25L67.26,299.06L67.89,291.25L68.53,295.16L69.16,302.96L69.79,299.06L72.33,310.77L72.97,302.96L73.6,302.96L74.24,306.87L74.87,302.96L75.51,310.77L76.14,314.67L76.77,326.39L77.41,330.29L78.04,326.39L78.68,322.48L79.31,326.39L79.95,326.39L80.58,334.19L81.22,334.19L81.85,330.29L82.48,330.29L83.12,326.39L83.75,334.19L84.39,322.48L86.29,310.77L86.93,322.48L87.56,318.58L88.2,330.29L89.46,342L90.1,334.19L91.37,330.29L92,314.67L93.27,291.25L93.91,295.16L94.54,295.16L95.17,291.25L96.44,302.96L97.08,299.06L98.35,310.77L98.98,306.87L99.62,314.67L100.25,302.96L102.79,271.73L103.42,279.54L104.06,267.83L104.69,275.64L105.96,287.35L106.6,283.45L107.86,283.45L108.5,291.25L109.13,287.35L109.77,295.16L110.4,299.06L111.04,291.25L111.67,299.06L112.31,287.35L113.58,279.54L114.21,279.54L117.38,295.16L118.02,291.25L118.65,287.35L119.29,275.64L119.92,275.64L120.56,271.73L121.82,260.02L122.46,252.22L123.09,252.22L123.73,256.12L125,256.12L125.63,248.31L126.9,236.6" style="vector-effect: none; fill: none; stroke: rgb(99, 110, 250); stroke-opacity: 1; stroke-width: 2px; opacity: 1;"/></g><g class="points"/><g class="text"/></g></g></g></g><g class="zerolinelayer-above"/><path class="xlines-above crisp" d="M0,0" style="fill: none;"/><path class="ylines-above crisp" d="M0,0" style="fill: none;"/><g class="overlines-above"/><g class="xaxislayer-above"><g class="xtick"><text text-anchor="middle" x="0" y="433" transform="translate(80,0)" style="font-family: 'Open Sans', verdana, arial, sans-serif; font-size: 12px; fill: rgb(42, 63, 95); fill-opacity: 1; white-space: pre;">0</text></g><g class="xtick"><text text-anchor="middle" x="0" y="433" style="font-family: 'Open Sans', verdana, arial, sans-serif; font-size: 12px; fill: rgb(42, 63, 95); fill-opacity: 1; white-space: pre;" transform="translate(143.45,0)">500</text></g><g class="xtick"><text text-anchor="middle" x="0" y="433" style="font-family: 'Open Sans', verdana, arial, sans-serif; font-size: 12px; fill: rgb(42, 63, 95); fill-opacity: 1; white-space: pre;" transform="translate(206.9,0)">1000</text></g></g><g class="yaxislayer-above"><g class="ytick"><text text-anchor="end" x="79" y="4.199999999999999" transform="translate(0,402)" style="font-family: 'Open Sans', verdana, arial, sans-serif; font-size: 12px; fill: rgb(42, 63, 95); fill-opacity: 1; white-space: pre;">0</text></g><g class="ytick"><text text-anchor="end" x="79" y="4.199999999999999" style="font-family: 'Open Sans', verdana, arial, sans-serif; font-size: 12px; fill: rgb(42, 63, 95); fill-opacity: 1; white-space: pre;" transform="translate(0,362.96)">10</text></g><g class="ytick"><text text-anchor="end" x="79" y="4.199999999999999" style="font-family: 'Open Sans', verdana, arial, sans-serif; font-size: 12px; fill: rgb(42, 63, 95); fill-opacity: 1; white-space: pre;" transform="translate(0,323.93)">20</text></g><g class="ytick"><text text-anchor="end" x="79" y="4.199999999999999" style="font-family: 'Open Sans', verdana, arial, sans-serif; font-size: 12px; fill: rgb(42, 63, 95); fill-opacity: 1; white-space: pre;" transform="translate(0,284.89)">30</text></g><g class="ytick"><text text-anchor="end" x="79" y="4.199999999999999" style="font-family: 'Open Sans', verdana, arial, sans-serif; font-size: 12px; fill: rgb(42, 63, 95); fill-opacity: 1; white-space: pre;" transform="translate(0,245.86)">40</text></g><g class="ytick"><text text-anchor="end" x="79" y="4.199999999999999" style="font-family: 'Open Sans', verdana, arial, sans-serif; font-size: 12px; fill: rgb(42, 63, 95); fill-opacity: 1; white-space: pre;" transform="translate(0,206.82)">50</text></g><g class="ytick"><text text-anchor="end" x="79" y="4.199999999999999" style="font-family: 'Open Sans', verdana, arial, sans-serif; font-size: 12px; fill: rgb(42, 63, 95); fill-opacity: 1; white-space: pre;" transform="translate(0,167.78)">60</text></g><g class="ytick"><text text-anchor="end" x="79" y="4.199999999999999" style="font-family: 'Open Sans', verdana, arial, sans-serif; font-size: 12px; fill: rgb(42, 63, 95); fill-opacity: 1; white-space: pre;" transform="translate(0,128.75)">70</text></g><g class="ytick"><text text-anchor="end" x="79" y="4.199999999999999" style="font-family: 'Open Sans', verdana, arial, sans-serif; font-size: 12px; fill: rgb(42, 63, 95); fill-opacity: 1; white-space: pre;" transform="translate(0,89.71000000000001)">80</text></g></g><g class="overaxes-above"/></g><g class="subplot x2y2"><g class="layer-subplot"><g class="shapelayer"/><g class="imagelayer"/></g><g class="minor-gridlayer"><g class="x2"/><g class="y2"/></g><g class="gridlayer"><g class="x2"><path class="x2grid crisp" transform="translate(281.15,0)" d="M0,60v360" style="stroke: rgb(255, 255, 255); stroke-opacity: 1; stroke-width: 1px;"/></g><g class="y2"><path class="y2grid crisp" transform="translate(0,362.96)" d="M217.7,0h126.89999999999999" style="stroke: rgb(255, 255, 255); stroke-opacity: 1; stroke-width: 1px;"/><path class="y2grid crisp" transform="translate(0,323.93)" d="M217.7,0h126.89999999999999" style="stroke: rgb(255, 255, 255); stroke-opacity: 1; stroke-width: 1px;"/><path class="y2grid crisp" transform="translate(0,284.89)" d="M217.7,0h126.89999999999999" style="stroke: rgb(255, 255, 255); stroke-opacity: 1; stroke-width: 1px;"/><path class="y2grid crisp" transform="translate(0,245.86)" d="M217.7,0h126.89999999999999" style="stroke: rgb(255, 255, 255); stroke-opacity: 1; stroke-width: 1px;"/><path class="y2grid crisp" transform="translate(0,206.82)" d="M217.7,0h126.89999999999999" style="stroke: rgb(255, 255, 255); stroke-opacity: 1; stroke-width: 1px;"/><path class="y2grid crisp" transform="translate(0,167.78)" d="M217.7,0h126.89999999999999" style="stroke: rgb(255, 255, 255); stroke-opacity: 1; stroke-width: 1px;"/><path class="y2grid crisp" transform="translate(0,128.75)" d="M217.7,0h126.89999999999999" style="stroke: rgb(255, 255, 255); stroke-opacity: 1; stroke-width: 1px;"/><path class="y2grid crisp" transform="translate(0,89.71000000000001)" d="M217.7,0h126.89999999999999" style="stroke: rgb(255, 255, 255); stroke-opacity: 1; stroke-width: 1px;"/></g></g><g class="zerolinelayer"><path class="x2zl zl crisp" transform="translate(217.7,0)" d="M0,60v360" style="stroke: rgb(255, 255, 255); stroke-opacity: 1; stroke-width: 2px;"/><path class="y2zl zl crisp" transform="translate(0,402)" d="M217.7,0h126.89999999999999" style="stroke: rgb(255, 255, 255); stroke-opacity: 1; stroke-width: 2px;"/></g><g class="layer-between"><g class="shapelayer"/><g class="imagelayer"/></g><path class="xlines-below"/><path class="ylines-below"/><g class="overlines-below"/><g class="xaxislayer-below"/><g class="yaxislayer-below"/><g class="overaxes-below"/><g class="overplot"><g class="x2y2" transform="translate(217.7,60)" clip-path="url(#clip2c5daax2y2plot)"><g class="scatterlayer mlayer"><g class="trace scatter trace420845" style="stroke-miterlimit: 2; opacity: 1;"><g class="fills"/><g class="errorbars"/><g class="lines"><path class="js-line" d="M0,342L1.27,322.48L1.9,326.39L2.54,322.48L3.17,330.29L4.44,318.58L5.08,326.39L5.71,330.29L6.34,322.48L8.25,334.19L8.88,326.39L9.52,334.19L10.15,326.39L10.79,330.29L11.42,326.39L12.06,326.39L12.69,334.19L13.32,338.1L13.96,334.19L14.59,330.29L15.23,334.19L16.5,338.1L17.13,338.1L17.77,322.48L18.4,330.29L19.67,306.87L20.3,314.67L20.94,318.58L21.57,310.77L23.48,334.19L24.11,334.19L24.75,338.1L25.38,334.19L26.65,342L27.28,330.29L28.55,318.58L29.19,318.58L30.46,314.67L31.09,322.48L31.73,330.29L32.36,322.48L35.53,306.87L36.17,314.67L36.8,314.67L37.44,322.48L38.07,330.29L38.7,326.39L40.61,342L41.24,342L43.78,314.67L44.41,314.67L45.05,330.29L45.68,326.39L46.95,314.67L47.59,326.39L48.22,330.29L48.86,322.48L49.49,318.58L50.13,322.48L50.76,322.48L51.39,318.58L53.3,306.87L53.93,310.77L55.84,334.19L56.47,326.39L57.1,330.29L57.74,326.39L58.37,326.39L59.01,318.58L59.64,314.67L60.28,302.96L60.91,314.67L61.55,310.77L63.45,326.39L64.08,322.48L64.72,342L65.35,334.19L65.99,334.19L66.62,342L67.26,342L67.89,330.29L68.53,334.19L69.16,326.39L70.43,310.77L71.06,314.67L72.97,322.48L73.6,306.87L74.87,310.77L75.51,306.87L76.77,306.87L77.41,310.77L78.04,310.77L78.68,306.87L79.31,291.25L79.95,299.06L80.58,275.64L81.22,287.35L81.85,291.25L82.48,283.45L83.12,291.25L83.75,287.35L85.02,295.16L85.66,283.45L86.93,271.73L87.56,267.83L88.2,263.93L88.83,267.83L90.1,267.83L90.73,263.93L91.37,263.93L92,256.12L93.91,256.12L94.54,260.02L95.81,263.93L96.44,275.64L97.71,275.64L98.35,267.83L98.98,263.93L99.62,267.83L100.89,275.64L101.52,260.02L102.15,267.83L102.79,256.12L104.06,267.83L104.69,263.93L105.96,271.73L106.6,267.83L107.23,271.73L107.86,287.35L111.67,306.87L112.31,295.16L113.58,295.16L114.21,306.87L116.11,322.48L116.75,326.39L118.02,326.39L118.65,330.29L119.29,322.48L119.92,330.29L121.19,342L121.82,342L122.46,342L123.09,334.19L124.36,342L125,338.1L126.27,342L126.9,326.39" style="vector-effect: none; fill: none; stroke: rgb(99, 110, 250); stroke-opacity: 1; stroke-width: 2px; opacity: 1;"/></g><g class="points"/><g class="text"/></g></g></g></g><g class="zerolinelayer-above"/><path class="xlines-above crisp" d="M0,0" style="fill: none;"/><path class="ylines-above crisp" d="M0,0" style="fill: none;"/><g class="overlines-above"/><g class="xaxislayer-above"><g class="x2tick"><text text-anchor="middle" x="0" y="433" transform="translate(217.7,0)" style="font-family: 'Open Sans', verdana, arial, sans-serif; font-size: 12px; fill: rgb(42, 63, 95); fill-opacity: 1; white-space: pre;">0</text></g><g class="x2tick"><text text-anchor="middle" x="0" y="433" style="font-family: 'Open Sans', verdana, arial, sans-serif; font-size: 12px; fill: rgb(42, 63, 95); fill-opacity: 1; white-space: pre;" transform="translate(281.15,0)">500</text></g><g class="x2tick"><text text-anchor="middle" x="0" y="433" style="font-family: 'Open Sans', verdana, arial, sans-serif; font-size: 12px; fill: rgb(42, 63, 95); fill-opacity: 1; white-space: pre;" transform="translate(344.6,0)">1000</text></g></g><g class="yaxislayer-above"/><g class="overaxes-above"/></g><g class="subplot x3y3"><g class="layer-subplot"><g class="shapelayer"/><g class="imagelayer"/></g><g class="minor-gridlayer"><g class="x3"/><g class="y3"/></g><g class="gridlayer"><g class="x3"><path class="x3grid crisp" transform="translate(418.84999999999997,0)" d="M0,60v360" style="stroke: rgb(255, 255, 255); stroke-opacity: 1; stroke-width: 1px;"/></g><g class="y3"><path class="y3grid crisp" transform="translate(0,362.96)" d="M355.4,0h126.89999999999999" style="stroke: rgb(255, 255, 255); stroke-opacity: 1; stroke-width: 1px;"/><path class="y3grid crisp" transform="translate(0,323.93)" d="M355.4,0h126.89999999999999" style="stroke: rgb(255, 255, 255); stroke-opacity: 1; stroke-width: 1px;"/><path class="y3grid crisp" transform="translate(0,284.89)" d="M355.4,0h126.89999999999999" style="stroke: rgb(255, 255, 255); stroke-opacity: 1; stroke-width: 1px;"/><path class="y3grid crisp" transform="translate(0,245.86)" d="M355.4,0h126.89999999999999" style="stroke: rgb(255, 255, 255); stroke-opacity: 1; stroke-width: 1px;"/><path class="y3grid crisp" transform="translate(0,206.82)" d="M355.4,0h126.89999999999999" style="stroke: rgb(255, 255, 255); stroke-opacity: 1; stroke-width: 1px;"/><path class="y3grid crisp" transform="translate(0,167.78)" d="M355.4,0h126.89999999999999" style="stroke: rgb(255, 255, 255); stroke-opacity: 1; stroke-width: 1px;"/><path class="y3grid crisp" transform="translate(0,128.75)" d="M355.4,0h126.89999999999999" style="stroke: rgb(255, 255, 255); stroke-opacity: 1; stroke-width: 1px;"/><path class="y3grid crisp" transform="translate(0,89.71000000000001)" d="M355.4,0h126.89999999999999" style="stroke: rgb(255, 255, 255); stroke-opacity: 1; stroke-width: 1px;"/></g></g><g class="zerolinelayer"><path class="x3zl zl crisp" transform="translate(355.4,0)" d="M0,60v360" style="stroke: rgb(255, 255, 255); stroke-opacity: 1; stroke-width: 2px;"/><path class="y3zl zl crisp" transform="translate(0,402)" d="M355.4,0h126.89999999999999" style="stroke: rgb(255, 255, 255); stroke-opacity: 1; stroke-width: 2px;"/></g><g class="layer-between"><g class="shapelayer"/><g class="imagelayer"/></g><path class="xlines-below"/><path class="ylines-below"/><g class="overlines-below"/><g class="xaxislayer-below"/><g class="yaxislayer-below"/><g class="overaxes-below"/><g class="overplot"><g class="x3y3" transform="translate(355.4,60)" clip-path="url(#clip2c5daax3y3plot)"><g class="scatterlayer mlayer"><g class="trace scatter trace8e8b59" style="stroke-miterlimit: 2; opacity: 1;"><g class="fills"/><g class="errorbars"/><g class="lines"><path class="js-line" d="M0,342L1.27,342L1.9,338.1L3.17,330.29L3.81,334.19L5.71,334.19L6.34,342L8.25,334.19L8.88,334.19L10.15,342L10.79,334.19L12.06,342L12.69,334.19L13.96,342L14.59,342L17.13,342L17.77,338.1L19.03,326.39L19.67,326.39L20.3,330.29L20.94,326.39L21.57,326.39L22.21,330.29L22.84,330.29L23.48,338.1L24.11,342L24.75,326.39L25.38,322.48L26.01,330.29L27.92,338.1L28.55,322.48L29.19,326.39L29.82,322.48L32.36,306.87L32.99,314.67L34.9,326.39L35.53,318.58L36.17,330.29L36.8,318.58L38.07,322.48L38.7,318.58L39.97,322.48L40.61,318.58L41.88,330.29L42.51,330.29L43.78,326.39L44.41,326.39L45.68,334.19L46.32,326.39L46.95,326.39L47.59,330.29L48.86,330.29L49.49,334.19L50.76,330.29L51.39,334.19L52.66,322.48L53.3,326.39L53.93,326.39L54.57,334.19L55.84,322.48L56.47,322.48L57.1,318.58L57.74,322.48L58.37,326.39L59.01,310.77L59.64,318.58L60.28,310.77L60.91,314.67L61.55,310.77L62.82,310.77L63.45,306.87L64.72,318.58L65.35,310.77L67.26,310.77L67.89,302.96L68.53,306.87L69.16,302.96L71.7,314.67L72.33,302.96L73.6,318.58L74.24,318.58L75.51,326.39L76.14,314.67L76.77,318.58L77.41,310.77L79.31,318.58L79.95,318.58L81.85,318.58L82.48,314.67L83.12,318.58L83.75,310.77L84.39,318.58L85.02,314.67L85.66,314.67L86.29,302.96L86.93,310.77L87.56,302.96L88.83,310.77L89.46,314.67L91.37,295.16L92,299.06L92.64,295.16L93.27,302.96L93.91,299.06L94.54,306.87L95.17,306.87L95.81,299.06L96.44,302.96L97.08,295.16L97.71,299.06L98.35,295.16L98.98,291.25L99.62,299.06L100.25,299.06L100.89,302.96L101.52,306.87L102.15,302.96L102.79,299.06L103.42,302.96L104.69,310.77L105.33,306.87L105.96,306.87L106.6,314.67L107.23,310.77L107.86,318.58L108.5,295.16L109.13,306.87L109.77,306.87L110.4,314.67L111.67,306.87L112.31,306.87L113.58,306.87L114.21,310.77L115.48,291.25L116.11,295.16L116.75,295.16L117.38,302.96L119.29,314.67L119.92,306.87L120.56,306.87L121.19,299.06L122.46,310.77L123.09,299.06L123.73,299.06L124.36,291.25L125,291.25L125.63,287.35L126.9,299.06" style="vector-effect: none; fill: none; stroke: rgb(99, 110, 250); stroke-opacity: 1; stroke-width: 2px; opacity: 1;"/></g><g class="points"/><g class="text"/></g></g></g></g><g class="zerolinelayer-above"/><path class="xlines-above crisp" d="M0,0" style="fill: none;"/><path class="ylines-above crisp" d="M0,0" style="fill: none;"/><g class="overlines-above"/><g class="xaxislayer-above"><g class="x3tick"><text text-anchor="middle" x="0" y="433" transform="translate(355.4,0)" style="font-family: 'Open Sans', verdana, arial, sans-serif; font-size: 12px; fill: rgb(42, 63, 95); fill-opacity: 1; white-space: pre;">0</text></g><g class="x3tick"><text text-anchor="middle" x="0" y="433" style="font-family: 'Open Sans', verdana, arial, sans-serif; font-size: 12px; fill: rgb(42, 63, 95); fill-opacity: 1; white-space: pre;" transform="translate(418.84999999999997,0)">500</text></g><g class="x3tick"><text text-anchor="middle" x="0" y="433" style="font-family: 'Open Sans', verdana, arial, sans-serif; font-size: 12px; fill: rgb(42, 63, 95); fill-opacity: 1; white-space: pre;" transform="translate(482.29999999999995,0)">1000</text></g></g><g class="yaxislayer-above"/><g class="overaxes-above"/></g><g class="subplot x4y4"><g class="layer-subplot"><g class="shapelayer"/><g class="imagelayer"/></g><g class="minor-gridlayer"><g class="x4"/><g class="y4"/></g><g class="gridlayer"><g class="x4"><path class="x4grid crisp" transform="translate(556.55,0)" d="M0,60v360" style="stroke: rgb(255, 255, 255); stroke-opacity: 1; stroke-width: 1px;"/></g><g class="y4"><path class="y4grid crisp" transform="translate(0,362.96)" d="M493.09999999999997,0h126.89999999999999" style="stroke: rgb(255, 255, 255); stroke-opacity: 1; stroke-width: 1px;"/><path class="y4grid crisp" transform="translate(0,323.93)" d="M493.09999999999997,0h126.89999999999999" style="stroke: rgb(255, 255, 255); stroke-opacity: 1; stroke-width: 1px;"/><path class="y4grid crisp" transform="translate(0,284.89)" d="M493.09999999999997,0h126.89999999999999" style="stroke: rgb(255, 255, 255); stroke-opacity: 1; stroke-width: 1px;"/><path class="y4grid crisp" transform="translate(0,245.86)" d="M493.09999999999997,0h126.89999999999999" style="stroke: rgb(255, 255, 255); stroke-opacity: 1; stroke-width: 1px;"/><path class="y4grid crisp" transform="translate(0,206.82)" d="M493.09999999999997,0h126.89999999999999" style="stroke: rgb(255, 255, 255); stroke-opacity: 1; stroke-width: 1px;"/><path class="y4grid crisp" transform="translate(0,167.78)" d="M493.09999999999997,0h126.89999999999999" style="stroke: rgb(255, 255, 255); stroke-opacity: 1; stroke-width: 1px;"/><path class="y4grid crisp" transform="translate(0,128.75)" d="M493.09999999999997,0h126.89999999999999" style="stroke: rgb(255, 255, 255); stroke-opacity: 1; stroke-width: 1px;"/><path class="y4grid crisp" transform="translate(0,89.71000000000001)" d="M493.09999999999997,0h126.89999999999999" style="stroke: rgb(255, 255, 255); stroke-opacity: 1; stroke-width: 1px;"/></g></g><g class="zerolinelayer"><path class="x4zl zl crisp" transform="translate(493.09999999999997,0)" d="M0,60v360" style="stroke: rgb(255, 255, 255); stroke-opacity: 1; stroke-width: 2px;"/><path class="y4zl zl crisp" transform="translate(0,402)" d="M493.09999999999997,0h126.89999999999999" style="stroke: rgb(255, 255, 255); stroke-opacity: 1; stroke-width: 2px;"/></g><g class="layer-between"><g class="shapelayer"/><g class="imagelayer"/></g><path class="xlines-below"/><path class="ylines-below"/><g class="overlines-below"/><g class="xaxislayer-below"/><g class="yaxislayer-below"/><g class="overaxes-below"/><g class="overplot"><g class="x4y4" transform="translate(493.09999999999997,60)" clip-path="url(#clip2c5daax4y4plot)"><g class="scatterlayer mlayer"><g class="trace scatter tracecd78bf" style="stroke-miterlimit: 2; opacity: 1;"><g class="fills"/><g class="errorbars"/><g class="lines"><path class="js-line" d="M0,342L1.27,318.58L1.9,322.48L3.17,306.87L3.81,302.96L5.71,263.93L6.34,271.73L7.61,275.64L8.25,256.12L8.88,260.02L9.52,248.31L10.79,267.83L11.42,267.83L12.69,244.41L13.32,256.12L15.23,256.12L15.86,260.02L17.13,267.83L17.77,283.45L19.03,299.06L19.67,295.16L21.57,302.96L22.21,295.16L23.48,283.45L24.11,295.16L24.75,291.25L25.38,306.87L26.01,310.77L26.65,306.87L27.92,322.48L28.55,314.67L29.82,314.67L30.46,318.58L31.73,342L32.36,338.1L32.99,338.1L33.63,342L34.26,330.29L34.9,334.19L35.53,318.58L36.17,322.48L37.44,322.48L38.07,310.77L41.24,310.77L41.88,306.87L43.15,326.39L43.78,342L44.41,338.1L45.05,342L46.32,326.39L46.95,330.29L47.59,342L48.22,334.19L50.76,299.06L51.39,302.96L52.03,302.96L52.66,295.16L55.2,271.73L55.84,275.64L56.47,275.64L57.1,279.54L58.37,267.83L59.01,271.73L61.55,224.89L62.18,228.8L62.82,224.89L63.45,201.47L65.99,150.72L66.62,150.72L67.26,150.72L67.89,146.82L69.79,135.11L70.43,139.01L71.7,131.2L72.33,127.3L72.97,127.3L73.6,135.11L74.87,99.98L75.51,99.98L78.68,68.75L79.31,68.75L80.58,80.46L81.22,76.55L83.12,60.94L83.75,57.04L85.02,37.52L85.66,37.52L86.29,37.52L86.93,45.33L88.2,49.23L88.83,33.61L90.1,45.33L90.73,53.13L92,57.04L92.64,49.23L93.91,25.81L94.54,29.71L95.81,29.71L96.44,33.61L98.35,18L98.98,18L100.25,29.71L100.89,41.42L101.52,41.42L102.15,49.23L104.69,99.98L105.33,92.17L105.96,96.07L106.6,92.17L108.5,60.94L109.13,57.04L109.77,64.84L110.4,60.94L111.67,64.84L112.31,76.55L114.21,84.36L114.84,80.46L116.11,68.75L116.75,80.46L117.38,84.36L118.02,99.98L119.29,123.4L119.92,131.2L121.82,123.4L122.46,123.4L123.09,119.49L123.73,127.3L125,135.11L125.63,154.63L126.9,201.47" style="vector-effect: none; fill: none; stroke: rgb(99, 110, 250); stroke-opacity: 1; stroke-width: 2px; opacity: 1;"/></g><g class="points"/><g class="text"/></g></g></g></g><g class="zerolinelayer-above"/><path class="xlines-above crisp" d="M0,0" style="fill: none;"/><path class="ylines-above crisp" d="M0,0" style="fill: none;"/><g class="overlines-above"/><g class="xaxislayer-above"><g class="x4tick"><text text-anchor="middle" x="0" y="433" transform="translate(493.09999999999997,0)" style="font-family: 'Open Sans', verdana, arial, sans-serif; font-size: 12px; fill: rgb(42, 63, 95); fill-opacity: 1; white-space: pre;">0</text></g><g class="x4tick"><text text-anchor="middle" x="0" y="433" style="font-family: 'Open Sans', verdana, arial, sans-serif; font-size: 12px; fill: rgb(42, 63, 95); fill-opacity: 1; white-space: pre;" transform="translate(556.55,0)">500</text></g><g class="x4tick"><text text-anchor="middle" x="0" y="433" style="font-family: 'Open Sans', verdana, arial, sans-serif; font-size: 12px; fill: rgb(42, 63, 95); fill-opacity: 1; white-space: pre;" transform="translate(620,0)">1000</text></g></g><g class="yaxislayer-above"/><g class="overaxes-above"/></g></g><g class="polarlayer"/><g class="smithlayer"/><g class="ternarylayer"/><g class="geolayer"/><g class="funnelarealayer"/><g class="pielayer"/><g class="iciclelayer"/><g class="treemaplayer"/><g class="sunburstlayer"/><g class="glimages"/><defs id="topdefs-2c5daa"><g class="clips"/></defs><g class="layer-above"><g class="imagelayer"/><g class="shapelayer"/></g><g class="infolayer"><g class="g-gtitle"/><g class="g-xtitle"><text class="xtitle" x="143.45" y="460.3" text-anchor="middle" style="opacity: 1; font-family: 'Open Sans', verdana, arial, sans-serif; font-size: 14px; fill: rgb(42, 63, 95); fill-opacity: 1; white-space: pre;">time</text></g><g class="g-x2title"><text class="x2title" x="281.15" y="460.3" text-anchor="middle" style="opacity: 1; font-family: 'Open Sans', verdana, arial, sans-serif; font-size: 14px; fill: rgb(42, 63, 95); fill-opacity: 1; white-space: pre;">time</text></g><g class="g-x3title"><text class="x3title" x="418.84999999999997" y="460.3" text-anchor="middle" style="opacity: 1; font-family: 'Open Sans', verdana, arial, sans-serif; font-size: 14px; fill: rgb(42, 63, 95); fill-opacity: 1; white-space: pre;">time</text></g><g class="g-x4title"><text class="x4title" x="556.55" y="460.3" text-anchor="middle" style="opacity: 1; font-family: 'Open Sans', verdana, arial, sans-serif; font-size: 14px; fill: rgb(42, 63, 95); fill-opacity: 1; white-space: pre;">time</text></g><g class="g-ytitle"><text class="ytitle" transform="rotate(-90,44.334375,240)" x="44.334375" y="240" text-anchor="middle" style="opacity: 1; font-family: 'Open Sans', verdana, arial, sans-serif; font-size: 14px; fill: rgb(42, 63, 95); fill-opacity: 1; white-space: pre;">length</text></g><g class="g-y2title"/><g class="g-y3title"/><g class="g-y4title"/><g class="annotation" data-index="0" style="opacity: 1;"><g class="annotation-text-g" transform="rotate(0,143.45,50.5)"><g class="cursor-pointer" transform="translate(101,41)"><rect class="bg" x="0.5" y="0.5" width="84" height="18" style="stroke-width: 1px; stroke: rgb(0, 0, 0); stroke-opacity: 0; fill: rgb(0, 0, 0); fill-opacity: 0;"/><text class="annotation-text" text-anchor="middle" x="42.3515625" y="14" style="font-family: 'Open Sans', verdana, arial, sans-serif; font-size: 12px; fill: rgb(42, 63, 95); fill-opacity: 1; white-space: pre;">policy=oldest</text></g></g></g><g class="annotation" data-index="1" style="opacity: 1;"><g class="annotation-text-g" transform="rotate(0,281.15,50.5)"><g class="cursor-pointer" transform="translate(236,41)"><rect class="bg" x="0.5" y="0.5" width="90" height="18" style="stroke-width: 1px; stroke: rgb(0, 0, 0); stroke-opacity: 0; fill: rgb(0, 0, 0); fill-opacity: 0;"/><text class="annotation-text" text-anchor="middle" x="45.609375" y="14" style="font-family: 'Open Sans', verdana, arial, sans-serif; font-size: 12px; fill: rgb(42, 63, 95); fill-opacity: 1; white-space: pre;">policy=newest</text></g></g></g><g class="annotation" data-index="2" style="opacity: 1;"><g class="annotation-text-g" transform="rotate(0,418.84999999999997,50.5)"><g class="cursor-pointer" transform="translate(370,41)"><rect class="bg" x="0.5" y="0.5" width="97" height="18" style="stroke-width: 1px; stroke: rgb(0, 0, 0); stroke-opacity: 0; fill: rgb(0, 0, 0); fill-opacity: 0;"/><text class="annotation-text" text-anchor="middle" x="48.8203125" y="14" style="font-family: 'Open Sans', verdana, arial, sans-serif; font-size: 12px; fill: rgb(42, 63, 95); fill-opacity: 1; white-space: pre;">policy=shortest</text></g></g></g><g class="annotation" data-index="3" style="opacity: 1;"><g class="annotation-text-g" transform="rotate(0,556.55,50.5)"><g class="cursor-pointer" transform="translate(511,41)"><rect class="bg" x="0.5" y="0.5" width="91" height="18" style="stroke-width: 1px; stroke: rgb(0, 0, 0); stroke-opacity: 0; fill: rgb(0, 0, 0); fill-opacity: 0;"/><text class="annotation-text" text-anchor="middle" x="46.1484375" y="14" style="font-family: 'Open Sans', verdana, arial, sans-serif; font-size: 12px; fill: rgb(42, 63, 95); fill-opacity: 1; white-space: pre;">policy=longest</text></g></g></g></g></svg>