<?xml version="1.0" encoding="UTF-8" standalone="no"?>
<!DOCTYPE svg PUBLIC "-//W3C//DTD SVG 1.1//EN"
 "http://www.w3.org/Graphics/SVG/1.1/DTD/svg11.dtd">
<!-- Generated by graphviz version 14.1.1 (20251213.1925)
 -->
<!-- Title: StateTransitions Pages: 1 -->
<svg width="432pt" height="118pt"
 viewBox="0.00 0.00 432.00 118.00" xmlns="http://www.w3.org/2000/svg" xmlns:xlink="http://www.w3.org/1999/xlink">
<g id="graph0" class="graph" transform="scale(0.696774 0.696774) rotate(0) translate(4 166)">
<title>StateTransitions</title>
<polygon fill="white" stroke="none" points="-4,4 -4,-166 616,-166 616,4 -4,4"/>
<!-- waiting_code -->
<g id="node1" class="node">
<title>waiting_code</title>
<polygon fill="none" stroke="black" points="88.75,-135 0,-135 0,-99 88.75,-99 88.75,-135"/>
<text xml:space="preserve" text-anchor="middle" x="44.38" y="-111.95" font-family="Times,serif" font-size="14.00">waiting_code</text>
</g>
<!-- coding -->
<g id="node2" class="node">
<title>coding</title>
<polygon fill="none" stroke="black" points="202.75,-135 148.75,-135 148.75,-99 202.75,-99 202.75,-135"/>
<text xml:space="preserve" text-anchor="middle" x="175.75" y="-111.95" font-family="Times,serif" font-size="14.00">coding</text>
</g>
<!-- waiting_code&#45;&gt;coding -->
<g id="edge1" class="edge">
<title>waiting_code&#45;&gt;coding</title>
<path fill="none" stroke="black" stroke-width="3" d="M89.18,-117C103.76,-117 119.92,-117 134.24,-117"/>
<polygon fill="black" stroke="black" stroke-width="3" points="133.81,-120.5 143.81,-117 133.81,-113.5 133.81,-120.5"/>
<text xml:space="preserve" text-anchor="middle" x="118.75" y="-120.2" font-family="Times,serif" font-size="14.00">1.00</text>
</g>
<!-- test_queue -->
<g id="node6" class="node">
<title>test_queue</title>
<polygon fill="none" stroke="black" points="336.5,-99 262.75,-99 262.75,-63 336.5,-63 336.5,-99"/>
<text xml:space="preserve" text-anchor="middle" x="299.62" y="-75.95" font-family="Times,serif" font-size="14.00">test_queue</text>
</g>
<!-- coding&#45;&gt;test_queue -->
<g id="edge6" class="edge">
<title>coding&#45;&gt;test_queue</title>
<path fill="none" stroke="black" stroke-width="3" d="M203.2,-109.19C216.49,-105.26 233.05,-100.37 248.62,-95.77"/>
<polygon fill="black" stroke="black" stroke-width="3" points="249.57,-99.14 258.17,-92.95 247.59,-92.43 249.57,-99.14"/>
<text xml:space="preserve" text-anchor="middle" x="232.75" y="-106.48" font-family="Times,serif" font-size="14.00">1.00</text>
</g>
<!-- waiting_rework -->
<g id="node3" class="node">
<title>waiting_rework</title>
<polygon fill="none" stroke="black" points="612,-162 510.5,-162 510.5,-126 612,-126 612,-162"/>
<text xml:space="preserve" text-anchor="middle" x="561.25" y="-138.95" font-family="Times,serif" font-size="14.00">waiting_rework</text>
</g>
<!-- waiting_rework&#45;&gt;coding -->
<g id="edge2" class="edge">
<title>waiting_rework&#45;&gt;coding</title>
<path fill="none" stroke="black" stroke-width="3" d="M510.07,-142.6C443.71,-140.38 323.18,-135.14 220.75,-124 219.68,-123.88 218.6,-123.76 217.51,-123.63"/>
<polygon fill="black" stroke="black" stroke-width="3" points="218.1,-120.18 207.72,-122.27 217.14,-127.11 218.1,-120.18"/>
<text xml:space="preserve" text-anchor="middle" x="366.5" y="-139.78" font-family="Times,serif" font-size="14.00">1.00</text>
</g>
<!-- testing -->
<g id="node4" class="node">
<title>testing</title>
<polygon fill="none" stroke="black" points="450.5,-99 396.5,-99 396.5,-63 450.5,-63 450.5,-99"/>
<text xml:space="preserve" text-anchor="middle" x="423.5" y="-75.95" font-family="Times,serif" font-size="14.00">testing</text>
</g>
<!-- testing&#45;&gt;waiting_rework -->
<g id="edge8" class="edge">
<title>testing&#45;&gt;waiting_rework</title>
<path fill="none" stroke="black" stroke-width="2.06" d="M451,-93.3C467.43,-100.92 489.1,-110.98 508.8,-120.12"/>
<polygon fill="black" stroke="black" stroke-width="2.06" points="507.07,-123.18 517.61,-124.21 510.02,-116.83 507.07,-123.18"/>
<text xml:space="preserve" text-anchor="middle" x="480.5" y="-115.7" font-family="Times,serif" font-size="14.00">0.53</text>
</g>
<!-- complete -->
<g id="node5" class="node">
<title>complete</title>
<polygon fill="none" stroke="black" points="594.38,-99 528.12,-99 528.12,-63 594.38,-63 594.38,-99"/>
<text xml:space="preserve" text-anchor="middle" x="561.25" y="-75.95" font-family="Times,serif" font-size="14.00">complete</text>
</g>
<!-- testing&#45;&gt;complete -->
<g id="edge3" class="edge">
<title>testing&#45;&gt;complete</title>
<path fill="none" stroke="black" stroke-width="1.93" d="M451,-81C469.27,-81 494.02,-81 515.34,-81"/>
<polygon fill="black" stroke="black" stroke-width="1.93" points="515.16,-84.5 525.16,-81 515.16,-77.5 515.16,-84.5"/>
<text xml:space="preserve" text-anchor="middle" x="480.5" y="-84.2" font-family="Times,serif" font-size="14.00">0.47</text>
</g>
<!-- incomplete -->
<g id="node7" class="node">
<title>incomplete</title>
<polygon fill="none" stroke="black" points="599.62,-36 522.88,-36 522.88,0 599.62,0 599.62,-36"/>
<text xml:space="preserve" text-anchor="middle" x="561.25" y="-12.95" font-family="Times,serif" font-size="14.00">incomplete</text>
</g>
<!-- testing&#45;&gt;incomplete -->
<g id="edge5" class="edge">
<title>testing&#45;&gt;incomplete</title>
<path fill="none" stroke="black" stroke-width="1.01" d="M450.55,-68.85C456.45,-66.1 462.69,-63.2 468.5,-60.5 482.85,-53.83 498.47,-46.59 512.68,-40.01"/>
<polygon fill="black" stroke="black" stroke-width="1.01" points="513.75,-43.37 521.36,-35.99 510.81,-37.02 513.75,-43.37"/>
<text xml:space="preserve" text-anchor="middle" x="480.5" y="-63.7" font-family="Times,serif" font-size="14.00">0.01</text>
</g>
<!-- test_queue&#45;&gt;testing -->
<g id="edge7" class="edge">
<title>test_queue&#45;&gt;testing</title>
<path fill="none" stroke="black" stroke-width="2.25" d="M336.86,-81C351.47,-81 368.37,-81 383.27,-81"/>
<polygon fill="black" stroke="black" stroke-width="2.25" points="382.87,-84.5 392.87,-81 382.87,-77.5 382.87,-84.5"/>
<text xml:space="preserve" text-anchor="middle" x="366.5" y="-84.2" font-family="Times,serif" font-size="14.00">0.62</text>
</g>
<!-- test_queue&#45;&gt;incomplete -->
<g id="edge4" class="edge">
<title>test_queue&#45;&gt;incomplete</title>
<path fill="none" stroke="black" stroke-width="1.75" d="M334.28,-62.65C352.24,-53.66 375.02,-43.5 396.5,-37.5 433.75,-27.1 477.27,-22.25 510.09,-19.98"/>
<polygon fill="black" stroke="black" stroke-width="1.75" points="510.14,-23.49 519.9,-19.37 509.7,-16.5 510.14,-23.49"/>
<text xml:space="preserve" text-anchor="middle" x="423.5" y="-40.7" font-family="Times,serif" font-size="14.00">0.38</text>
</g>
</g>
</svg>
