<svg class="main-svg" xmlns="http://www.w3.org/2000/svg" xmlns:xlink="http://www.w3.org/1999/xlink" width="700" height="500" style="" viewBox="0 0 700 500"><rect x="0" y="0" width="700" height="500" style="fill: rgb(255, 255, 255); fill-opacity: 1;"/><defs id="defs-06376e"><g class="clips"><clipPath id="clip06376exyplot" class="plotclip"><rect width="584" height="459"/></clipPath><clipPath class="axesclip" id="clip06376ex"><rect x="49" y="0" width="584" height="500"/></clipPath><clipPath class="axesclip" id="clip06376ey"><rect x="0" y="0" width="700" height="459"/></clipPath><clipPath class="axesclip" id="clip06376exy"><rect x="49" y="0" width="584" height="459"/></clipPath></g><g class="gradients"/><g class="patterns"/></defs><g class="bglayer"><rect class="bg" x="49" y="0" width="584" height="459" style="fill: rgb(229, 236, 246); fill-opacity: 1; stroke-width: 0;"/></g><g class="layer-below"><g class="imagelayer"/><g class="shapelayer"/></g><g class="cartesianlayer"><g class="subplot xy"><g class="layer-subplot"><g class="shapelayer"/><g class="imagelayer"/></g><g class="minor-gridlayer"><g class="x"/><g class="y"/></g><g class="gridlayer"><g class="x"><path class="xgrid crisp" transform="translate(166.39,0)" d="M0,0v459" style="stroke: rgb(255, 255, 255); stroke-opacity: 1; stroke-width: 1px;"/><path class="xgrid crisp" transform="translate(283.77,0)" d="M0,0v459" style="stroke: rgb(255, 255, 255); stroke-opacity: 1; stroke-width: 1px;"/><path class="xgrid crisp" transform="translate(401.16,0)" d="M0,0v459" style="stroke: rgb(255, 255, 255); stroke-opacity: 1; stroke-width: 1px;"/><path class="xgrid crisp" transform="translate(518.55,0)" d="M0,0v459" style="stroke: rgb(255, 255, 255); stroke-opacity: 1; stroke-width: 1px;"/></g><g class="y"><path class="ygrid crisp" transform="translate(0,379.46)" d="M49,0h584" style="stroke: rgb(255, 255, 255); stroke-opacity: 1; stroke-width: 1px;"/><path class="ygrid crisp" transform="translate(0,322.87)" d="M49,0h584" style="stroke: rgb(255, 255, 255); stroke-opacity: 1; stroke-width: 1px;"/><path class="ygrid crisp" transform="translate(0,266.28)" d="M49,0h584" style="stroke: rgb(255, 255, 255); stroke-opacity: 1; stroke-width: 1px;"/><path class="ygrid crisp" transform="translate(0,209.69)" d="M49,0h584" style="stroke: rgb(255, 255, 255); stroke-opacity: 1; stroke-width: 1px;"/><path class="ygrid crisp" transform="translate(0,153.1)" d="M49,0h584" style="stroke: rgb(255, 255, 255); stroke-opacity: 1; stroke-width: 1px;"/><path class="ygrid crisp" transform="translate(0,96.52)" d="M49,0h584" style="stroke: rgb(255, 255, 255); stroke-opacity: 1; stroke-width: 1px;"/><path class="ygrid crisp" transform="translate(0,39.93)" d="M49,0h584" style="stroke: rgb(255, 255, 255); stroke-opacity: 1; stroke-width: 1px;"/></g></g><g class="zerolinelayer"><path class="xzl zl crisp" transform="translate(49,0)" d="M0,0v459" style="stroke: rgb(255, 255, 255); stroke-opacity: 1; stroke-width: 2px;"/><path class="yzl zl crisp" transform="translate(0,436.05)" d="M49,0h584" style="stroke: rgb(255, 255, 255); stroke-opacity: 1; stroke-width: 2px;"/></g><g class="layer-between"><g class="shapelayer"/><g class="imagelayer"/></g><path class="xlines-below"/><path class="ylines-below"/><g class="overlines-below"/><g class="xaxislayer-below"/><g class="yaxislayer-below"/><g class="overaxes-below"/><g class="overplot"><g class="xy" transform="translate(49,0)" clip-path="url(#clip06376exyplot)"><g class="scatterlayer mlayer"><g class="trace scatter tracedd82ed" style="stroke-miterlimit: 2; opacity: 1;"><g class="fills"/><g class="errorbars"/><g class="lines"><path class="js-line" d="M0,436.05L5.87,430.39L8.8,436.05L14.67,436.05L17.61,427.56L20.54,419.07L23.48,424.73L26.41,427.56L29.35,427.56L32.28,430.39L35.22,427.56L38.15,424.73L41.09,424.73L44.02,413.41L46.95,413.41L49.89,416.24L52.82,416.24L55.76,416.24L58.69,419.07L61.63,416.24L64.56,419.07L67.5,424.73L70.43,416.24L73.37,410.58L76.3,413.41L79.24,413.41L82.17,410.58L88.04,416.24L90.97,407.76L93.91,407.76L96.84,404.93L99.78,404.93L102.71,410.58L108.58,416.24L111.52,407.76L114.45,407.76L117.39,404.93L120.32,410.58L123.26,407.76L126.19,410.58L129.13,410.58L134.99,410.58L137.93,407.76L140.86,407.76L143.8,393.61L146.73,399.27L149.67,390.78L152.6,396.44L155.54,393.61L158.47,402.1L161.41,399.27L164.34,396.44L167.28,399.27L170.21,399.27L173.15,404.93L176.08,402.1L179.02,404.93L181.95,404.93L184.88,407.76L187.82,402.1L190.75,399.27L193.69,396.44L196.62,387.95L199.56,387.95L202.49,382.29L205.43,390.78L208.36,390.78L211.3,385.12L214.23,390.78L217.17,390.78L220.1,387.95L223.04,390.78L225.97,390.78L228.9,382.29L231.84,379.46L237.71,368.14L240.64,370.97L243.58,373.8L246.51,382.29L249.45,387.95L252.38,385.12L255.32,379.46L258.25,387.95L261.19,385.12L264.12,385.12L267.06,373.8L269.99,382.29L272.92,390.78L275.86,382.29L278.79,376.63L281.73,365.31L284.66,356.83L287.6,354L290.53,354L293.47,359.65L296.4,354L299.34,362.48L302.27,362.48L305.21,351.17L311.08,345.51L314.01,351.17L316.94,365.31L319.88,356.83L322.81,348.34L325.75,351.17L328.68,342.68L331.62,342.68L334.55,348.34L337.49,351.17L340.42,348.34L343.36,339.85L346.29,345.51L349.23,342.68L352.16,331.36L355.1,328.53L358.03,331.36L360.96,337.02L363.9,348.34L366.83,342.68L369.77,351.17L372.7,354L375.64,356.83L378.57,354L384.44,370.97L387.38,368.14L390.31,365.31L393.25,368.14L396.18,368.14L399.12,370.97L402.05,373.8L404.98,373.8L407.92,368.14L410.85,373.8L413.79,368.14L416.72,373.8L419.66,382.29L422.59,382.29L425.53,385.12L428.46,385.12L431.4,385.12L434.33,382.29L437.27,376.63L440.2,376.63L443.14,376.63L446.07,373.8L451.94,379.46L454.87,379.46L457.81,376.63L460.74,382.29L463.68,382.29L466.61,376.63L469.55,376.63L472.48,382.29L475.42,382.29L478.35,385.12L481.29,385.12L484.22,390.78L487.16,387.95L490.09,382.29L493.03,387.95L495.96,387.95L498.89,373.8L501.83,370.97L504.76,368.14L507.7,370.97L510.63,365.31L513.57,368.14L516.5,365.31L519.44,359.65L525.31,365.31L528.24,356.83L531.18,368.14L534.11,365.31L537.05,362.48L539.98,365.31L542.91,365.31L545.85,356.83L548.78,356.83L551.72,354L554.65,359.65L557.59,362.48L560.52,362.48L563.46,354L566.39,362.48L569.33,359.65L572.26,345.51L575.2,342.68L578.13,351.17L581.07,351.17L584,348.34" style="vector-effect: none; fill: none; stroke: rgb(99, 110, 250); stroke-opacity: 1; stroke-width: 2px; opacity: 1;"/></g><g class="points"/><g class="text"/></g><g class="trace scatter trace8a95b9" style="stroke-miterlimit: 2; opacity: 1;"><g class="fills"/><g class="errorbars"/><g class="lines"><path class="js-line" d="M0,436.05L2.93,430.39L5.87,419.07L8.8,402.1L11.74,396.44L14.67,390.78L17.61,390.78L20.54,390.78L23.48,359.65L26.41,339.85L29.35,342.68L32.28,325.7L35.22,328.53L38.15,328.53L41.09,334.19L44.02,348.34L46.95,337.02L49.89,334.19L52.82,339.85L58.69,308.72L61.63,286.09L64.56,269.11L67.5,263.45L70.43,266.28L73.37,254.97L76.3,254.97L79.24,240.82L82.17,218.18L85.11,212.52L90.97,187.06L93.91,189.89L96.84,170.08L99.78,155.93L105.65,130.47L108.58,133.3L111.52,133.3L114.45,127.64L117.39,144.62L120.32,138.96L123.26,144.62L126.19,147.45L129.13,119.15L132.06,116.32L134.99,90.86L137.93,82.37L140.86,82.37L143.8,79.54L146.73,144.62L149.67,136.13L152.6,136.13L155.54,133.3L161.41,105L164.34,110.66L167.28,102.17L170.21,107.83L173.15,93.69L176.08,144.62L179.02,138.96L181.95,121.98L184.88,136.13L187.82,136.13L190.75,136.13L193.69,130.47L196.62,121.98L199.56,110.66L202.49,105L205.43,155.93L208.36,147.45L211.3,153.1L214.23,153.1L217.17,138.96L220.1,138.96L223.04,150.28L225.97,130.47L228.9,147.45L231.84,130.47L234.77,150.28L237.71,136.13L240.64,144.62L243.58,130.47L246.51,121.98L249.45,119.15L252.38,121.98L255.32,113.49L258.25,76.71L261.19,65.39L264.12,144.62L267.06,141.79L269.99,127.64L272.92,110.66L275.86,116.32L278.79,107.83L281.73,110.66L284.66,107.83L287.6,99.35L290.53,82.37L293.47,153.1L296.4,155.93L299.34,153.1L302.27,161.59L305.21,147.45L308.14,124.81L311.08,121.98L319.88,88.03L322.81,136.13L328.68,99.35L331.62,93.69L334.55,82.37L337.49,82.37L343.36,82.37L346.29,56.9L349.23,45.59L352.16,116.32L355.1,102.17L358.03,96.52L360.96,68.22L363.9,54.07L366.83,54.07L369.77,45.59L372.7,22.95L375.64,31.44L378.57,37.1L381.51,147.45L384.44,124.81L387.38,116.32L390.31,113.49L393.25,105L396.18,96.52L399.12,85.2L402.05,73.88L404.98,73.88L407.92,65.39L410.85,144.62L413.79,136.13L416.72,110.66L419.66,99.35L422.59,99.35L425.53,110.66L428.46,110.66L431.4,85.2L434.33,79.54L437.27,65.39L440.2,121.98L443.14,121.98L446.07,107.83L449.01,93.69L451.94,88.03L457.81,93.69L460.74,99.35L463.68,82.37L466.61,71.05L469.55,150.28L472.48,150.28L475.42,138.96L478.35,144.62L481.29,147.45L484.22,147.45L490.09,141.79L493.03,136.13L495.96,141.79L498.89,150.28L501.83,130.47L504.76,121.98L507.7,76.71L510.63,85.2L513.57,79.54L516.5,71.05L519.44,65.39L522.37,54.07L525.31,39.93L528.24,144.62L537.05,102.17L539.98,110.66L542.91,71.05L545.85,76.71L548.78,59.73L551.72,65.39L554.65,59.73L557.59,133.3L560.52,107.83L563.46,105L566.39,88.03L569.33,82.37L572.26,79.54L575.2,65.39L578.13,56.9L581.07,65.39L584,42.76" style="vector-effect: none; fill: none; stroke: rgb(239, 85, 59); stroke-opacity: 1; stroke-width: 2px; opacity: 1;"/></g><g class="points"/><g class="text"/></g></g></g></g><g class="zerolinelayer-above"/><path class="xlines-above crisp" d="M0,0" style="fill: none;"/><path class="ylines-above crisp" d="M0,0" style="fill: none;"/><g class="overlines-above"/><g class="xaxislayer-above"><g class="xtick"><text text-anchor="middle" x="0" y="472" transform="translate(49,0)" style="font-family: 'Open Sans', verdana, arial, sans-serif; font-size: 12px; fill: rgb(42, 63, 95); fill-opacity: 1; white-space: pre;">0</text></g><g class="xtick"><text text-anchor="middle" x="0" y="472" style="font-family: 'Open Sans', verdana, arial, sans-serif; font-size: 12px; fill: rgb(42, 63, 95); fill-opacity: 1; white-space: pre;" transform="translate(166.39,0)">200</text></g><g class="xtick"><text text-anchor="middle" x="0" y="472" style="font-family: 'Open Sans', verdana, arial, sans-serif; font-size: 12px; fill: rgb(42, 63, 95); fill-opacity: 1; white-space: pre;" transform="translate(283.77,0)">400</text></g><g class="xtick"><text text-anchor="middle" x="0" y="472" style="font-family: 'Open Sans', verdana, arial, sans-serif; font-size: 12px; fill: rgb(42, 63, 95); fill-opacity: 1; white-space: pre;" transform="translate(401.16,0)">600</text></g><g class="xtick"><text text-anchor="middle" x="0" y="472" style="font-family: 'Open Sans', verdana, arial, sans-serif; font-size: 12px; fill: rgb(42, 63, 95); fill-opacity: 1; white-space: pre;" transform="translate(518.55,0)">800</text></g></g><g class="yaxislayer-above"><g class="ytick"><text text-anchor="end" x="48" y="4.199999999999999" transform="translate(0,436.05)" style="font-family: 'Open Sans', verdana, arial, sans-serif; font-size: 12px; fill: rgb(42, 63, 95); fill-opacity: 1; white-space: pre;">0</text></g><g class="ytick"><text text-anchor="end" x="48" y="4.199999999999999" style="font-family: 'Open Sans', verdana, arial, sans-serif; font-size: 12px; fill: rgb(42, 63, 95); fill-opacity: 1; white-space: pre;" transform="translate(0,379.46)">20</text></g><g class="ytick"><text text-anchor="end" x="48" y="4.199999999999999" style="font-family: 'Open Sans', verdana, arial, sans-serif; font-size: 12px; fill: rgb(42, 63, 95); fill-opacity: 1; white-space: pre;" transform="translate(0,322.87)">40</text></g><g class="ytick"><text text-anchor="end" x="48" y="4.199999999999999" style="font-family: 'Open Sans', verdana, arial, sans-serif; font-size: 12px; fill: rgb(42, 63, 95); fill-opacity: 1; white-space: pre;" transform="translate(0,266.28)">60</text></g><g class="ytick"><text text-anchor="end" x="48" y="4.199999999999999" style="font-family: 'Open Sans', verdana, arial, sans-serif; font-size: 12px; fill: rgb(42, 63, 95); fill-opacity: 1; white-space: pre;" transform="translate(0,209.69)">80</text></g><g class="ytick"><text text-anchor="end" x="48" y="4.199999999999999" style="font-family: 'Open Sans', verdana, arial, sans-serif; font-size: 12px; fill: rgb(42, 63, 95); fill-opacity: 1; white-space: pre;" transform="translate(0,153.1)">100</text></g><g class="ytick"><text text-anchor="end" x="48" y="4.199999999999999" style="font-family: 'Open Sans', verdana, arial, sans-serif; font-size: 12px; fill: rgb(42, 63, 95); fill-opacity: 1; white-space: pre;" transform="translate(0,96.52)">120</text></g><g class="ytick"><text text-anchor="end" x="48" y="4.199999999999999" style="font-family: 'Open Sans', verdana, arial, sans-serif; font-size: 12px; fill: rgb(42, 63, 95); fill-opacity: 1; white-space: pre;" transform="translate(0,39.93)">140</text></g></g><g class="overaxes-above"/></g></g><g class="polarlayer"/><g class="smithlayer"/><g class="ternarylayer"/><g class="geolayer"/><g class="funnelarealayer"/><g class="pielayer"/><g class="iciclelayer"/><g class="treemaplayer"/><g class="sunburstlayer"/><g class="glimages"/><defs id="topdefs-06376e"><g class="clips"/><clipPath id="legend06376e"><rect width="55" height="67" x="0" y="0"/></clipPath></defs><g class="layer-above"><g class="imagelayer"/><g class="shapelayer"/></g><g class="infolayer"><g class="legend" pointer-events="all" transform="translate(644.6800000000001,0)"><rect class="bg" shape-rendering="crispEdges" style="stroke: rgb(68, 68, 68); stroke-opacity: 1; fill: rgb(255, 255, 255); fill-opacity: 1; stroke-width: 0px;" width="55" height="67" x="0" y="0"/><g class="scrollbox" transform="" clip-path="url(#legend06376e)"><text class="legendtitletext" text-anchor="start" x="2" y="18.2" style="font-family: 'Open Sans', verdana, arial, sans-serif; font-size: 14px; fill: rgb(42, 63, 95); fill-opacity: 1; white-space: pre;">priority</text><g class="groups" transform=""><g class="traces" transform="translate(0,32.7)" style="opacity: 1;"><text class="legendtext" text-anchor="start" x="40" y="4.680000000000001" style="font-family: 'Open Sans', verdana, arial, sans-serif; font-size: 12px; fill: rgb(42, 63, 95); fill-opacity: 1; white-space: pre;">0</text><g class="layers" style="opacity: 1;"><g class="legendfill"/><g class="legendlines"><path class="js-line" d="M5,0h30" style="fill: none; stroke: rgb(99, 110, 250); stroke-opacity: 1; stroke-width: 2px;"/></g><g class="legendsymbols"><g class="legendpoints"/></g></g><rect class="legendtoggle" x="0" y="-9.5" width="47.640625" height="19" style="fill: rgb(0, 0, 0); fill-opacity: 0;"/></g></g><g class="groups" transform=""><g class="traces" transform="translate(0,51.7)" style="opacity: 1;"><text class="legendtext" text-anchor="start" x="40" y="4.680000000000001" style="font-family: 'Open Sans', verdana, arial, sans-serif; font-size: 12px; fill: rgb(42, 63, 95); fill-opacity: 1; white-space: pre;">1</text><g class="layers" style="opacity: 1;"><g class="legendfill"/><g class="legendlines"><path class="js-line" d="M5,0h30" style="fill: none; stroke: rgb(239, 85, 59); stroke-opacity: 1; stroke-width: 2px;"/></g><g class="legendsymbols"><g class="legendpoints"/></g></g><rect class="legendtoggle" x="0" y="-9.5" width="47.640625" height="19" style="fill: rgb(0, 0, 0); fill-opacity: 0;"/></g></g></g><rect class="scrollbar" rx="20" ry="3" width="0" height="0" style="fill: rgb(128, 139, 164); fill-opacity: 1;" x="0" y="0"/></g><g class="g-gtitle"/><g class="g-xtitle" transform="translate(0,-2.3000000000000114)"><text class="xtitle" x="341" y="499.3" text-anchor="middle" style="opacity: 1; font-family: 'Open Sans', verdana, arial, sans-serif; font-size: 14px; fill: rgb(42, 63, 95); fill-opacity: 1; white-space: pre;">time</text></g><g class="g-ytitle" transform="translate(8.291015625,0)"><text class="ytitle" transform="rotate(-90,5.709375000000001,229.5)" x="5.709375000000001" y="229.5" text-anchor="middle" style="opacity: 1; font-family: 'Open Sans', verdana, arial, sans-serif; font-size: 14px; fill: rgb(42, 63, 95); fill-opacity: 1; white-space: pre;">length</text></g></g></svg>