<svg class="main-svg" xmlns="http://www.w3.org/2000/svg" xmlns:xlink="http://www.w3.org/1999/xlink" width="700" height="500" style="" viewBox="0 0 700 500"><rect x="0" y="0" width="700" height="500" style="fill: rgb(255, 255, 255); fill-opacity: 1;"/><defs id="defs-122e89"><g class="clips"><clipPath id="clip122e89xyplot" class="plotclip"><rect width="584" height="459"/></clipPath><clipPath class="axesclip" id="clip122e89x"><rect x="49" y="0" width="584" height="500"/></clipPath><clipPath class="axesclip" id="clip122e89y"><rect x="0" y="0" width="700" height="459"/></clipPath><clipPath class="axesclip" id="clip122e89xy"><rect x="49" y="0" width="584" height="459"/></clipPath></g><g class="gradients"/><g class="patterns"/></defs><g class="bglayer"><rect class="bg" x="49" y="0" width="584" height="459" style="fill: rgb(229, 236, 246); fill-opacity: 1; stroke-width: 0;"/></g><g class="layer-below"><g class="imagelayer"/><g class="shapelayer"/></g><g class="cartesianlayer"><g class="subplot xy"><g class="layer-subplot"><g class="shapelayer"/><g class="imagelayer"/></g><g class="minor-gridlayer"><g class="x"/><g class="y"/></g><g class="gridlayer"><g class="x"><path class="xgrid crisp" transform="translate(166.39,0)" d="M0,0v459" style="stroke: rgb(255, 255, 255); stroke-opacity: 1; stroke-width: 1px;"/><path class="xgrid crisp" transform="translate(283.77,0)" d="M0,0v459" style="stroke: rgb(255, 255, 255); stroke-opacity: 1; stroke-width: 1px;"/><path class="xgrid crisp" transform="translate(401.16,0)" d="M0,0v459" style="stroke: rgb(255, 255, 255); stroke-opacity: 1; stroke-width: 1px;"/><path class="xgrid crisp" transform="translate(518.55,0)" d="M0,0v459" style="stroke: rgb(255, 255, 255); stroke-opacity: 1; stroke-width: 1px;"/></g><g class="y"><path class="ygrid crisp" transform="translate(0,386.4)" d="M49,0h584" style="stroke: rgb(255, 255, 255); stroke-opacity: 1; stroke-width: 1px;"/><path class="ygrid crisp" transform="translate(0,336.75)" d="M49,0h584" style="stroke: rgb(255, 255, 255); stroke-opacity: 1; stroke-width: 1px;"/><path class="ygrid crisp" transform="translate(0,287.1)" d="M49,0h584" style="stroke: rgb(255, 255, 255); stroke-opacity: 1; stroke-width: 1px;"/><path class="ygrid crisp" transform="translate(0,237.44)" d="M49,0h584" style="stroke: rgb(255, 255, 255); stroke-opacity: 1; stroke-width: 1px;"/><path class="ygrid crisp" transform="translate(0,187.79)" d="M49,0h584" style="stroke: rgb(255, 255, 255); stroke-opacity: 1; stroke-width: 1px;"/><path class="ygrid crisp" transform="translate(0,138.14)" d="M49,0h584" style="stroke: rgb(255, 255, 255); stroke-opacity: 1; stroke-width: 1px;"/><path class="ygrid crisp" transform="translate(0,88.49)" d="M49,0h584" style="stroke: rgb(255, 255, 255); stroke-opacity: 1; stroke-width: 1px;"/><path class="ygrid crisp" transform="translate(0,38.84)" d="M49,0h584" style="stroke: rgb(255, 255, 255); stroke-opacity: 1; stroke-width: 1px;"/></g></g><g class="zerolinelayer"><path class="xzl zl crisp" transform="translate(49,0)" d="M0,0v459" style="stroke: rgb(255, 255, 255); stroke-opacity: 1; stroke-width: 2px;"/><path class="yzl zl crisp" transform="translate(0,436.05)" d="M49,0h584" style="stroke: rgb(255, 255, 255); stroke-opacity: 1; stroke-width: 2px;"/></g><g class="layer-between"><g class="shapelayer"/><g class="imagelayer"/></g><path class="xlines-below"/><path class="ylines-below"/><g class="overlines-below"/><g class="xaxislayer-below"/><g class="yaxislayer-below"/><g class="overaxes-below"/><g class="overplot"><g class="xy" transform="translate(49,0)" clip-path="url(#clip122e89xyplot)"><g class="scatterlayer mlayer"><g class="trace scatter trace30b3ac" style="stroke-miterlimit: 2; opacity: 1;"><g class="fills"/><g class="errorbars"/><g class="lines"><path class="js-line" d="M0,436.05L5.87,434.06L8.8,436.05L14.67,436.05L17.61,433.07L20.54,430.09L23.48,432.08L26.41,433.07L29.35,433.07L32.28,434.06L35.22,433.07L38.15,432.08L41.09,432.08L44.02,428.11L46.95,428.11L49.89,429.1L52.82,429.1L55.76,429.1L58.69,430.09L61.63,429.1L64.56,430.09L67.5,432.08L70.43,429.1L73.37,427.11L76.3,428.11L79.24,428.11L82.17,427.11L88.04,429.1L90.97,426.12L93.91,426.12L96.84,425.13L99.78,425.13L102.71,427.11L108.58,429.1L111.52,426.12L114.45,426.12L117.39,425.13L120.32,425.13L123.26,422.15L126.19,423.14L129.13,423.14L132.06,422.15L134.99,424.13L137.93,423.14L140.86,423.14L143.8,421.15L146.73,422.15L149.67,424.13L152.6,421.15L155.54,419.17L158.47,419.17L161.41,415.2L164.34,414.2L167.28,416.19L170.21,415.2L173.15,417.18L176.08,416.19L179.02,414.2L181.95,414.2L184.88,417.18L187.82,417.18L190.75,414.2L193.69,417.18L196.62,416.19L199.56,414.2L202.49,415.2L205.43,414.2L208.36,412.22L211.3,413.21L214.23,414.2L217.17,412.22L220.1,415.2L223.04,413.21L225.97,414.2L228.9,413.21L234.77,413.21L237.71,412.22L240.64,412.22L243.58,410.23L246.51,410.23L249.45,409.24L252.38,409.24L255.32,407.25L258.25,407.25L261.19,402.29L264.12,401.29L267.06,401.29L269.99,403.28L272.92,403.28L275.86,399.31L278.79,398.31L281.73,398.31L284.66,400.3L290.53,398.31L293.47,399.31L296.4,398.31L299.34,396.33L305.21,392.36L308.14,391.36L311.08,388.38L314.01,388.38L316.94,389.38L319.88,388.38L322.81,389.38L325.75,386.4L328.68,387.39L331.62,387.39L334.55,384.41L337.49,385.41L340.42,383.42L343.36,382.43L349.23,384.41L352.16,386.4L355.1,383.42L358.03,382.43L360.96,384.41L363.9,384.41L366.83,382.43L369.77,385.41L372.7,385.41L375.64,384.41L378.57,384.41L381.51,383.42L384.44,383.42L387.38,381.43L393.25,381.43L396.18,376.47L399.12,378.45L402.05,377.46L407.92,375.48L410.85,376.47L413.79,375.48L416.72,375.48L419.66,377.46L422.59,375.48L425.53,375.48L428.46,374.48L434.33,374.48L437.27,372.5L440.2,373.49L443.14,372.5L446.07,373.49L449.01,372.5L451.94,373.49L454.87,372.5L463.68,375.48L466.61,375.48L469.55,375.48L472.48,374.48L475.42,370.51L478.35,370.51L481.29,370.51L484.22,372.5L487.16,373.49L490.09,370.51L493.03,370.51L495.96,367.53L498.89,367.53L501.83,370.51L504.76,369.52L507.7,367.53L510.63,368.52L513.57,366.54L516.5,369.52L519.44,368.52L525.31,370.51L528.24,369.52L531.18,369.52L534.11,370.51L537.05,372.5L539.98,372.5L542.91,374.48L545.85,375.48L551.72,373.49L554.65,374.48L563.46,374.48L566.39,373.49L569.33,372.5L572.26,374.48L575.2,371.5L578.13,372.5L581.07,369.52L584,369.52" style="vector-effect: none; fill: none; stroke: rgb(99, 110, 250); stroke-opacity: 1; stroke-width: 2px; opacity: 1;"/></g><g class="points"/><g class="text"/></g><g class="trace scatter trace298e9e" style="stroke-miterlimit: 2; opacity: 1;"><g class="fills"/><g class="errorbars"/><g class="lines"><path class="js-line" d="M0,436.05L2.93,434.06L5.87,430.09L8.8,424.13L11.74,422.15L14.67,420.16L17.61,420.16L20.54,420.16L23.48,409.24L26.41,402.29L29.35,403.28L32.28,397.32L35.22,398.31L38.15,398.31L41.09,400.3L44.02,405.27L46.95,401.29L49.89,400.3L52.82,402.29L58.69,391.36L61.63,383.42L64.56,377.46L67.5,375.48L70.43,376.47L73.37,372.5L76.3,372.5L79.24,367.53L82.17,359.59L85.11,357.6L90.97,348.66L93.91,349.66L96.84,342.71L99.78,337.74L105.65,328.8L108.58,329.8L111.52,329.8L114.45,327.81L117.39,323.84L120.32,328.8L123.26,328.8L126.19,324.83L129.13,329.8L132.06,326.82L134.99,328.8L137.93,323.84L140.86,317.88L143.8,314.9L146.73,307.95L149.67,304.97L152.6,300.01L155.54,300.01L158.47,298.02L161.41,294.05L164.34,292.06L167.28,289.08L173.15,279.15L176.08,278.16L181.95,272.2L184.88,272.2L187.82,270.21L190.75,262.27L196.62,253.33L199.56,256.31L202.49,258.3L205.43,258.3L208.36,256.31L211.3,250.35L217.17,250.35L220.1,240.42L223.04,238.44L225.97,238.44L231.84,227.51L234.77,229.5L240.64,229.5L243.58,230.49L252.38,227.51L255.32,221.56L261.19,216.59L264.12,200.7L269.99,195.74L272.92,196.73L278.79,185.81L281.73,181.83L284.66,178.86L287.6,172.9L290.53,172.9L293.47,169.92L296.4,171.9L299.34,170.91L302.27,176.87L305.21,176.87L308.14,170.91L311.08,168.93L314.01,165.95L316.94,164.95L319.88,156.02L322.81,152.04L325.75,153.04L328.68,150.06L331.62,150.06L334.55,153.04L337.49,152.04L340.42,146.09L343.36,144.1L346.29,145.09L349.23,145.09L352.16,143.11L355.1,143.11L358.03,140.13L360.96,136.16L363.9,136.16L366.83,131.19L369.77,130.2L372.7,127.22L375.64,126.22L378.57,129.2L381.51,130.2L387.38,121.26L390.31,120.27L393.25,117.29L396.18,116.29L399.12,116.29L402.05,109.34L404.98,119.27L407.92,121.26L410.85,122.25L413.79,118.28L416.72,113.32L419.66,114.31L422.59,119.27L425.53,117.29L428.46,120.27L431.4,119.27L434.33,121.26L437.27,127.22L440.2,121.26L443.14,120.27L446.07,115.3L449.01,107.36L451.94,106.36L454.87,109.34L457.81,105.37L460.74,103.39L463.68,105.37L466.61,103.39L472.48,92.46L475.42,90.48L478.35,90.48L481.29,88.49L484.22,82.53L487.16,82.53L490.09,80.55L493.03,69.62L495.96,67.64L498.89,63.66L501.83,58.7L504.76,62.67L507.7,61.68L510.63,63.66L513.57,67.64L516.5,63.66L519.44,65.65L522.37,65.65L525.31,65.65L528.24,62.67L531.18,62.67L534.11,61.68L537.05,55.72L539.98,54.73L542.91,46.78L545.85,46.78L548.78,46.78L551.72,47.78L554.65,43.8L557.59,36.85L560.52,42.81L563.46,43.8L566.39,39.83L569.33,37.85L572.26,38.84L575.2,32.88L578.13,29.9L581.07,28.91L584,22.95" style="vector-effect: none; fill: none; stroke: rgb(239, 85, 59); stroke-opacity: 1; stroke-width: 2px; opacity: 1;"/></g><g class="points"/><g class="text"/></g></g></g></g><g class="zerolinelayer-above"/><path class="xlines-above crisp" d="M0,0" style="fill: none;"/><path class="ylines-above crisp" d="M0,0" style="fill: none;"/><g class="overlines-above"/><g class="xaxislayer-above"><g class="xtick"><text text-anchor="middle" x="0" y="472" transform="translate(49,0)" style="font-family: 'Open Sans', verdana, arial, sans-serif; font-size: 12px; fill: rgb(42, 63, 95); fill-opacity: 1; white-space: pre;">0</text></g><g class="xtick"><text text-anchor="middle" x="0" y="472" style="font-family: 'Open Sans', verdana, arial, sans-serif; font-size: 12px; fill: rgb(42, 63, 95); fill-opacity: 1; white-space: pre;" transform="translate(166.39,0)">200</text></g><g class="xtick"><text text-anchor="middle" x="0" y="472" style="font-family: 'Open Sans', verdana, arial, sans-serif; font-size: 12px; fill: rgb(42, 63, 95); fill-opacity: 1; white-space: pre;" transform="translate(283.77,0)">400</text></g><g class="xtick"><text text-anchor="middle" x="0" y="472" style="font-family: 'Open Sans', verdana, arial, sans-serif; font-size: 12px; fill: rgb(42, 63, 95); fill-opacity: 1; white-space: pre;" transform="translate(401.16,0)">600</text></g><g class="xtick"><text text-anchor="middle" x="0" y="472" style="font-family: 'Open Sans', verdana, arial, sans-serif; font-size: 12px; fill: rgb(42, 63, 95); fill-opacity: 1; white-space: pre;" transform="translate(518.55,0)">800</text></g></g><g class="yaxislayer-above"><g class="ytick"><text text-anchor="end" x="48" y="4.199999999999999" transform="translate(0,436.05)" style="font-family: 'Open Sans', verdana, arial, sans-serif; font-size: 12px; fill: rgb(42, 63, 95); fill-opacity: 1; white-space: pre;">0</text></g><g class="ytick"><text text-anchor="end" x="48" y="4.199999999999999" style="font-family: 'Open Sans', verdana, arial, sans-serif; font-size: 12px; fill: rgb(42, 63, 95); fill-opacity: 1; white-space: pre;" transform="translate(0,386.4)">50</text></g><g class="ytick"><text text-anchor="end" x="48" y="4.199999999999999" style="font-family: 'Open Sans', verdana, arial, sans-serif; font-size: 12px; fill: rgb(42, 63, 95); fill-opacity: 1; white-space: pre;" transform="translate(0,336.75)">100</text></g><g class="ytick"><text text-anchor="end" x="48" y="4.199999999999999" style="font-family: 'Open Sans', verdana, arial, sans-serif; font-size: 12px; fill: rgb(42, 63, 95); fill-opacity: 1; white-space: pre;" transform="translate(0,287.1)">150</text></g><g class="ytick"><text text-anchor="end" x="48" y="4.199999999999999" style="font-family: 'Open Sans', verdana, arial, sans-serif; font-size: 12px; fill: rgb(42, 63, 95); fill-opacity: 1; white-space: pre;" transform="translate(0,237.44)">200</text></g><g class="ytick"><text text-anchor="end" x="48" y="4.199999999999999" style="font-family: 'Open Sans', verdana, arial, sans-serif; font-size: 12px; fill: rgb(42, 63, 95); fill-opacity: 1; white-space: pre;" transform="translate(0,187.79)">250</text></g><g class="ytick"><text text-anchor="end" x="48" y="4.199999999999999" style="font-family: 'Open Sans', verdana, arial, sans-serif; font-size: 12px; fill: rgb(42, 63, 95); fill-opacity: 1; white-space: pre;" transform="translate(0,138.14)">300</text></g><g class="ytick"><text text-anchor="end" x="48" y="4.199999999999999" style="font-family: 'Open Sans', verdana, arial, sans-serif; font-size: 12px; fill: rgb(42, 63, 95); fill-opacity: 1; white-space: pre;" transform="translate(0,88.49)">350</text></g><g class="ytick"><text text-anchor="end" x="48" y="4.199999999999999" style="font-family: 'Open Sans', verdana, arial, sans-serif; font-size: 12px; fill: rgb(42, 63, 95); fill-opacity: 1; white-space: pre;" transform="translate(0,38.84)">400</text></g></g><g class="overaxes-above"/></g></g><g class="polarlayer"/><g class="smithlayer"/><g class="ternarylayer"/><g class="geolayer"/><g class="funnelarealayer"/><g class="pielayer"/><g class="iciclelayer"/><g class="treemaplayer"/><g class="sunburstlayer"/><g class="glimages"/><defs id="topdefs-122e89"><g class="clips"/><clipPath id="legend122e89"><rect width="55" height="67" x="0" y="0"/></clipPath></defs><g class="layer-above"><g class="imagelayer"/><g class="shapelayer"/></g><g class="infolayer"><g class="legend" pointer-events="all" transform="translate(644.6800000000001,0)"><rect class="bg" shape-rendering="crispEdges" style="stroke: rgb(68, 68, 68); stroke-opacity: 1; fill: rgb(255, 255, 255); fill-opacity: 1; stroke-width: 0px;" width="55" height="67" x="0" y="0"/><g class="scrollbox" transform="" clip-path="url(#legend122e89)"><text class="legendtitletext" text-anchor="start" x="2" y="18.2" style="font-family: 'Open Sans', verdana, arial, sans-serif; font-size: 14px; fill: rgb(42, 63, 95); fill-opacity: 1; white-space: pre;">priority</text><g class="groups" transform=""><g class="traces" transform="translate(0,32.7)" style="opacity: 1;"><text class="legendtext" text-anchor="start" x="40" y="4.680000000000001" style="font-family: 'Open Sans', verdana, arial, sans-serif; font-size: 12px; fill: rgb(42, 63, 95); fill-opacity: 1; white-space: pre;">0</text><g class="layers" style="opacity: 1;"><g class="legendfill"/><g class="legendlines"><path class="js-line" d="M5,0h30" style="fill: none; stroke: rgb(99, 110, 250); stroke-opacity: 1; stroke-width: 2px;"/></g><g class="legendsymbols"><g class="legendpoints"/></g></g><rect class="legendtoggle" x="0" y="-9.5" width="47.640625" height="19" style="fill: rgb(0, 0, 0); fill-opacity: 0;"/></g></g><g class="groups" transform=""><g class="traces" transform="translate(0,51.7)" style="opacity: 1;"><text class="legendtext" text-anchor="start" x="40" y="4.680000000000001" style="font-family: 'Open Sans', verdana, arial, sans-serif; font-size: 12px; fill: rgb(42, 63, 95); fill-opacity: 1; white-space: pre;">1</text><g class="layers" style="opacity: 1;"><g class="legendfill"/><g class="legendlines"><path class="js-line" d="M5,0h30" style="fill: none; stroke: rgb(239, 85, 59); stroke-opacity: 1; stroke-width: 2px;"/></g><g class="legendsymbols"><g class="legendpoints"/></g></g><rect class="legendtoggle" x="0" y="-9.5" width="47.640625" height="19" style="fill: rgb(0, 0, 0); fill-opacity: 0;"/></g></g></g><rect class="scrollbar" rx="20" ry="3" width="0" height="0" style="fill: rgb(128, 139, 164); fill-opacity: 1;" x="0" y="0"/></g><g class="g-gtitle"/><g class="g-xtitle" transform="translate(0,-2.3000000000000114)"><text class="xtitle" x="341" y="499.3" text-anchor="middle" style="opacity: 1; font-family: 'Open Sans', verdana, arial, sans-serif; font-size: 14px; fill: rgb(42, 63, 95); fill-opacity: 1; white-space: pre;">time</text></g><g class="g-ytitle" transform="translate(8.291015625,0)"><text class="ytitle" transform="rotate(-90,5.709375000000001,229.5)" x="5.709375000000001" y="229.5" text-anchor="middle" style="opacity: 1; font-family: 'Open Sans', verdana, arial, sans-serif; font-size: 14px; fill: rgb(42, 63, 95); fill-opacity: 1; white-space: pre;">length</text></g></g></svg>