<svg class="main-svg" xmlns="http://www.w3.org/2000/svg" xmlns:xlink="http://www.w3.org/1999/xlink" width="700" height="500" style="" viewBox="0 0 700 500"><rect x="0" y="0" width="700" height="500" style="fill: rgb(255, 255, 255); fill-opacity: 1;"/><defs id="defs-47cf5c"><g class="clips"><clipPath id="clip47cf5cxyplot" class="plotclip"><rect width="575" height="459"/></clipPath><clipPath class="axesclip" id="clip47cf5cx"><rect x="49" y="0" width="575" height="500"/></clipPath><clipPath class="axesclip" id="clip47cf5cy"><rect x="0" y="0" width="700" height="459"/></clipPath><clipPath class="axesclip" id="clip47cf5cxy"><rect x="49" y="0" width="575" height="459"/></clipPath></g><g class="gradients"/><g class="patterns"/></defs><g class="bglayer"><rect class="bg" x="49" y="0" width="575" height="459" style="fill: rgb(229, 236, 246); fill-opacity: 1; stroke-width: 0;"/></g><g class="layer-below"><g class="imagelayer"/><g class="shapelayer"/></g><g class="cartesianlayer"><g class="subplot xy"><g class="layer-subplot"><g class="shapelayer"/><g class="imagelayer"/></g><g class="minor-gridlayer"><g class="x"/><g class="y"/></g><g class="gridlayer"><g class="x"><path class="xgrid crisp" transform="translate(164.57999999999998,0)" d="M0,0v459" style="stroke: rgb(255, 255, 255); stroke-opacity: 1; stroke-width: 1px;"/><path class="xgrid crisp" transform="translate(280.15999999999997,0)" d="M0,0v459" style="stroke: rgb(255, 255, 255); stroke-opacity: 1; stroke-width: 1px;"/><path class="xgrid crisp" transform="translate(395.73,0)" d="M0,0v459" style="stroke: rgb(255, 255, 255); stroke-opacity: 1; stroke-width: 1px;"/><path class="xgrid crisp" transform="translate(511.31,0)" d="M0,0v459" style="stroke: rgb(255, 255, 255); stroke-opacity: 1; stroke-width: 1px;"/></g><g class="y"><path class="ygrid crisp" transform="translate(0,355.99)" d="M49,0h575" style="stroke: rgb(255, 255, 255); stroke-opacity: 1; stroke-width: 1px;"/><path class="ygrid crisp" transform="translate(0,275.93)" d="M49,0h575" style="stroke: rgb(255, 255, 255); stroke-opacity: 1; stroke-width: 1px;"/><path class="ygrid crisp" transform="translate(0,195.88)" d="M49,0h575" style="stroke: rgb(255, 255, 255); stroke-opacity: 1; stroke-width: 1px;"/><path class="ygrid crisp" transform="translate(0,115.82)" d="M49,0h575" style="stroke: rgb(255, 255, 255); stroke-opacity: 1; stroke-width: 1px;"/><path class="ygrid crisp" transform="translate(0,35.76)" d="M49,0h575" style="stroke: rgb(255, 255, 255); stroke-opacity: 1; stroke-width: 1px;"/></g></g><g class="zerolinelayer"><path class="xzl zl crisp" transform="translate(49,0)" d="M0,0v459" style="stroke: rgb(255, 255, 255); stroke-opacity: 1; stroke-width: 2px;"/><path class="yzl zl crisp" transform="translate(0,436.05)" d="M49,0h575" style="stroke: rgb(255, 255, 255); stroke-opacity: 1; stroke-width: 2px;"/></g><g class="layer-between"><g class="shapelayer"/><g class="imagelayer"/></g><path class="xlines-below"/><path class="ylines-below"/><g class="overlines-below"/><g class="xaxislayer-below"/><g class="yaxislayer-below"/><g class="overaxes-below"/><g class="overplot"><g class="xy" transform="translate(49,0)" clip-path="url(#clip47cf5cxyplot)"><g class="scatterlayer mlayer"><g class="trace scatter tracea1f28d" style="stroke-miterlimit: 2; opacity: 1;"><g class="fills"/><g class="errorbars"/><g class="lines"><path class="js-line" d="M0,436.05L2.89,436.05L5.78,431.25L8.67,432.85L11.56,432.85L14.45,436.05L17.34,434.45L20.23,436.05L23.12,434.45L26.01,428.04L28.89,424.84L31.78,423.24L34.67,424.84L43.34,404.03L46.23,389.62L49.12,386.41L52.01,386.41L54.9,386.41L57.79,388.02L60.68,383.21L63.57,384.81L66.46,394.42L69.35,397.62L72.24,391.22L75.13,389.62L78.02,394.42L80.9,378.41L86.68,389.62L89.57,394.42L92.46,381.61L95.35,373.6L98.24,372L101.13,378.41L109.8,357.59L112.69,362.4L115.58,359.19L118.47,359.19L121.36,355.99L124.25,359.19L127.14,346.38L130.03,354.39L132.91,343.18L135.8,328.77L138.69,327.17L141.58,331.97L144.47,331.97L147.36,323.97L150.25,335.18L153.14,335.18L156.03,330.37L158.92,331.97L164.7,311.16L167.59,309.56L170.48,306.36L173.37,293.55L176.26,298.35L179.15,295.15L187.81,299.95L190.7,309.56L193.59,303.15L196.48,301.55L199.37,304.75L202.26,317.56L205.15,322.37L208.04,311.16L210.93,311.16L213.82,309.56L216.71,312.76L219.6,296.75L222.49,304.75L225.38,303.15L228.27,298.35L231.16,303.15L234.05,304.75L236.93,299.95L239.82,291.95L242.71,295.15L245.6,301.55L248.49,293.55L254.27,287.14L257.16,282.34L260.05,277.53L262.94,275.93L265.83,267.93L268.72,264.73L271.61,253.52L274.5,250.32L277.39,237.51L280.28,243.91L283.17,242.31L286.06,243.91L288.94,240.71L291.83,242.31L294.72,240.71L297.61,232.7L300.5,237.51L303.39,232.7L306.28,224.7L309.17,223.1L312.06,221.49L314.95,221.49L317.84,215.09L320.73,227.9L323.62,227.9L326.51,235.9L329.4,229.5L332.29,235.9L335.18,239.11L338.07,235.9L343.84,226.3L346.73,227.9L349.62,227.9L352.51,232.7L355.4,231.1L358.29,215.09L361.18,207.08L364.07,210.29L366.96,207.08L369.85,199.08L375.63,187.87L378.52,183.07L384.3,168.66L387.19,167.05L392.96,163.85L395.85,159.05L398.74,151.04L401.63,151.04L404.52,151.04L407.41,152.64L410.3,154.25L413.19,154.25L416.08,151.04L418.97,157.45L421.86,159.05L424.75,162.25L430.53,152.64L433.42,149.44L436.31,147.84L439.2,152.64L442.09,143.04L444.97,144.64L447.86,143.04L450.75,139.83L453.64,127.03L456.53,122.22L459.42,122.22L462.31,119.02L468.09,112.62L470.98,106.21L473.87,104.61L476.76,99.81L479.65,104.61L482.54,95L485.43,90.2L488.32,77.39L491.21,85.4L494.1,85.4L496.98,87L499.87,83.79L502.76,87L505.65,95L508.54,90.2L511.43,80.59L514.32,80.59L517.21,70.98L520.1,66.18L522.99,62.98L525.88,66.18L528.77,62.98L531.66,54.97L534.55,51.77L537.44,51.77L540.33,50.17L543.22,51.77L546.11,42.16L548.99,38.96L551.88,43.77L554.77,34.16L557.66,32.56L560.55,26.15L563.44,30.96L566.33,22.95L569.22,22.95L572.11,22.95L575,27.75" style="vector-effect: none; fill: none; stroke: rgb(99, 110, 250); stroke-opacity: 1; stroke-width: 2px; opacity: 1;"/></g><g class="points"/><g class="text"/></g><g class="trace scatter trace0b7ee7" style="stroke-miterlimit: 2; opacity: 1;"><g class="fills"/><g class="errorbars"/><g class="lines"><path class="js-line" d="M0,436.05L8.67,436.05L11.56,431.25L14.45,436.05L17.34,436.05L20.23,431.25L23.12,436.05L28.89,432.85L31.78,428.04L34.67,421.64L37.56,424.84L40.45,429.65L43.34,428.04L46.23,436.05L49.12,434.45L52.01,436.05L54.9,434.45L57.79,434.45L60.68,436.05L63.57,424.84L66.46,420.04L69.35,423.24L72.24,424.84L75.13,429.65L78.02,436.05L80.9,429.65L83.79,434.45L86.68,434.45L89.57,436.05L95.35,436.05L98.24,431.25L101.13,429.65L104.02,436.05L112.69,436.05L115.58,429.65L118.47,426.44L121.36,432.85L124.25,436.05L127.14,436.05L130.03,436.05L132.91,434.45L135.8,436.05L138.69,431.25L147.36,436.05L150.25,436.05L158.92,436.05L161.81,434.45L164.7,436.05L167.59,436.05L187.81,436.05L190.7,432.85L193.59,426.44L196.48,428.04L199.37,432.85L202.26,436.05L205.15,424.84L208.04,423.24L210.93,431.25L213.82,436.05L219.6,436.05L222.49,434.45L225.38,436.05L228.27,436.05L234.05,436.05L236.93,432.85L239.82,436.05L242.71,436.05L245.6,429.65L248.49,428.04L251.38,431.25L254.27,432.85L257.16,436.05L260.05,436.05L262.94,429.65L265.83,429.65L268.72,431.25L271.61,436.05L277.39,436.05L280.28,431.25L283.17,436.05L286.06,436.05L288.94,436.05L291.83,424.84L294.72,431.25L297.61,429.65L300.5,426.44L303.39,424.84L306.28,418.44L309.17,420.04L312.06,418.44L314.95,410.43L317.84,410.43L320.73,413.63L329.4,434.45L332.29,436.05L335.18,436.05L338.07,434.45L340.95,436.05L343.84,434.45L346.73,436.05L349.62,431.25L352.51,436.05L355.4,436.05L366.96,436.05L369.85,431.25L372.74,432.85L375.63,436.05L378.52,431.25L381.41,429.65L384.3,432.85L387.19,434.45L390.08,436.05L392.96,434.45L395.85,436.05L398.74,431.25L401.63,434.45L404.52,436.05L407.41,432.85L410.3,434.45L416.08,434.45L418.97,436.05L442.09,436.05L444.97,431.25L447.86,432.85L450.75,423.24L453.64,415.23L456.53,410.43L459.42,408.83L462.31,420.04L465.2,415.23L468.09,415.23L473.87,426.44L476.76,426.44L479.65,428.04L482.54,434.45L485.43,436.05L488.32,436.05L494.1,432.85L496.98,436.05L511.43,436.05L514.32,424.84L517.21,432.85L520.1,434.45L522.99,436.05L525.88,432.85L528.77,436.05L531.66,436.05L546.11,436.05L548.99,429.65L551.88,421.64L554.77,426.44L557.66,429.65L560.55,434.45L563.44,424.84L566.33,428.04L569.22,424.84L572.11,429.65L575,426.44" style="vector-effect: none; fill: none; stroke: rgb(239, 85, 59); stroke-opacity: 1; stroke-width: 2px; opacity: 1;"/></g><g class="points"/><g class="text"/></g><g class="trace scatter trace09ea72" style="stroke-miterlimit: 2; opacity: 1;"><g class="fills"/><g class="errorbars"/><g class="lines"><path class="js-line" d="M0,436.05L28.89,436.05L31.78,434.45L34.67,436.05L37.56,436.05L49.12,436.05L52.01,432.85L54.9,436.05L57.79,432.85L63.57,436.05L66.46,436.05L69.35,424.84L72.24,434.45L75.13,436.05L78.02,432.85L83.79,432.85L86.68,431.25L89.57,429.65L92.46,431.25L95.35,434.45L98.24,436.05L112.69,436.05L115.58,434.45L118.47,436.05L121.36,436.05L127.14,436.05L130.03,434.45L132.91,436.05L135.8,436.05L141.58,436.05L144.47,434.45L147.36,436.05L150.25,436.05L153.14,436.05L156.03,431.25L158.92,434.45L161.81,436.05L173.37,436.05L176.26,434.45L179.15,436.05L182.04,436.05L199.37,436.05L202.26,434.45L205.15,431.25L208.04,436.05L210.93,432.85L213.82,436.05L216.71,434.45L219.6,436.05L222.49,431.25L225.38,428.04L228.27,436.05L231.16,434.45L236.93,434.45L239.82,436.05L265.83,436.05L268.72,429.65L271.61,436.05L274.5,436.05L280.28,436.05L283.17,431.25L286.06,436.05L288.94,436.05L303.39,436.05L306.28,434.45L309.17,436.05L312.06,436.05L314.95,434.45L317.84,436.05L329.4,436.05L332.29,431.25L335.18,436.05L338.07,436.05L349.62,436.05L352.51,432.85L355.4,436.05L358.29,436.05L361.18,436.05L364.07,432.85L366.96,436.05L369.85,432.85L372.74,436.05L375.63,436.05L381.41,436.05L384.3,434.45L387.19,436.05L390.08,436.05L395.85,436.05L398.74,434.45L401.63,436.05L404.52,436.05L413.19,436.05L416.08,434.45L418.97,436.05L421.86,436.05L468.09,436.05L470.98,434.45L473.87,434.45L476.76,436.05L482.54,436.05L485.43,431.25L488.32,434.45L491.21,436.05L494.1,431.25L496.98,436.05L499.87,434.45L502.76,436.05L508.54,436.05L511.43,429.65L517.21,436.05L520.1,436.05L525.88,436.05L528.77,434.45L531.66,436.05L534.55,431.25L537.44,431.25L540.33,436.05L551.88,436.05L554.77,434.45L557.66,436.05L560.55,436.05L575,436.05" style="vector-effect: none; fill: none; stroke: rgb(0, 204, 150); stroke-opacity: 1; stroke-width: 2px; opacity: 1;"/></g><g class="points"/><g class="text"/></g><g class="trace scatter traceef56a7" style="stroke-miterlimit: 2; opacity: 1;"><g class="fills"/><g class="errorbars"/><g class="lines"><path class="js-line" d="M0,436.05L2.89,436.05L5.78,434.45L8.67,436.05L11.56,431.25L14.45,426.44L17.34,424.84L20.23,429.65L23.12,436.05L43.34,436.05L46.23,434.45L49.12,428.04L52.01,431.25L54.9,436.05L57.79,436.05L72.24,436.05L75.13,434.45L78.02,436.05L80.9,436.05L144.47,436.05L147.36,434.45L150.25,436.05L153.14,436.05L193.59,436.05L196.48,434.45L199.37,436.05L202.26,436.05L216.71,436.05L219.6,429.65L222.49,436.05L225.38,436.05L234.05,436.05L236.93,432.85L239.82,436.05L242.71,436.05L245.6,436.05L248.49,434.45L251.38,436.05L254.27,436.05L265.83,436.05L268.72,434.45L271.61,436.05L274.5,434.45L277.39,436.05L280.28,436.05L291.83,436.05L294.72,434.45L297.61,436.05L300.5,436.05L329.4,436.05L332.29,434.45L335.18,436.05L338.07,434.45L340.95,436.05L343.84,436.05L349.62,436.05L352.51,434.45L355.4,436.05L358.29,436.05L375.63,436.05L378.52,434.45L381.41,436.05L384.3,432.85L387.19,436.05L390.08,436.05L520.1,436.05L522.99,432.85L528.77,436.05L531.66,436.05L546.11,436.05L548.99,432.85L551.88,436.05L554.77,436.05L557.66,436.05L560.55,434.45L563.44,436.05L566.33,436.05L575,436.05" style="vector-effect: none; fill: none; stroke: rgb(171, 99, 250); stroke-opacity: 1; stroke-width: 2px; opacity: 1;"/></g><g class="points"/><g class="text"/></g></g></g></g><g class="zerolinelayer-above"/><path class="xlines-above crisp" d="M0,0" style="fill: none;"/><path class="ylines-above crisp" d="M0,0" style="fill: none;"/><g class="overlines-above"/><g class="xaxislayer-above"><g class="xtick"><text text-anchor="middle" x="0" y="472" transform="translate(49,0)" style="font-family: 'Open Sans', verdana, arial, sans-serif; font-size: 12px; fill: rgb(42, 63, 95); fill-opacity: 1; white-space: pre;">0</text></g><g class="xtick"><text text-anchor="middle" x="0" y="472" style="font-family: 'Open Sans', verdana, arial, sans-serif; font-size: 12px; fill: rgb(42, 63, 95); fill-opacity: 1; white-space: pre;" transform="translate(164.57999999999998,0)">200</text></g><g class="xtick"><text text-anchor="middle" x="0" y="472" style="font-family: 'Open Sans', verdana, arial, sans-serif; font-size: 12px; fill: rgb(42, 63, 95); fill-opacity: 1; white-space: pre;" transform="translate(280.15999999999997,0)">400</text></g><g class="xtick"><text text-anchor="middle" x="0" y="472" style="font-family: 'Open Sans', verdana, arial, sans-serif; font-size: 12px; fill: rgb(42, 63, 95); fill-opacity: 1; white-space: pre;" transform="translate(395.73,0)">600</text></g><g class="xtick"><text text-anchor="middle" x="0" y="472" style="font-family: 'Open Sans', verdana, arial, sans-serif; font-size: 12px; fill: rgb(42, 63, 95); fill-opacity: 1; white-space: pre;" transform="translate(511.31,0)">800</text></g></g><g class="yaxislayer-above"><g class="ytick"><text text-anchor="end" x="48" y="4.199999999999999" transform="translate(0,436.05)" style="font-family: 'Open Sans', verdana, arial, sans-serif; font-size: 12px; fill: rgb(42, 63, 95); fill-opacity: 1; white-space: pre;">0</text></g><g class="ytick"><text text-anchor="end" x="48" y="4.199999999999999" style="font-family: 'Open Sans', verdana, arial, sans-serif; font-size: 12px; fill: rgb(42, 63, 95); fill-opacity: 1; white-space: pre;" transform="translate(0,355.99)">50</text></g><g class="ytick"><text text-anchor="end" x="48" y="4.199999999999999" style="font-family: 'Open Sans', verdana, arial, sans-serif; font-size: 12px; fill: rgb(42, 63, 95); fill-opacity: 1; white-space: pre;" transform="translate(0,275.93)">100</text></g><g class="ytick"><text text-anchor="end" x="48" y="4.199999999999999" style="font-family: 'Open Sans', verdana, arial, sans-serif; font-size: 12px; fill: rgb(42, 63, 95); fill-opacity: 1; white-space: pre;" transform="translate(0,195.88)">150</text></g><g class="ytick"><text text-anchor="end" x="48" y="4.199999999999999" style="font-family: 'Open Sans', verdana, arial, sans-serif; font-size: 12px; fill: rgb(42, 63, 95); fill-opacity: 1; white-space: pre;" transform="translate(0,115.82)">200</text></g><g class="ytick"><text text-anchor="end" x="48" y="4.199999999999999" style="font-family: 'Open Sans', verdana, arial, sans-serif; font-size: 12px; fill: rgb(42, 63, 95); fill-opacity: 1; white-space: pre;" transform="translate(0,35.76)">250</text></g></g><g class="overaxes-above"/></g></g><g class="polarlayer"/><g class="smithlayer"/><g class="ternarylayer"/><g class="geolayer"/><g class="funnelarealayer"/><g class="pielayer"/><g class="iciclelayer"/><g class="treemaplayer"/><g class="sunburstlayer"/><g class="glimages"/><defs id="topdefs-47cf5c"><g class="clips"/><clipPath id="legend47cf5c"><rect width="65" height="105" x="0" y="0"/></clipPath></defs><g class="layer-above"><g class="imagelayer"/><g class="shapelayer"/></g><g class="infolayer"><g class="legend" pointer-events="all" transform="translate(635,0)"><rect class="bg" shape-rendering="crispEdges" style="stroke: rgb(68, 68, 68); stroke-opacity: 1; fill: rgb(255, 255, 255); fill-opacity: 1; stroke-width: 0px;" width="65" height="105" x="0" y="0"/><g class="scrollbox" transform="" clip-path="url(#legend47cf5c)"><text class="legendtitletext" text-anchor="start" x="2" y="18.2" style="font-family: 'Open Sans', verdana, arial, sans-serif; font-size: 14px; fill: rgb(42, 63, 95); fill-opacity: 1; white-space: pre;">arrival</text><g class="groups" transform=""><g class="traces" transform="translate(0,32.7)" style="opacity: 1;"><text class="legendtext" text-anchor="start" x="40" y="4.680000000000001" style="font-family: 'Open Sans', verdana, arial, sans-serif; font-size: 12px; fill: rgb(42, 63, 95); fill-opacity: 1; white-space: pre;">0.6</text><g class="layers" style="opacity: 1;"><g class="legendfill"/><g class="legendlines"><path class="js-line" d="M5,0h30" style="fill: none; stroke: rgb(99, 110, 250); stroke-opacity: 1; stroke-width: 2px;"/></g><g class="legendsymbols"><g class="legendpoints"/></g></g><rect class="legendtoggle" x="0" y="-9.5" width="59.625" height="19" style="fill: rgb(0, 0, 0); fill-opacity: 0;"/></g></g><g class="groups" transform=""><g class="traces" transform="translate(0,51.7)" style="opacity: 1;"><text class="legendtext" text-anchor="start" x="40" y="4.680000000000001" style="font-family: 'Open Sans', verdana, arial, sans-serif; font-size: 12px; fill: rgb(42, 63, 95); fill-opacity: 1; white-space: pre;">0.8</text><g class="layers" style="opacity: 1;"><g class="legendfill"/><g class="legendlines"><path class="js-line" d="M5,0h30" style="fill: none; stroke: rgb(239, 85, 59); stroke-opacity: 1; stroke-width: 2px;"/></g><g class="legendsymbols"><g class="legendpoints"/></g></g><rect class="legendtoggle" x="0" y="-9.5" width="59.625" height="19" style="fill: rgb(0, 0, 0); fill-opacity: 0;"/></g></g><g class="groups" transform=""><g class="traces" transform="translate(0,70.7)" style="opacity: 1;"><text class="legendtext" text-anchor="start" x="40" y="4.680000000000001" style="font-family: 'Open Sans', verdana, arial, sans-serif; font-size: 12px; fill: rgb(42, 63, 95); fill-opacity: 1; white-space: pre;">1.0</text><g class="layers" style="opacity: 1;"><g class="legendfill"/><g class="legendlines"><path class="js-line" d="M5,0h30" style="fill: none; stroke: rgb(0, 204, 150); stroke-opacity: 1; stroke-width: 2px;"/></g><g class="legendsymbols"><g class="legendpoints"/></g></g><rect class="legendtoggle" x="0" y="-9.5" width="59.625" height="19" style="fill: rgb(0, 0, 0); fill-opacity: 0;"/></g></g><g class="groups" transform=""><g class="traces" transform="translate(0,89.7)" style="opacity: 1;"><text class="legendtext" text-anchor="start" x="40" y="4.680000000000001" style="font-family: 'Open Sans', verdana, arial, sans-serif; font-size: 12px; fill: rgb(42, 63, 95); fill-opacity: 1; white-space: pre;">1.2</text><g class="layers" style="opacity: 1;"><g class="legendfill"/><g class="legendlines"><path class="js-line" d="M5,0h30" style="fill: none; stroke: rgb(171, 99, 250); stroke-opacity: 1; stroke-width: 2px;"/></g><g class="legendsymbols"><g class="legendpoints"/></g></g><rect class="legendtoggle" x="0" y="-9.5" width="59.625" height="19" style="fill: rgb(0, 0, 0); fill-opacity: 0;"/></g></g></g><rect class="scrollbar" rx="20" ry="3" width="0" height="0" style="fill: rgb(128, 139, 164); fill-opacity: 1;" x="0" y="0"/></g><g class="g-gtitle"/><g class="g-xtitle" transform="translate(0,-2.3000000000000114)"><text class="xtitle" x="336.5" y="499.3" text-anchor="middle" style="opacity: 1; font-family: 'Open Sans', verdana, arial, sans-serif; font-size: 14px; fill: rgb(42, 63, 95); fill-opacity: 1; white-space: pre;">time</text></g><g class="g-ytitle" transform="translate(8.291015625,0)"><text class="ytitle" transform="rotate(-90,5.709375000000001,229.5)" x="5.709375000000001" y="229.5" text-anchor="middle" style="opacity: 1; font-family: 'Open Sans', verdana, arial, sans-serif; font-size: 14px; fill: rgb(42, 63, 95); fill-opacity: 1; white-space: pre;">length</text></g></g></svg>