<svg class="main-svg" xmlns="http://www.w3.org/2000/svg" xmlns:xlink="http://www.w3.org/1999/xlink" width="700" height="500" style="" viewBox="0 0 700 500"><rect x="0" y="0" width="700" height="500" style="fill: rgb(255, 255, 255); fill-opacity: 1;"/><defs id="defs-ecbeb2"><g class="clips"><clipPath id="clipecbeb2xyplot" class="plotclip"><rect width="567" height="459"/></clipPath><clipPath class="axesclip" id="clipecbeb2x"><rect x="49" y="0" width="567" height="500"/></clipPath><clipPath class="axesclip" id="clipecbeb2y"><rect x="0" y="0" width="700" height="459"/></clipPath><clipPath class="axesclip" id="clipecbeb2xy"><rect x="49" y="0" width="567" height="459"/></clipPath></g><g class="gradients"/><g class="patterns"/></defs><g class="bglayer"><rect class="bg" x="49" y="0" width="567" height="459" style="fill: rgb(229, 236, 246); fill-opacity: 1; stroke-width: 0;"/></g><g class="layer-below"><g class="imagelayer"/><g class="shapelayer"/></g><g class="cartesianlayer"><g class="subplot xy"><g class="layer-subplot"><g class="shapelayer"/><g class="imagelayer"/></g><g class="minor-gridlayer"><g class="x"/><g class="y"/></g><g class="gridlayer"><g class="x"><path class="xgrid crisp" transform="translate(162.97,0)" d="M0,0v459" style="stroke: rgb(255, 255, 255); stroke-opacity: 1; stroke-width: 1px;"/><path class="xgrid crisp" transform="translate(276.94,0)" d="M0,0v459" style="stroke: rgb(255, 255, 255); stroke-opacity: 1; stroke-width: 1px;"/><path class="xgrid crisp" transform="translate(390.91,0)" d="M0,0v459" style="stroke: rgb(255, 255, 255); stroke-opacity: 1; stroke-width: 1px;"/><path class="xgrid crisp" transform="translate(504.88,0)" d="M0,0v459" style="stroke: rgb(255, 255, 255); stroke-opacity: 1; stroke-width: 1px;"/></g><g class="y"><path class="ygrid crisp" transform="translate(0,383.09)" d="M49,0h567" style="stroke: rgb(255, 255, 255); stroke-opacity: 1; stroke-width: 1px;"/><path class="ygrid crisp" transform="translate(0,330.13)" d="M49,0h567" style="stroke: rgb(255, 255, 255); stroke-opacity: 1; stroke-width: 1px;"/><path class="ygrid crisp" transform="translate(0,277.17)" d="M49,0h567" style="stroke: rgb(255, 255, 255); stroke-opacity: 1; stroke-width: 1px;"/><path class="ygrid crisp" transform="translate(0,224.2)" d="M49,0h567" style="stroke: rgb(255, 255, 255); stroke-opacity: 1; stroke-width: 1px;"/><path class="ygrid crisp" transform="translate(0,171.24)" d="M49,0h567" style="stroke: rgb(255, 255, 255); stroke-opacity: 1; stroke-width: 1px;"/><path class="ygrid crisp" transform="translate(0,118.28)" d="M49,0h567" style="stroke: rgb(255, 255, 255); stroke-opacity: 1; stroke-width: 1px;"/><path class="ygrid crisp" transform="translate(0,65.32)" d="M49,0h567" style="stroke: rgb(255, 255, 255); stroke-opacity: 1; stroke-width: 1px;"/><path class="ygrid crisp" transform="translate(0,12.36)" d="M49,0h567" style="stroke: rgb(255, 255, 255); stroke-opacity: 1; stroke-width: 1px;"/></g></g><g class="zerolinelayer"><path class="xzl zl crisp" transform="translate(49,0)" d="M0,0v459" style="stroke: rgb(255, 255, 255); stroke-opacity: 1; stroke-width: 2px;"/><path class="yzl zl crisp" transform="translate(0,436.05)" d="M49,0h567" style="stroke: rgb(255, 255, 255); stroke-opacity: 1; stroke-width: 2px;"/></g><g class="layer-between"><g class="shapelayer"/><g class="imagelayer"/></g><path class="xlines-below"/><path class="ylines-below"/><g class="overlines-below"/><g class="xaxislayer-below"/><g class="yaxislayer-below"/><g class="overaxes-below"/><g class="overplot"><g class="xy" transform="translate(49,0)" clip-path="url(#clipecbeb2xyplot)"><g class="scatterlayer mlayer"><g class="trace scatter tracee94ef3" style="stroke-miterlimit: 2; opacity: 1;"><g class="fills"/><g class="errorbars"/><g class="lines"><path class="js-line" d="M0,436.05L2.85,436.05L5.7,433.4L8.55,430.75L11.4,436.05L17.1,436.05L19.94,428.11L22.79,436.05L25.64,430.75L28.49,430.75L31.34,417.51L34.19,422.81L37.04,425.46L39.89,404.27L42.74,401.63L48.44,372.5L51.29,361.9L54.14,377.79L56.98,377.79L59.83,375.14L62.68,369.85L65.53,367.2L68.38,375.14L71.23,393.68L74.08,388.38L76.93,388.38L79.78,385.74L82.63,388.38L85.48,380.44L94.03,388.38L96.87,375.14L102.57,380.44L105.42,377.79L108.27,375.14L111.12,367.2L113.97,346.02L116.82,353.96L119.67,356.61L122.52,361.9L125.37,346.02L128.22,343.37L131.07,340.72L133.91,327.48L136.76,332.78L139.61,319.53L142.46,311.59L145.31,308.94L148.16,316.89L151.01,319.53L153.86,322.18L156.71,322.18L159.56,327.48L162.41,303.65L165.26,301L168.11,308.94L170.95,287.76L173.8,285.11L176.65,290.41L179.5,279.81L185.2,285.11L188.05,295.7L190.9,287.76L193.75,287.76L196.6,293.05L199.45,316.89L202.3,314.24L205.15,308.94L207.99,301L210.84,303.65L213.69,324.83L216.54,327.48L219.39,322.18L222.24,335.42L225.09,322.18L227.94,319.53L230.79,303.65L233.64,311.59L236.49,319.53L239.34,314.24L242.19,327.48L245.04,332.78L247.88,335.42L250.73,316.89L253.58,301L256.43,293.05L262.13,287.76L264.98,274.52L267.83,266.57L270.68,274.52L273.53,266.57L276.38,269.22L279.23,261.28L282.08,258.63L284.92,248.04L287.77,245.39L290.62,240.09L293.47,240.09L299.17,240.09L302.02,237.44L304.87,240.09L307.72,240.09L310.57,229.5L313.42,226.85L316.27,232.15L319.12,226.85L321.96,221.56L324.81,218.91L330.51,213.61L333.36,213.61L336.21,218.91L339.06,232.15L341.91,237.44L344.76,237.44L347.61,240.09L350.46,245.39L353.31,245.39L356.16,232.15L359.01,226.85L361.85,226.85L364.7,216.26L367.55,218.91L370.4,224.2L373.25,221.56L376.1,203.02L378.95,176.54L381.8,173.89L384.65,179.19L390.35,179.19L393.2,173.89L396.05,173.89L398.89,171.24L401.74,165.95L404.59,168.59L407.44,160.65L410.29,158L413.14,158L415.99,160.65L418.84,150.06L421.69,152.71L424.54,152.71L427.39,142.11L430.24,134.17L433.09,155.35L435.93,152.71L438.78,160.65L441.63,165.95L444.48,155.35L447.33,165.95L450.18,152.71L453.03,150.06L455.88,144.76L464.43,128.87L467.28,115.63L470.13,118.28L472.97,134.17L475.82,110.34L478.67,110.34L481.52,118.28L484.37,120.93L490.07,126.22L492.92,118.28L495.77,107.69L498.62,123.58L501.47,112.98L504.32,118.28L507.17,107.69L510.02,102.39L512.86,78.56L515.71,75.91L518.56,73.26L521.41,89.15L524.26,81.21L527.11,91.8L529.96,102.39L532.81,105.04L535.66,97.1L538.51,91.8L541.36,75.91L544.21,65.32L547.06,62.67L549.9,52.08L555.6,36.19L558.45,33.54L561.3,36.19L564.15,22.95L567,22.95" style="vector-effect: none; fill: none; stroke: rgb(99, 110, 250); stroke-opacity: 1; stroke-width: 2px; opacity: 1;"/></g><g class="points"/><g class="text"/></g><g class="trace scatter trace915c9e" style="stroke-miterlimit: 2; opacity: 1;"><g class="fills"/><g class="errorbars"/><g class="lines"><path class="js-line" d="M0,436.05L5.7,430.75L8.55,436.05L14.25,430.75L17.1,436.05L19.94,436.05L22.79,430.75L28.49,425.46L31.34,420.16L34.19,430.75L37.04,436.05L39.89,420.16L42.74,430.75L45.59,436.05L48.44,425.46L51.29,430.75L54.14,428.11L56.98,433.4L59.83,428.11L62.68,417.51L65.53,398.98L68.38,401.63L71.23,388.38L74.08,398.98L76.93,393.68L79.78,404.27L82.63,404.27L85.48,406.92L88.33,391.03L91.18,391.03L94.03,385.74L96.87,388.38L99.72,380.44L102.57,377.79L105.42,396.33L108.27,391.03L111.12,377.79L113.97,388.38L116.82,377.79L119.67,377.79L122.52,380.44L125.37,372.5L128.22,380.44L131.07,375.14L133.91,377.79L136.76,377.79L139.61,367.2L145.31,361.9L148.16,372.5L151.01,369.85L153.86,364.55L156.71,380.44L159.56,388.38L162.41,396.33L165.26,401.63L168.11,401.63L170.95,406.92L173.8,393.68L176.65,406.92L182.35,406.92L185.2,412.22L188.05,420.16L190.9,404.27L193.75,404.27L196.6,398.98L199.45,404.27L202.3,391.03L205.15,385.74L207.99,391.03L210.84,385.74L213.69,398.98L219.39,417.51L222.24,425.46L225.09,430.75L227.94,425.46L230.79,428.11L233.64,406.92L236.49,401.63L239.34,409.57L242.19,401.63L245.04,401.63L247.88,393.68L250.73,391.03L253.58,383.09L256.43,383.09L259.28,383.09L262.13,393.68L264.98,391.03L267.83,393.68L270.68,401.63L273.53,383.09L276.38,383.09L279.23,377.79L282.08,380.44L284.92,367.2L290.62,343.37L293.47,324.83L296.32,335.42L299.17,340.72L302.02,346.02L304.87,346.02L307.72,356.61L310.57,348.66L313.42,343.37L316.27,346.02L319.12,332.78L321.96,338.07L324.81,346.02L327.66,346.02L330.51,348.66L333.36,343.37L336.21,338.07L339.06,346.02L341.91,332.78L344.76,343.37L347.61,335.42L350.46,335.42L353.31,340.72L356.16,348.66L359.01,335.42L361.85,351.31L364.7,348.66L367.55,353.96L370.4,361.9L373.25,364.55L378.95,364.55L381.8,361.9L384.65,356.61L387.5,367.2L390.35,375.14L393.2,377.79L396.05,388.38L398.89,385.74L401.74,356.61L404.59,340.72L410.29,330.13L413.14,314.24L415.99,314.24L418.84,324.83L424.54,330.13L427.39,343.37L430.24,346.02L433.09,338.07L435.93,338.07L438.78,348.66L441.63,353.96L444.48,364.55L447.33,367.2L450.18,351.31L453.03,361.9L455.88,364.55L464.43,364.55L467.28,377.79L470.13,359.26L472.97,367.2L475.82,364.55L478.67,364.55L481.52,356.61L484.37,359.26L487.22,351.31L490.07,340.72L495.77,361.9L498.62,348.66L501.47,346.02L504.32,346.02L507.17,348.66L510.02,359.26L512.86,348.66L515.71,359.26L518.56,359.26L521.41,353.96L524.26,361.9L527.11,359.26L529.96,369.85L532.81,385.74L535.66,396.33L538.51,396.33L541.36,383.09L544.21,393.68L547.06,367.2L549.9,375.14L552.75,364.55L555.6,361.9L558.45,348.66L561.3,348.66L567,338.07" style="vector-effect: none; fill: none; stroke: rgb(239, 85, 59); stroke-opacity: 1; stroke-width: 2px; opacity: 1;"/></g><g class="points"/><g class="text"/></g><g class="trace scatter tracedd7e06" style="stroke-miterlimit: 2; opacity: 1;"><g class="fills"/><g class="errorbars"/><g class="lines"><path class="js-line" d="M0,436.05L5.7,425.46L8.55,436.05L11.4,436.05L14.25,428.11L17.1,436.05L19.94,428.11L22.79,436.05L25.64,433.4L28.49,430.75L31.34,425.46L37.04,414.87L39.89,414.87L42.74,428.11L45.59,422.81L48.44,422.81L51.29,433.4L54.14,430.75L56.98,430.75L59.83,436.05L62.68,428.11L65.53,420.16L68.38,420.16L74.08,404.27L76.93,401.63L82.63,383.09L85.48,391.03L88.33,388.38L91.18,380.44L94.03,375.14L96.87,380.44L99.72,385.74L102.57,388.38L105.42,383.09L108.27,398.98L111.12,404.27L113.97,391.03L116.82,388.38L119.67,388.38L122.52,383.09L125.37,385.74L128.22,388.38L131.07,380.44L133.91,398.98L136.76,391.03L139.61,383.09L142.46,393.68L145.31,393.68L148.16,380.44L151.01,383.09L153.86,367.2L156.71,361.9L159.56,377.79L162.41,377.79L165.26,369.85L168.11,353.96L170.95,356.61L173.8,361.9L176.65,369.85L179.5,369.85L182.35,364.55L185.2,369.85L188.05,367.2L190.9,359.26L193.75,380.44L196.6,396.33L199.45,404.27L202.3,396.33L205.15,404.27L207.99,409.57L210.84,409.57L213.69,409.57L216.54,417.51L219.39,417.51L222.24,428.11L225.09,428.11L227.94,425.46L230.79,436.05L233.64,436.05L236.49,428.11L239.34,428.11L242.19,433.4L245.04,428.11L247.88,414.87L250.73,412.22L253.58,406.92L256.43,393.68L259.28,383.09L262.13,385.74L267.83,364.55L270.68,377.79L273.53,383.09L276.38,385.74L279.23,380.44L282.08,367.2L284.92,375.14L287.77,367.2L290.62,367.2L293.47,361.9L296.32,377.79L299.17,388.38L302.02,393.68L304.87,401.63L307.72,393.68L310.57,388.38L313.42,375.14L316.27,375.14L319.12,375.14L321.96,377.79L327.66,340.72L330.51,340.72L333.36,327.48L336.21,327.48L344.76,335.42L347.61,324.83L350.46,314.24L353.31,316.89L356.16,316.89L359.01,314.24L361.85,322.18L364.7,324.83L367.55,335.42L370.4,330.13L373.25,327.48L376.1,335.42L378.95,340.72L381.8,338.07L384.65,330.13L387.5,327.48L390.35,338.07L393.2,330.13L396.05,316.89L398.89,322.18L401.74,332.78L404.59,314.24L407.44,311.59L410.29,303.65L413.14,314.24L415.99,308.94L418.84,298.35L421.69,319.53L424.54,324.83L427.39,308.94L430.24,311.59L433.09,322.18L435.93,319.53L438.78,332.78L441.63,332.78L444.48,338.07L447.33,343.37L450.18,346.02L453.03,332.78L455.88,332.78L458.73,351.31L461.58,353.96L464.43,369.85L467.28,359.26L470.13,364.55L472.97,375.14L475.82,380.44L478.67,375.14L481.52,383.09L484.37,383.09L487.22,385.74L490.07,372.5L492.92,375.14L495.77,375.14L498.62,369.85L501.47,369.85L507.17,348.66L510.02,348.66L512.86,348.66L515.71,343.37L518.56,340.72L521.41,348.66L527.11,359.26L529.96,356.61L535.66,372.5L538.51,377.79L544.21,383.09L547.06,398.98L549.9,383.09L552.75,393.68L555.6,409.57L558.45,414.87L561.3,422.81L564.15,414.87L567,417.51" style="vector-effect: none; fill: none; stroke: rgb(0, 204, 150); stroke-opacity: 1; stroke-width: 2px; opacity: 1;"/></g><g class="points"/><g class="text"/></g></g></g></g><g class="zerolinelayer-above"/><path class="xlines-above crisp" d="M0,0" style="fill: none;"/><path class="ylines-above crisp" d="M0,0" style="fill: none;"/><g class="overlines-above"/><g class="xaxislayer-above"><g class="xtick"><text text-anchor="middle" x="0" y="472" transform="translate(49,0)" style="font-family: 'Open Sans', verdana, arial, sans-serif; font-size: 12px; fill: rgb(42, 63, 95); fill-opacity: 1; white-space: pre;">0</text></g><g class="xtick"><text text-anchor="middle" x="0" y="472" style="font-family: 'Open Sans', verdana, arial, sans-serif; font-size: 12px; fill: rgb(42, 63, 95); fill-opacity: 1; white-space: pre;" transform="translate(162.97,0)">200</text></g><g class="xtick"><text text-anchor="middle" x="0" y="472" style="font-family: 'Open Sans', verdana, arial, sans-serif; font-size: 12px; fill: rgb(42, 63, 95); fill-opacity: 1; white-space: pre;" transform="translate(276.94,0)">400</text></g><g class="xtick"><text text-anchor="middle" x="0" y="472" style="font-family: 'Open Sans', verdana, arial, sans-serif; font-size: 12px; fill: rgb(42, 63, 95); fill-opacity: 1; white-space: pre;" transform="translate(390.91,0)">600</text></g><g class="xtick"><text text-anchor="middle" x="0" y="472" style="font-family: 'Open Sans', verdana, arial, sans-serif; font-size: 12px; fill: rgb(42, 63, 95); fill-opacity: 1; white-space: pre;" transform="translate(504.88,0)">800</text></g></g><g class="yaxislayer-above"><g class="ytick"><text text-anchor="end" x="48" y="4.199999999999999" transform="translate(0,436.05)" style="font-family: 'Open Sans', verdana, arial, sans-serif; font-size: 12px; fill: rgb(42, 63, 95); fill-opacity: 1; white-space: pre;">0</text></g><g class="ytick"><text text-anchor="end" x="48" y="4.199999999999999" style="font-family: 'Open Sans', verdana, arial, sans-serif; font-size: 12px; fill: rgb(42, 63, 95); fill-opacity: 1; white-space: pre;" transform="translate(0,383.09)">20</text></g><g class="ytick"><text text-anchor="end" x="48" y="4.199999999999999" style="font-family: 'Open Sans', verdana, arial, sans-serif; font-size: 12px; fill: rgb(42, 63, 95); fill-opacity: 1; white-space: pre;" transform="translate(0,330.13)">40</text></g><g class="ytick"><text text-anchor="end" x="48" y="4.199999999999999" style="font-family: 'Open Sans', verdana, arial, sans-serif; font-size: 12px; fill: rgb(42, 63, 95); fill-opacity: 1; white-space: pre;" transform="translate(0,277.17)">60</text></g><g class="ytick"><text text-anchor="end" x="48" y="4.199999999999999" style="font-family: 'Open Sans', verdana, arial, sans-serif; font-size: 12px; fill: rgb(42, 63, 95); fill-opacity: 1; white-space: pre;" transform="translate(0,224.2)">80</text></g><g class="ytick"><text text-anchor="end" x="48" y="4.199999999999999" style="font-family: 'Open Sans', verdana, arial, sans-serif; font-size: 12px; fill: rgb(42, 63, 95); fill-opacity: 1; white-space: pre;" transform="translate(0,171.24)">100</text></g><g class="ytick"><text text-anchor="end" x="48" y="4.199999999999999" style="font-family: 'Open Sans', verdana, arial, sans-serif; font-size: 12px; fill: rgb(42, 63, 95); fill-opacity: 1; white-space: pre;" transform="translate(0,118.28)">120</text></g><g class="ytick"><text text-anchor="end" x="48" y="4.199999999999999" style="font-family: 'Open Sans', verdana, arial, sans-serif; font-size: 12px; fill: rgb(42, 63, 95); fill-opacity: 1; white-space: pre;" transform="translate(0,65.32)">140</text></g><g class="ytick"><text text-anchor="end" x="48" y="4.199999999999999" style="font-family: 'Open Sans', verdana, arial, sans-serif; font-size: 12px; fill: rgb(42, 63, 95); fill-opacity: 1; white-space: pre;" transform="translate(0,12.36)">160</text></g></g><g class="overaxes-above"/></g></g><g class="polarlayer"/><g class="smithlayer"/><g class="ternarylayer"/><g class="geolayer"/><g class="funnelarealayer"/><g class="pielayer"/><g class="iciclelayer"/><g class="treemaplayer"/><g class="sunburstlayer"/><g class="glimages"/><defs id="topdefs-ecbeb2"><g class="clips"/><clipPath id="legendecbeb2"><rect width="73" height="86" x="0" y="0"/></clipPath></defs><g class="layer-above"><g class="imagelayer"/><g class="shapelayer"/></g><g class="infolayer"><g class="legend" pointer-events="all" transform="translate(627,0)"><rect class="bg" shape-rendering="crispEdges" style="stroke: rgb(68, 68, 68); stroke-opacity: 1; fill: rgb(255, 255, 255); fill-opacity: 1; stroke-width: 0px;" width="73" height="86" x="0" y="0"/><g class="scrollbox" transform="" clip-path="url(#legendecbeb2)"><text class="legendtitletext" text-anchor="start" x="2" y="18.2" style="font-family: 'Open Sans', verdana, arial, sans-serif; font-size: 14px; fill: rgb(42, 63, 95); fill-opacity: 1; white-space: pre;">arrival</text><g class="groups" transform=""><g class="traces" transform="translate(0,32.7)" style="opacity: 1;"><text class="legendtext" text-anchor="start" x="40" y="4.680000000000001" style="font-family: 'Open Sans', verdana, arial, sans-serif; font-size: 12px; fill: rgb(42, 63, 95); fill-opacity: 1; white-space: pre;">0.64</text><g class="layers" style="opacity: 1;"><g class="legendfill"/><g class="legendlines"><path class="js-line" d="M5,0h30" style="fill: none; stroke: rgb(99, 110, 250); stroke-opacity: 1; stroke-width: 2px;"/></g><g class="legendsymbols"><g class="legendpoints"/></g></g><rect class="legendtoggle" x="0" y="-9.5" width="67.265625" height="19" style="fill: rgb(0, 0, 0); fill-opacity: 0;"/></g></g><g class="groups" transform=""><g class="traces" transform="translate(0,51.7)" style="opacity: 1;"><text class="legendtext" text-anchor="start" x="40" y="4.680000000000001" style="font-family: 'Open Sans', verdana, arial, sans-serif; font-size: 12px; fill: rgb(42, 63, 95); fill-opacity: 1; white-space: pre;">0.65</text><g class="layers" style="opacity: 1;"><g class="legendfill"/><g class="legendlines"><path class="js-line" d="M5,0h30" style="fill: none; stroke: rgb(239, 85, 59); stroke-opacity: 1; stroke-width: 2px;"/></g><g class="legendsymbols"><g class="legendpoints"/></g></g><rect class="legendtoggle" x="0" y="-9.5" width="67.265625" height="19" style="fill: rgb(0, 0, 0); fill-opacity: 0;"/></g></g><g class="groups" transform=""><g class="traces" transform="translate(0,70.7)" style="opacity: 1;"><text class="legendtext" text-anchor="start" x="40" y="4.680000000000001" style="font-family: 'Open Sans', verdana, arial, sans-serif; font-size: 12px; fill: rgb(42, 63, 95); fill-opacity: 1; white-space: pre;">0.66</text><g class="layers" style="opacity: 1;"><g class="legendfill"/><g class="legendlines"><path class="js-line" d="M5,0h30" style="fill: none; stroke: rgb(0, 204, 150); stroke-opacity: 1; stroke-width: 2px;"/></g><g class="legendsymbols"><g class="legendpoints"/></g></g><rect class="legendtoggle" x="0" y="-9.5" width="67.265625" height="19" style="fill: rgb(0, 0, 0); fill-opacity: 0;"/></g></g></g><rect class="scrollbar" rx="20" ry="3" width="0" height="0" style="fill: rgb(128, 139, 164); fill-opacity: 1;" x="0" y="0"/></g><g class="g-gtitle"/><g class="g-xtitle" transform="translate(0,-2.3000000000000114)"><text class="xtitle" x="332.5" y="499.3" text-anchor="middle" style="opacity: 1; font-family: 'Open Sans', verdana, arial, sans-serif; font-size: 14px; fill: rgb(42, 63, 95); fill-opacity: 1; white-space: pre;">time</text></g><g class="g-ytitle" transform="translate(8.291015625,0)"><text class="ytitle" transform="rotate(-90,5.709375000000001,229.5)" x="5.709375000000001" y="229.5" text-anchor="middle" style="opacity: 1; font-family: 'Open Sans', verdana, arial, sans-serif; font-size: 14px; fill: rgb(42, 63, 95); fill-opacity: 1; white-space: pre;">length</text></g></g></svg>