<svg class="main-svg" xmlns="http://www.w3.org/2000/svg" xmlns:xlink="http://www.w3.org/1999/xlink" width="700" height="500" style="" viewBox="0 0 700 500"><rect x="0" y="0" width="700" height="500" style="fill: rgb(255, 255, 255); fill-opacity: 1;"/><defs id="defs-a049b6"><g class="clips"><clipPath id="clipa049b6xyplot" class="plotclip"><rect width="655" height="459"/></clipPath><clipPath class="axesclip" id="clipa049b6x"><rect x="45" y="0" width="655" height="500"/></clipPath><clipPath class="axesclip" id="clipa049b6y"><rect x="0" y="0" width="700" height="459"/></clipPath><clipPath class="axesclip" id="clipa049b6xy"><rect x="45" y="0" width="655" height="459"/></clipPath></g><g class="gradients"/><g class="patterns"/></defs><g class="bglayer"><rect class="bg" x="45" y="0" width="655" height="459" style="fill: rgb(229, 236, 246); fill-opacity: 1; stroke-width: 0;"/></g><g class="layer-below"><g class="imagelayer"/><g class="shapelayer"/></g><g class="cartesianlayer"><g class="subplot xy"><g class="layer-subplot"><g class="shapelayer"/><g class="imagelayer"/></g><g class="minor-gridlayer"><g class="x"/><g class="y"/></g><g class="gridlayer"><g class="x"><path class="xgrid crisp" transform="translate(120.92,0)" d="M0,0v459" style="stroke: rgb(255, 255, 255); stroke-opacity: 1; stroke-width: 1px;"/><path class="xgrid crisp" transform="translate(223.27,0)" d="M0,0v459" style="stroke: rgb(255, 255, 255); stroke-opacity: 1; stroke-width: 1px;"/><path class="xgrid crisp" transform="translate(325.62,0)" d="M0,0v459" style="stroke: rgb(255, 255, 255); stroke-opacity: 1; stroke-width: 1px;"/><path class="xgrid crisp" transform="translate(427.97,0)" d="M0,0v459" style="stroke: rgb(255, 255, 255); stroke-opacity: 1; stroke-width: 1px;"/><path class="xgrid crisp" transform="translate(530.31,0)" d="M0,0v459" style="stroke: rgb(255, 255, 255); stroke-opacity: 1; stroke-width: 1px;"/><path class="xgrid crisp" transform="translate(632.66,0)" d="M0,0v459" style="stroke: rgb(255, 255, 255); stroke-opacity: 1; stroke-width: 1px;"/></g><g class="y"><path class="ygrid crisp" transform="translate(0,355.08)" d="M45,0h655" style="stroke: rgb(255, 255, 255); stroke-opacity: 1; stroke-width: 1px;"/><path class="ygrid crisp" transform="translate(0,268.32)" d="M45,0h655" style="stroke: rgb(255, 255, 255); stroke-opacity: 1; stroke-width: 1px;"/><path class="ygrid crisp" transform="translate(0,181.55)" d="M45,0h655" style="stroke: rgb(255, 255, 255); stroke-opacity: 1; stroke-width: 1px;"/><path class="ygrid crisp" transform="translate(0,94.79)" d="M45,0h655" style="stroke: rgb(255, 255, 255); stroke-opacity: 1; stroke-width: 1px;"/><path class="ygrid crisp" transform="translate(0,8.03)" d="M45,0h655" style="stroke: rgb(255, 255, 255); stroke-opacity: 1; stroke-width: 1px;"/></g></g><g class="zerolinelayer"><path class="yzl zl crisp" transform="translate(0,441.84)" d="M45,0h655" style="stroke: rgb(255, 255, 255); stroke-opacity: 1; stroke-width: 2px;"/></g><g class="layer-between"><g class="shapelayer"/><g class="imagelayer"/></g><path class="xlines-below"/><path class="ylines-below"/><g class="overlines-below"/><g class="xaxislayer-below"/><g class="yaxislayer-below"/><g class="overaxes-below"/><g class="overplot"><g class="xy" transform="translate(45,0)" clip-path="url(#clipa049b6xyplot)"><g class="scatterlayer mlayer"><g class="trace scatter traceca65dc" style="stroke-miterlimit: 2; opacity: 1;"><g class="fills"/><g class="errorbars"/><g class="lines"><path class="js-line" d="M0,422.98L3.94,409.16L5.25,403.61L10.5,377.1L11.81,369.52L19.69,318.19L21,308.96L42,163.53L43.32,155.59L51.19,112.67L52.51,106.35L59.07,78.46L60.38,73.62L66.94,53.07L68.26,49.66L73.51,38.28L74.82,35.97L80.07,28.75L81.38,27.42L85.32,24.52L86.63,23.89L90.57,22.96L91.88,22.95L95.82,23.76L97.13,24.29L102.38,27.62L103.7,28.72L110.26,35.71L111.57,37.36L119.45,48.83L120.76,50.97L131.26,69.79L132.58,72.32L148.33,104.54L149.64,107.33L189.02,189.59L190.33,192.16L208.71,226.33L210.02,228.63L225.77,254.75L227.08,256.81L244.15,281.73L245.46,283.52L261.21,303.56L262.53,305.12L278.28,322.54L279.59,323.89L295.34,338.96L296.65,340.12L313.72,354.12L315.03,355.11L332.09,367.01L333.41,367.85L351.78,378.66L353.1,379.37L371.47,388.44L372.79,389.03L392.47,397.13L393.79,397.62L414.79,404.75L416.1,405.15L439.73,411.65L441.04,411.97L468.61,417.97L469.92,418.22L501.42,423.47L502.74,423.66L544.74,428.73L546.05,428.86L591.99,432.67L593.31,432.76L647.12,435.71L648.44,435.77L655,436.05" style="vector-effect: none; fill: none; stroke: rgb(99, 110, 250); stroke-opacity: 1; stroke-width: 2px; opacity: 1;"/></g><g class="points"/><g class="text"/></g></g></g></g><g class="zerolinelayer-above"/><path class="xlines-above crisp" d="M0,0" style="fill: none;"/><path class="ylines-above crisp" d="M0,0" style="fill: none;"/><g class="overlines-above"/><g class="xaxislayer-above"><g class="xtick"><text text-anchor="middle" x="0" y="472" transform="translate(120.92,0)" style="font-family: 'Open Sans', verdana, arial, sans-serif; font-size: 12px; fill: rgb(42, 63, 95); fill-opacity: 1; white-space: pre;">1</text></g><g class="xtick"><text text-anchor="middle" x="0" y="472" style="font-family: 'Open Sans', verdana, arial, sans-serif; font-size: 12px; fill: rgb(42, 63, 95); fill-opacity: 1; white-space: pre;" transform="translate(223.27,0)">2</text></g><g class="xtick"><text text-anchor="middle" x="0" y="472" style="font-family: 'Open Sans', verdana, arial, sans-serif; font-size: 12px; fill: rgb(42, 63, 95); fill-opacity: 1; white-space: pre;" transform="translate(325.62,0)">3</text></g><g class="xtick"><text text-anchor="middle" x="0" y="472" style="font-family: 'Open Sans', verdana, arial, sans-serif; font-size: 12px; fill: rgb(42, 63, 95); fill-opacity: 1; white-space: pre;" transform="translate(427.97,0)">4</text></g><g class="xtick"><text text-anchor="middle" x="0" y="472" style="font-family: 'Open Sans', verdana, arial, sans-serif; font-size: 12px; fill: rgb(42, 63, 95); fill-opacity: 1; white-space: pre;" transform="translate(530.31,0)">5</text></g><g class="xtick"><text text-anchor="middle" x="0" y="472" style="font-family: 'Open Sans', verdana, arial, sans-serif; font-size: 12px; fill: rgb(42, 63, 95); fill-opacity: 1; white-space: pre;" transform="translate(632.66,0)">6</text></g></g><g class="yaxislayer-above"><g class="ytick"><text text-anchor="end" x="44" y="4.199999999999999" transform="translate(0,441.84)" style="font-family: 'Open Sans', verdana, arial, sans-serif; font-size: 12px; fill: rgb(42, 63, 95); fill-opacity: 1; white-space: pre;">0</text></g><g class="ytick"><text text-anchor="end" x="44" y="4.199999999999999" style="font-family: 'Open Sans', verdana, arial, sans-serif; font-size: 12px; fill: rgb(42, 63, 95); fill-opacity: 1; white-space: pre;" transform="translate(0,355.08)">0.1</text></g><g class="ytick"><text text-anchor="end" x="44" y="4.199999999999999" style="font-family: 'Open Sans', verdana, arial, sans-serif; font-size: 12px; fill: rgb(42, 63, 95); fill-opacity: 1; white-space: pre;" transform="translate(0,268.32)">0.2</text></g><g class="ytick"><text text-anchor="end" x="44" y="4.199999999999999" style="font-family: 'Open Sans', verdana, arial, sans-serif; font-size: 12px; fill: rgb(42, 63, 95); fill-opacity: 1; white-space: pre;" transform="translate(0,181.55)">0.3</text></g><g class="ytick"><text text-anchor="end" x="44" y="4.199999999999999" style="font-family: 'Open Sans', verdana, arial, sans-serif; font-size: 12px; fill: rgb(42, 63, 95); fill-opacity: 1; white-space: pre;" transform="translate(0,94.79)">0.4</text></g><g class="ytick"><text text-anchor="end" x="44" y="4.199999999999999" style="font-family: 'Open Sans', verdana, arial, sans-serif; font-size: 12px; fill: rgb(42, 63, 95); fill-opacity: 1; white-space: pre;" transform="translate(0,8.03)">0.5</text></g></g><g class="overaxes-above"/></g></g><g class="polarlayer"/><g class="smithlayer"/><g class="ternarylayer"/><g class="geolayer"/><g class="funnelarealayer"/><g class="pielayer"/><g class="iciclelayer"/><g class="treemaplayer"/><g class="sunburstlayer"/><g class="glimages"/><defs id="topdefs-a049b6"><g class="clips"/></defs><g class="layer-above"><g class="imagelayer"/><g class="shapelayer"/></g><g class="infolayer"><g class="g-gtitle"/><g class="g-xtitle" transform="translate(0,-2.3000000000000114)"><text class="xtitle" x="372.5" y="499.3" text-anchor="middle" style="opacity: 1; font-family: 'Open Sans', verdana, arial, sans-serif; font-size: 14px; fill: rgb(42, 63, 95); fill-opacity: 1; white-space: pre;">x</text></g><g class="g-ytitle" transform="translate(9.025390625,0)"><text class="ytitle" transform="rotate(-90,4.975000000000001,229.5)" x="4.975000000000001" y="229.5" text-anchor="middle" style="opacity: 1; font-family: 'Open Sans', verdana, arial, sans-serif; font-size: 14px; fill: rgb(42, 63, 95); fill-opacity: 1; white-space: pre;">y</text></g></g></svg>