<svg class="main-svg" xmlns="http://www.w3.org/2000/svg" xmlns:xlink="http://www.w3.org/1999/xlink" width="700" height="500" style="" viewBox="0 0 700 500"><rect x="0" y="0" width="700" height="500" style="fill: rgb(255, 255, 255); fill-opacity: 1;"/><defs id="defs-1c4fd6"><g class="clips"><clipPath id="clip1c4fd6xyplot" class="plotclip"><rect width="126.89999999999999" height="360"/></clipPath><clipPath id="clip1c4fd6x2y2plot" class="plotclip"><rect width="126.89999999999999" height="360"/></clipPath><clipPath id="clip1c4fd6x3y3plot" class="plotclip"><rect width="126.89999999999999" height="360"/></clipPath><clipPath id="clip1c4fd6x4y4plot" class="plotclip"><rect width="126.89999999999999" height="360"/></clipPath><clipPath class="axesclip" id="clip1c4fd6x"><rect x="80" y="0" width="126.89999999999999" height="500"/></clipPath><clipPath class="axesclip" id="clip1c4fd6y"><rect x="0" y="60" width="700" height="360"/></clipPath><clipPath class="axesclip" id="clip1c4fd6xy"><rect x="80" y="60" width="126.89999999999999" height="360"/></clipPath><clipPath class="axesclip" id="clip1c4fd6y2"><rect x="0" y="60" width="700" height="360"/></clipPath><clipPath class="axesclip" id="clip1c4fd6xy2"><rect x="80" y="60" width="126.89999999999999" height="360"/></clipPath><clipPath class="axesclip" id="clip1c4fd6y3"><rect x="0" y="60" width="700" height="360"/></clipPath><clipPath class="axesclip" id="clip1c4fd6xy3"><rect x="80" y="60" width="126.89999999999999" height="360"/></clipPath><clipPath class="axesclip" id="clip1c4fd6y4"><rect x="0" y="60" width="700" height="360"/></clipPath><clipPath class="axesclip" id="clip1c4fd6xy4"><rect x="80" y="60" width="126.89999999999999" height="360"/></clipPath><clipPath class="axesclip" id="clip1c4fd6x2"><rect x="217.7" y="0" width="126.89999999999999" height="500"/></clipPath><clipPath class="axesclip" id="clip1c4fd6x2y"><rect x="217.7" y="60" width="126.89999999999999" height="360"/></clipPath><clipPath class="axesclip" id="clip1c4fd6x2y2"><rect x="217.7" y="60" width="126.89999999999999" height="360"/></clipPath><clipPath class="axesclip" id="clip1c4fd6x2y3"><rect x="217.7" y="60" width="126.89999999999999" height="360"/></clipPath><clipPath class="axesclip" id="clip1c4fd6x2y4"><rect x="217.7" y="60" width="126.89999999999999" height="360"/></clipPath><clipPath class="axesclip" id="clip1c4fd6x3"><rect x="355.4" y="0" width="126.89999999999999" height="500"/></clipPath><clipPath class="axesclip" id="clip1c4fd6x3y"><rect x="355.4" y="60" width="126.89999999999999" height="360"/></clipPath><clipPath class="axesclip" id="clip1c4fd6x3y2"><rect x="355.4" y="60" width="126.89999999999999" height="360"/></clipPath><clipPath class="axesclip" id="clip1c4fd6x3y3"><rect x="355.4" y="60" width="126.89999999999999" height="360"/></clipPath><clipPath class="axesclip" id="clip1c4fd6x3y4"><rect x="355.4" y="60" width="126.89999999999999" height="360"/></clipPath><clipPath class="axesclip" id="clip1c4fd6x4"><rect x="493.09999999999997" y="0" width="126.89999999999999" height="500"/></clipPath><clipPath class="axesclip" id="clip1c4fd6x4y"><rect x="493.09999999999997" y="60" width="126.89999999999999" height="360"/></clipPath><clipPath class="axesclip" id="clip1c4fd6x4y2"><rect x="493.09999999999997" y="60" width="126.89999999999999" height="360"/></clipPath><clipPath class="axesclip" id="clip1c4fd6x4y3"><rect x="493.09999999999997" y="60" width="126.89999999999999" height="360"/></clipPath><clipPath class="axesclip" id="clip1c4fd6x4y4"><rect x="493.09999999999997" y="60" width="126.89999999999999" height="360"/></clipPath></g><g class="gradients"/><g class="patterns"/></defs><g class="bglayer"><rect class="bg" x="80" y="60" width="126.89999999999999" height="360" style="fill: rgb(229, 236, 246); fill-opacity: 1; stroke-width: 0;"/><rect class="bg" x="217.7" y="60" width="126.89999999999999" height="360" style="fill: rgb(229, 236, 246); fill-opacity: 1; stroke-width: 0;"/><rect class="bg" x="355.4" y="60" width="126.89999999999999" height="360" style="fill: rgb(229, 236, 246); fill-opacity: 1; stroke-width: 0;"/><rect class="bg" x="493.09999999999997" y="60" width="126.89999999999999" height="360" style="fill: rgb(229, 236, 246); fill-opacity: 1; stroke-width: 0;"/></g><g class="layer-below"><g class="imagelayer"/><g class="shapelayer"/></g><g class="cartesianlayer"><g class="subplot xy"><g class="layer-subplot"><g class="shapelayer"/><g class="imagelayer"/></g><g class="minor-gridlayer"><g class="x"/><g class="y"/></g><g class="gridlayer"><g class="x"><path class="xgrid crisp" transform="translate(105.51,0)" d="M0,60v360" style="stroke: rgb(255, 255, 255); stroke-opacity: 1; stroke-width: 1px;"/><path class="xgrid crisp" transform="translate(131.02,0)" d="M0,60v360" style="stroke: rgb(255, 255, 255); stroke-opacity: 1; stroke-width: 1px;"/><path class="xgrid crisp" transform="translate(156.51999999999998,0)" d="M0,60v360" style="stroke: rgb(255, 255, 255); stroke-opacity: 1; stroke-width: 1px;"/><path class="xgrid crisp" transform="translate(182.03,0)" d="M0,60v360" style="stroke: rgb(255, 255, 255); stroke-opacity: 1; stroke-width: 1px;"/></g><g class="y"><path class="ygrid crisp" transform="translate(0,362.96)" d="M80,0h126.89999999999999" style="stroke: rgb(255, 255, 255); stroke-opacity: 1; stroke-width: 1px;"/><path class="ygrid crisp" transform="translate(0,323.93)" d="M80,0h126.89999999999999" style="stroke: rgb(255, 255, 255); stroke-opacity: 1; stroke-width: 1px;"/><path class="ygrid crisp" transform="translate(0,284.89)" d="M80,0h126.89999999999999" style="stroke: rgb(255, 255, 255); stroke-opacity: 1; stroke-width: 1px;"/><path class="ygrid crisp" transform="translate(0,245.86)" d="M80,0h126.89999999999999" style="stroke: rgb(255, 255, 255); stroke-opacity: 1; stroke-width: 1px;"/><path class="ygrid crisp" transform="translate(0,206.82)" d="M80,0h126.89999999999999" style="stroke: rgb(255, 255, 255); stroke-opacity: 1; stroke-width: 1px;"/><path class="ygrid crisp" transform="translate(0,167.78)" d="M80,0h126.89999999999999" style="stroke: rgb(255, 255, 255); stroke-opacity: 1; stroke-width: 1px;"/><path class="ygrid crisp" transform="translate(0,128.75)" d="M80,0h126.89999999999999" style="stroke: rgb(255, 255, 255); stroke-opacity: 1; stroke-width: 1px;"/><path class="ygrid crisp" transform="translate(0,89.71000000000001)" d="M80,0h126.89999999999999" style="stroke: rgb(255, 255, 255); stroke-opacity: 1; stroke-width: 1px;"/></g></g><g class="zerolinelayer"><path class="xzl zl crisp" transform="translate(80,0)" d="M0,60v360" style="stroke: rgb(255, 255, 255); stroke-opacity: 1; stroke-width: 2px;"/><path class="yzl zl crisp" transform="translate(0,402)" d="M80,0h126.89999999999999" style="stroke: rgb(255, 255, 255); stroke-opacity: 1; stroke-width: 2px;"/></g><g class="layer-between"><g class="shapelayer"/><g class="imagelayer"/></g><path class="xlines-below"/><path class="ylines-below"/><g class="overlines-below"/><g class="xaxislayer-below"/><g class="yaxislayer-below"/><g class="overaxes-below"/><g class="overplot"><g class="xy" transform="translate(80,60)" clip-path="url(#clip1c4fd6xyplot)"><g class="scatterlayer mlayer"><g class="trace scatter trace258fff" style="stroke-miterlimit: 2; opacity: 1;"><g class="fills"/><g class="errorbars"/><g class="lines"><path class="js-line" d="M0,342L3.19,342L3.83,338.1L5.74,318.58L6.38,318.58L7.65,330.29L8.29,330.29L8.93,318.58L9.57,322.48L10.2,322.48L10.84,330.29L14.03,310.77L14.67,302.96L16.58,318.58L17.22,330.29L18.49,342L19.13,318.58L19.77,322.48L20.41,318.58L21.04,322.48L21.68,318.58L22.96,330.29L23.59,322.48L24.23,318.58L24.87,302.96L25.51,302.96L26.15,310.77L27.42,291.25L28.06,287.35L29.33,279.54L29.97,279.54L30.61,283.45L31.25,279.54L31.88,275.64L32.52,283.45L33.16,283.45L33.8,275.64L35.71,263.93L36.35,275.64L38.26,275.64L38.9,279.54L39.54,279.54L40.17,283.45L40.81,287.35L41.45,279.54L42.09,267.83L42.73,275.64L43.36,263.93L44,275.64L44.64,283.45L45.28,279.54L45.91,287.35L46.55,275.64L47.83,279.54L48.46,279.54L49.74,287.35L50.38,283.45L51.02,287.35L51.65,283.45L52.29,291.25L52.93,283.45L54.84,299.06L55.48,291.25L56.75,279.54L57.39,291.25L58.03,287.35L58.67,291.25L59.31,291.25L59.94,275.64L61.86,291.25L62.49,283.45L65.04,267.83L65.68,271.73L66.96,291.25L67.59,299.06L68.23,291.25L68.87,295.16L69.51,302.96L70.15,299.06L72.7,310.77L73.33,302.96L73.97,302.96L74.61,306.87L75.25,302.96L75.88,310.77L76.52,314.67L77.16,326.39L77.8,330.29L78.44,326.39L79.07,322.48L79.71,326.39L80.35,326.39L80.99,334.19L81.62,334.19L82.26,330.29L82.9,330.29L83.54,326.39L84.17,334.19L84.81,322.48L86.73,310.77L87.36,322.48L88,318.58L88.64,330.29L89.91,342L90.55,334.19L91.83,330.29L92.46,314.67L93.74,291.25L94.38,295.16L95.02,295.16L95.65,291.25L96.93,302.96L97.57,299.06L98.84,310.77L99.48,306.87L100.12,314.67L100.75,302.96L103.31,271.73L103.94,279.54L104.58,267.83L105.22,275.64L106.49,287.35L107.13,283.45L108.41,283.45L109.04,291.25L109.68,287.35L110.32,295.16L110.96,299.06L111.6,291.25L112.23,299.06L112.87,287.35L114.15,279.54L114.78,279.54L117.97,295.16L118.61,291.25L119.25,287.35L119.89,275.64L120.52,275.64L121.16,271.73L122.44,260.02L123.07,252.22L123.71,252.22L124.35,256.12L125.62,256.12L126.26,248.31L126.9,240.51" style="vector-effect: none; fill: none; stroke: rgb(99, 110, 250); stroke-opacity: 1; stroke-width: 2px; opacity: 1;"/></g><g class="points"/><g class="text"/></g></g></g></g><g class="zerolinelayer-above"/><path class="xlines-above crisp" d="M0,0" style="fill: none;"/><path class="ylines-above crisp" d="M0,0" style="fill: none;"/><g class="overlines-above"/><g class="xaxislayer-above"><g class="xtick"><text text-anchor="middle" x="0" y="433" transform="translate(80,0)" style="font-family: 'Open Sans', verdana, arial, sans-serif; font-size: 12px; fill: rgb(42, 63, 95); fill-opacity: 1; white-space: pre;">0</text></g><g class="xtick"><text text-anchor="middle" x="0" y="433" style="font-family: 'Open Sans', verdana, arial, sans-serif; font-size: 12px; fill: rgb(42, 63, 95); fill-opacity: 1; white-space: pre;" transform="translate(105.51,0)">200</text></g><g class="xtick"><text text-anchor="middle" x="0" y="433" style="font-family: 'Open Sans', verdana, arial, sans-serif; font-size: 12px; fill: rgb(42, 63, 95); fill-opacity: 1; white-space: pre;" transform="translate(131.02,0)">400</text></g><g class="xtick"><text text-anchor="middle" x="0" y="433" style="font-family: 'Open Sans', verdana, arial, sans-serif; font-size: 12px; fill: rgb(42, 63, 95); fill-opacity: 1; white-space: pre;" transform="translate(156.51999999999998,0)">600</text></g><g class="xtick"><text text-anchor="middle" x="0" y="433" style="font-family: 'Open Sans', verdana, arial, sans-serif; font-size: 12px; fill: rgb(42, 63, 95); fill-opacity: 1; white-space: pre;" transform="translate(182.03,0)">800</text></g></g><g class="yaxislayer-above"><g class="ytick"><text text-anchor="end" x="79" y="4.199999999999999" transform="translate(0,402)" style="font-family: 'Open Sans', verdana, arial, sans-serif; font-size: 12px; fill: rgb(42, 63, 95); fill-opacity: 1; white-space: pre;">0</text></g><g class="ytick"><text text-anchor="end" x="79" y="4.199999999999999" style="font-family: 'Open Sans', verdana, arial, sans-serif; font-size: 12px; fill: rgb(42, 63, 95); fill-opacity: 1; white-space: pre;" transform="translate(0,362.96)">10</text></g><g class="ytick"><text text-anchor="end" x="79" y="4.199999999999999" style="font-family: 'Open Sans', verdana, arial, sans-serif; font-size: 12px; fill: rgb(42, 63, 95); fill-opacity: 1; white-space: pre;" transform="translate(0,323.93)">20</text></g><g class="ytick"><text text-anchor="end" x="79" y="4.199999999999999" style="font-family: 'Open Sans', verdana, arial, sans-serif; font-size: 12px; fill: rgb(42, 63, 95); fill-opacity: 1; white-space: pre;" transform="translate(0,284.89)">30</text></g><g class="ytick"><text text-anchor="end" x="79" y="4.199999999999999" style="font-family: 'Open Sans', verdana, arial, sans-serif; font-size: 12px; fill: rgb(42, 63, 95); fill-opacity: 1; white-space: pre;" transform="translate(0,245.86)">40</text></g><g class="ytick"><text text-anchor="end" x="79" y="4.199999999999999" style="font-family: 'Open Sans', verdana, arial, sans-serif; font-size: 12px; fill: rgb(42, 63, 95); fill-opacity: 1; white-space: pre;" transform="translate(0,206.82)">50</text></g><g class="ytick"><text text-anchor="end" x="79" y="4.199999999999999" style="font-family: 'Open Sans', verdana, arial, sans-serif; font-size: 12px; fill: rgb(42, 63, 95); fill-opacity: 1; white-space: pre;" transform="translate(0,167.78)">60</text></g><g class="ytick"><text text-anchor="end" x="79" y="4.199999999999999" style="font-family: 'Open Sans', verdana, arial, sans-serif; font-size: 12px; fill: rgb(42, 63, 95); fill-opacity: 1; white-space: pre;" transform="translate(0,128.75)">70</text></g><g class="ytick"><text text-anchor="end" x="79" y="4.199999999999999" style="font-family: 'Open Sans', verdana, arial, sans-serif; font-size: 12px; fill: rgb(42, 63, 95); fill-opacity: 1; white-space: pre;" transform="translate(0,89.71000000000001)">80</text></g></g><g class="overaxes-above"/></g><g class="subplot x2y2"><g class="layer-subplot"><g class="shapelayer"/><g class="imagelayer"/></g><g class="minor-gridlayer"><g class="x2"/><g class="y2"/></g><g class="gridlayer"><g class="x2"><path class="x2grid crisp" transform="translate(243.20999999999998,0)" d="M0,60v360" style="stroke: rgb(255, 255, 255); stroke-opacity: 1; stroke-width: 1px;"/><path class="x2grid crisp" transform="translate(268.71999999999997,0)" d="M0,60v360" style="stroke: rgb(255, 255, 255); stroke-opacity: 1; stroke-width: 1px;"/><path class="x2grid crisp" transform="translate(294.21999999999997,0)" d="M0,60v360" style="stroke: rgb(255, 255, 255); stroke-opacity: 1; stroke-width: 1px;"/><path class="x2grid crisp" transform="translate(319.73,0)" d="M0,60v360" style="stroke: rgb(255, 255, 255); stroke-opacity: 1; stroke-width: 1px;"/></g><g class="y2"><path class="y2grid crisp" transform="translate(0,362.96)" d="M217.7,0h126.89999999999999" style="stroke: rgb(255, 255, 255); stroke-opacity: 1; stroke-width: 1px;"/><path class="y2grid crisp" transform="translate(0,323.93)" d="M217.7,0h126.89999999999999" style="stroke: rgb(255, 255, 255); stroke-opacity: 1; stroke-width: 1px;"/><path class="y2grid crisp" transform="translate(0,284.89)" d="M217.7,0h126.89999999999999" style="stroke: rgb(255, 255, 255); stroke-opacity: 1; stroke-width: 1px;"/><path class="y2grid crisp" transform="translate(0,245.86)" d="M217.7,0h126.89999999999999" style="stroke: rgb(255, 255, 255); stroke-opacity: 1; stroke-width: 1px;"/><path class="y2grid crisp" transform="translate(0,206.82)" d="M217.7,0h126.89999999999999" style="stroke: rgb(255, 255, 255); stroke-opacity: 1; stroke-width: 1px;"/><path class="y2grid crisp" transform="translate(0,167.78)" d="M217.7,0h126.89999999999999" style="stroke: rgb(255, 255, 255); stroke-opacity: 1; stroke-width: 1px;"/><path class="y2grid crisp" transform="translate(0,128.75)" d="M217.7,0h126.89999999999999" style="stroke: rgb(255, 255, 255); stroke-opacity: 1; stroke-width: 1px;"/><path class="y2grid crisp" transform="translate(0,89.71000000000001)" d="M217.7,0h126.89999999999999" style="stroke: rgb(255, 255, 255); stroke-opacity: 1; stroke-width: 1px;"/></g></g><g class="zerolinelayer"><path class="x2zl zl crisp" transform="translate(217.7,0)" d="M0,60v360" style="stroke: rgb(255, 255, 255); stroke-opacity: 1; stroke-width: 2px;"/><path class="y2zl zl crisp" transform="translate(0,402)" d="M217.7,0h126.89999999999999" style="stroke: rgb(255, 255, 255); stroke-opacity: 1; stroke-width: 2px;"/></g><g class="layer-between"><g class="shapelayer"/><g class="imagelayer"/></g><path class="xlines-below"/><path class="ylines-below"/><g class="overlines-below"/><g class="xaxislayer-below"/><g class="yaxislayer-below"/><g class="overaxes-below"/><g class="overplot"><g class="x2y2" transform="translate(217.7,60)" clip-path="url(#clip1c4fd6x2y2plot)"><g class="scatterlayer mlayer"><g class="trace scatter trace69e8fa" style="stroke-miterlimit: 2; opacity: 1;"><g class="fills"/><g class="errorbars"/><g class="lines"><path class="js-line" d="M0,342L1.28,322.48L1.91,326.39L2.55,322.48L3.19,330.29L4.46,318.58L5.1,326.39L5.74,330.29L6.38,322.48L8.29,334.19L8.93,326.39L9.57,334.19L10.2,326.39L10.84,330.29L11.48,326.39L12.12,326.39L12.75,334.19L13.39,338.1L14.03,334.19L14.67,330.29L15.3,334.19L16.58,338.1L17.22,338.1L17.86,322.48L18.49,330.29L19.77,306.87L20.41,314.67L21.04,318.58L21.68,310.77L23.59,334.19L24.23,334.19L24.87,338.1L25.51,334.19L26.78,342L27.42,330.29L28.7,318.58L29.33,318.58L30.61,314.67L31.25,322.48L31.88,330.29L32.52,322.48L35.71,306.87L36.35,314.67L36.99,314.67L37.62,322.48L38.26,330.29L38.9,326.39L40.81,342L41.45,342L44,314.67L44.64,314.67L45.28,330.29L45.91,326.39L47.19,314.67L47.83,326.39L48.46,330.29L49.1,322.48L49.74,318.58L50.38,322.48L51.02,322.48L51.65,318.58L53.57,306.87L54.2,310.77L56.12,334.19L56.75,326.39L57.39,330.29L58.03,326.39L58.67,326.39L59.31,318.58L59.94,314.67L60.58,302.96L61.22,314.67L61.86,310.77L63.77,326.39L64.41,322.48L65.04,342L65.68,334.19L66.32,334.19L66.96,342L67.59,342L68.23,330.29L68.87,334.19L69.51,326.39L70.78,310.77L71.42,314.67L73.33,322.48L73.97,306.87L75.25,310.77L75.88,306.87L77.16,306.87L77.8,310.77L78.44,310.77L79.07,306.87L79.71,291.25L80.35,299.06L80.99,275.64L81.62,287.35L82.26,291.25L82.9,283.45L83.54,291.25L84.17,287.35L85.45,295.16L86.09,283.45L87.36,271.73L88,267.83L88.64,263.93L89.28,267.83L90.55,267.83L91.19,263.93L91.83,263.93L92.46,256.12L94.38,256.12L95.02,260.02L96.29,263.93L96.93,275.64L98.2,275.64L98.84,267.83L99.48,263.93L100.12,267.83L101.39,275.64L102.03,260.02L102.67,267.83L103.31,256.12L104.58,267.83L105.22,263.93L106.49,271.73L107.13,267.83L107.77,271.73L108.41,287.35L112.23,306.87L112.87,295.16L114.15,295.16L114.78,306.87L116.7,322.48L117.33,326.39L118.61,326.39L119.25,330.29L119.89,322.48L120.52,330.29L121.8,342L122.44,342L123.07,342L123.71,334.19L124.99,342L125.62,338.1L126.9,342" style="vector-effect: none; fill: none; stroke: rgb(99, 110, 250); stroke-opacity: 1; stroke-width: 2px; opacity: 1;"/></g><g class="points"/><g class="text"/></g></g></g></g><g class="zerolinelayer-above"/><path class="xlines-above crisp" d="M0,0" style="fill: none;"/><path class="ylines-above crisp" d="M0,0" style="fill: none;"/><g class="overlines-above"/><g class="xaxislayer-above"><g class="x2tick"><text text-anchor="middle" x="0" y="433" transform="translate(217.7,0)" style="font-family: 'Open Sans', verdana, arial, sans-serif; font-size: 12px; fill: rgb(42, 63, 95); fill-opacity: 1; white-space: pre;">0</text></g><g class="x2tick"><text text-anchor="middle" x="0" y="433" style="font-family: 'Open Sans', verdana, arial, sans-serif; font-size: 12px; fill: rgb(42, 63, 95); fill-opacity: 1; white-space: pre;" transform="translate(243.20999999999998,0)">200</text></g><g class="x2tick"><text text-anchor="middle" x="0" y="433" style="font-family: 'Open Sans', verdana, arial, sans-serif; font-size: 12px; fill: rgb(42, 63, 95); fill-opacity: 1; white-space: pre;" transform="translate(268.71999999999997,0)">400</text></g><g class="x2tick"><text text-anchor="middle" x="0" y="433" style="font-family: 'Open Sans', verdana, arial, sans-serif; font-size: 12px; fill: rgb(42, 63, 95); fill-opacity: 1; white-space: pre;" transform="translate(294.21999999999997,0)">600</text></g><g class="x2tick"><text text-anchor="middle" x="0" y="433" style="font-family: 'Open Sans', verdana, arial, sans-serif; font-size: 12px; fill: rgb(42, 63, 95); fill-opacity: 1; white-space: pre;" transform="translate(319.73,0)">800</text></g></g><g class="yaxislayer-above"/><g class="overaxes-above"/></g><g class="subplot x3y3"><g class="layer-subplot"><g class="shapelayer"/><g class="imagelayer"/></g><g class="minor-gridlayer"><g class="x3"/><g class="y3"/></g><g class="gridlayer"><g class="x3"><path class="x3grid crisp" transform="translate(380.90999999999997,0)" d="M0,60v360" style="stroke: rgb(255, 255, 255); stroke-opacity: 1; stroke-width: 1px;"/><path class="x3grid crisp" transform="translate(406.41999999999996,0)" d="M0,60v360" style="stroke: rgb(255, 255, 255); stroke-opacity: 1; stroke-width: 1px;"/><path class="x3grid crisp" transform="translate(431.91999999999996,0)" d="M0,60v360" style="stroke: rgb(255, 255, 255); stroke-opacity: 1; stroke-width: 1px;"/><path class="x3grid crisp" transform="translate(457.42999999999995,0)" d="M0,60v360" style="stroke: rgb(255, 255, 255); stroke-opacity: 1; stroke-width: 1px;"/></g><g class="y3"><path class="y3grid crisp" transform="translate(0,362.96)" d="M355.4,0h126.89999999999999" style="stroke: rgb(255, 255, 255); stroke-opacity: 1; stroke-width: 1px;"/><path class="y3grid crisp" transform="translate(0,323.93)" d="M355.4,0h126.89999999999999" style="stroke: rgb(255, 255, 255); stroke-opacity: 1; stroke-width: 1px;"/><path class="y3grid crisp" transform="translate(0,284.89)" d="M355.4,0h126.89999999999999" style="stroke: rgb(255, 255, 255); stroke-opacity: 1; stroke-width: 1px;"/><path class="y3grid crisp" transform="translate(0,245.86)" d="M355.4,0h126.89999999999999" style="stroke: rgb(255, 255, 255); stroke-opacity: 1; stroke-width: 1px;"/><path class="y3grid crisp" transform="translate(0,206.82)" d="M355.4,0h126.89999999999999" style="stroke: rgb(255, 255, 255); stroke-opacity: 1; stroke-width: 1px;"/><path class="y3grid crisp" transform="translate(0,167.78)" d="M355.4,0h126.89999999999999" style="stroke: rgb(255, 255, 255); stroke-opacity: 1; stroke-width: 1px;"/><path class="y3grid crisp" transform="translate(0,128.75)" d="M355.4,0h126.89999999999999" style="stroke: rgb(255, 255, 255); stroke-opacity: 1; stroke-width: 1px;"/><path class="y3grid crisp" transform="translate(0,89.71000000000001)" d="M355.4,0h126.89999999999999" style="stroke: rgb(255, 255, 255); stroke-opacity: 1; stroke-width: 1px;"/></g></g><g class="zerolinelayer"><path class="x3zl zl crisp" transform="translate(355.4,0)" d="M0,60v360" style="stroke: rgb(255, 255, 255); stroke-opacity: 1; stroke-width: 2px;"/><path class="y3zl zl crisp" transform="translate(0,402)" d="M355.4,0h126.89999999999999" style="stroke: rgb(255, 255, 255); stroke-opacity: 1; stroke-width: 2px;"/></g><g class="layer-between"><g class="shapelayer"/><g class="imagelayer"/></g><path class="xlines-below"/><path class="ylines-below"/><g class="overlines-below"/><g class="xaxislayer-below"/><g class="yaxislayer-below"/><g class="overaxes-below"/><g class="overplot"><g class="x3y3" transform="translate(355.4,60)" clip-path="url(#clip1c4fd6x3y3plot)"><g class="scatterlayer mlayer"><g class="trace scatter trace7d2f29" style="stroke-miterlimit: 2; opacity: 1;"><g class="fills"/><g class="errorbars"/><g class="lines"><path class="js-line" d="M0,342L1.28,342L1.91,338.1L3.19,330.29L3.83,334.19L5.74,334.19L6.38,342L8.29,334.19L8.93,334.19L10.2,342L10.84,334.19L12.12,342L12.75,334.19L14.03,342L14.67,342L17.22,342L17.86,338.1L19.13,326.39L19.77,326.39L20.41,330.29L21.04,326.39L21.68,326.39L22.32,330.29L22.96,330.29L23.59,338.1L24.23,342L24.87,326.39L25.51,322.48L26.15,330.29L28.06,338.1L28.7,322.48L29.33,326.39L29.97,322.48L32.52,306.87L33.16,314.67L35.07,326.39L35.71,318.58L36.35,330.29L36.99,318.58L38.26,322.48L38.9,318.58L40.17,322.48L40.81,318.58L42.09,330.29L42.73,330.29L44,326.39L44.64,326.39L45.91,334.19L46.55,326.39L47.19,326.39L47.83,330.29L49.1,330.29L49.74,334.19L51.02,330.29L51.65,334.19L52.93,322.48L53.57,326.39L54.2,326.39L54.84,334.19L56.12,322.48L56.75,322.48L57.39,318.58L58.03,322.48L58.67,326.39L59.31,310.77L59.94,318.58L60.58,310.77L61.22,314.67L61.86,310.77L63.13,310.77L63.77,306.87L65.04,318.58L65.68,310.77L67.59,310.77L68.23,302.96L68.87,306.87L69.51,302.96L72.06,314.67L72.7,302.96L73.97,318.58L74.61,318.58L75.88,326.39L76.52,314.67L77.16,318.58L77.8,310.77L79.71,318.58L80.35,318.58L82.26,318.58L82.9,314.67L83.54,318.58L84.17,310.77L84.81,318.58L85.45,314.67L86.09,314.67L86.73,302.96L87.36,310.77L88,302.96L89.28,310.77L89.91,314.67L91.83,295.16L92.46,299.06L93.1,295.16L93.74,302.96L94.38,299.06L95.02,306.87L95.65,306.87L96.29,299.06L96.93,302.96L97.57,295.16L98.2,299.06L98.84,295.16L99.48,291.25L100.12,299.06L100.75,299.06L101.39,302.96L102.03,306.87L102.67,302.96L103.31,299.06L103.94,302.96L105.22,310.77L105.86,306.87L106.49,306.87L107.13,314.67L107.77,310.77L108.41,318.58L109.04,295.16L109.68,306.87L110.32,306.87L110.96,314.67L112.23,306.87L112.87,306.87L114.15,306.87L114.78,310.77L116.06,291.25L116.7,295.16L117.33,295.16L117.97,302.96L119.89,314.67L120.52,306.87L121.16,306.87L121.8,299.06L123.07,310.77L123.71,299.06L124.35,299.06L124.99,291.25L125.62,291.25L126.26,287.35L126.9,295.16" style="vector-effect: none; fill: none; stroke: rgb(99, 110, 250); stroke-opacity: 1; stroke-width: 2px; opacity: 1;"/></g><g class="points"/><g class="text"/></g></g></g></g><g class="zerolinelayer-above"/><path class="xlines-above crisp" d="M0,0" style="fill: none;"/><path class="ylines-above crisp" d="M0,0" style="fill: none;"/><g class="overlines-above"/><g class="xaxislayer-above"><g class="x3tick"><text text-anchor="middle" x="0" y="433" transform="translate(355.4,0)" style="font-family: 'Open Sans', verdana, arial, sans-serif; font-size: 12px; fill: rgb(42, 63, 95); fill-opacity: 1; white-space: pre;">0</text></g><g class="x3tick"><text text-anchor="middle" x="0" y="433" style="font-family: 'Open Sans', verdana, arial, sans-serif; font-size: 12px; fill: rgb(42, 63, 95); fill-opacity: 1; white-space: pre;" transform="translate(380.90999999999997,0)">200</text></g><g class="x3tick"><text text-anchor="middle" x="0" y="433" style="font-family: 'Open Sans', verdana, arial, sans-serif; font-size: 12px; fill: rgb(42, 63, 95); fill-opacity: 1; white-space: pre;" transform="translate(406.41999999999996,0)">400</text></g><g class="x3tick"><text text-anchor="middle" x="0" y="433" style="font-family: 'Open Sans', verdana, arial, sans-serif; font-size: 12px; fill: rgb(42, 63, 95); fill-opacity: 1; white-space: pre;" transform="translate(431.91999999999996,0)">600</text></g><g class="x3tick"><text text-anchor="middle" x="0" y="433" style="font-family: 'Open Sans', verdana, arial, sans-serif; font-size: 12px; fill: rgb(42, 63, 95); fill-opacity: 1; white-space: pre;" transform="translate(457.42999999999995,0)">800</text></g></g><g class="yaxislayer-above"/><g class="overaxes-above"/></g><g class="subplot x4y4"><g class="layer-subplot"><g class="shapelayer"/><g class="imagelayer"/></g><g class="minor-gridlayer"><g class="x4"/><g class="y4"/></g><g class="gridlayer"><g class="x4"><path class="x4grid crisp" transform="translate(518.61,0)" d="M0,60v360" style="stroke: rgb(255, 255, 255); stroke-opacity: 1; stroke-width: 1px;"/><path class="x4grid crisp" transform="translate(544.12,0)" d="M0,60v360" style="stroke: rgb(255, 255, 255); stroke-opacity: 1; stroke-width: 1px;"/><path class="x4grid crisp" transform="translate(569.62,0)" d="M0,60v360" style="stroke: rgb(255, 255, 255); stroke-opacity: 1; stroke-width: 1px;"/><path class="x4grid crisp" transform="translate(595.13,0)" d="M0,60v360" style="stroke: rgb(255, 255, 255); stroke-opacity: 1; stroke-width: 1px;"/></g><g class="y4"><path class="y4grid crisp" transform="translate(0,362.96)" d="M493.09999999999997,0h126.89999999999999" style="stroke: rgb(255, 255, 255); stroke-opacity: 1; stroke-width: 1px;"/><path class="y4grid crisp" transform="translate(0,323.93)" d="M493.09999999999997,0h126.89999999999999" style="stroke: rgb(255, 255, 255); stroke-opacity: 1; stroke-width: 1px;"/><path class="y4grid crisp" transform="translate(0,284.89)" d="M493.09999999999997,0h126.89999999999999" style="stroke: rgb(255, 255, 255); stroke-opacity: 1; stroke-width: 1px;"/><path class="y4grid crisp" transform="translate(0,245.86)" d="M493.09999999999997,0h126.89999999999999" style="stroke: rgb(255, 255, 255); stroke-opacity: 1; stroke-width: 1px;"/><path class="y4grid crisp" transform="translate(0,206.82)" d="M493.09999999999997,0h126.89999999999999" style="stroke: rgb(255, 255, 255); stroke-opacity: 1; stroke-width: 1px;"/><path class="y4grid crisp" transform="translate(0,167.78)" d="M493.09999999999997,0h126.89999999999999" style="stroke: rgb(255, 255, 255); stroke-opacity: 1; stroke-width: 1px;"/><path class="y4grid crisp" transform="translate(0,128.75)" d="M493.09999999999997,0h126.89999999999999" style="stroke: rgb(255, 255, 255); stroke-opacity: 1; stroke-width: 1px;"/><path class="y4grid crisp" transform="translate(0,89.71000000000001)" d="M493.09999999999997,0h126.89999999999999" style="stroke: rgb(255, 255, 255); stroke-opacity: 1; stroke-width: 1px;"/></g></g><g class="zerolinelayer"><path class="x4zl zl crisp" transform="translate(493.09999999999997,0)" d="M0,60v360" style="stroke: rgb(255, 255, 255); stroke-opacity: 1; stroke-width: 2px;"/><path class="y4zl zl crisp" transform="translate(0,402)" d="M493.09999999999997,0h126.89999999999999" style="stroke: rgb(255, 255, 255); stroke-opacity: 1; stroke-width: 2px;"/></g><g class="layer-between"><g class="shapelayer"/><g class="imagelayer"/></g><path class="xlines-below"/><path class="ylines-below"/><g class="overlines-below"/><g class="xaxislayer-below"/><g class="yaxislayer-below"/><g class="overaxes-below"/><g class="overplot"><g class="x4y4" transform="translate(493.09999999999997,60)" clip-path="url(#clip1c4fd6x4y4plot)"><g class="scatterlayer mlayer"><g class="trace scatter trace5d889a" style="stroke-miterlimit: 2; opacity: 1;"><g class="fills"/><g class="errorbars"/><g class="lines"><path class="js-line" d="M0,342L1.28,318.58L1.91,322.48L3.19,306.87L3.83,302.96L5.74,263.93L6.38,271.73L7.65,275.64L8.29,256.12L8.93,260.02L9.57,248.31L10.84,267.83L11.48,267.83L12.75,244.41L13.39,256.12L15.3,256.12L15.94,260.02L17.22,267.83L17.86,283.45L19.13,299.06L19.77,295.16L21.68,302.96L22.32,295.16L23.59,283.45L24.23,295.16L24.87,291.25L25.51,306.87L26.15,310.77L26.78,306.87L28.06,322.48L28.7,314.67L29.97,314.67L30.61,318.58L31.88,342L32.52,338.1L33.16,338.1L33.8,342L34.44,330.29L35.07,334.19L35.71,318.58L36.35,322.48L37.62,322.48L38.26,310.77L41.45,310.77L42.09,306.87L43.36,326.39L44,342L44.64,338.1L45.28,342L46.55,326.39L47.19,330.29L47.83,342L48.46,334.19L51.02,299.06L51.65,302.96L52.29,302.96L52.93,295.16L55.48,271.73L56.12,275.64L56.75,275.64L57.39,279.54L58.67,267.83L59.31,271.73L61.86,224.89L62.49,228.8L63.13,224.89L63.77,201.47L66.32,150.72L66.96,150.72L67.59,150.72L68.23,146.82L70.15,135.11L70.78,139.01L72.06,131.2L72.7,127.3L73.33,127.3L73.97,135.11L75.25,99.98L75.88,99.98L79.07,68.75L79.71,68.75L80.99,80.46L81.62,76.55L83.54,60.94L84.17,57.04L85.45,37.52L86.09,37.52L86.73,37.52L87.36,45.33L88.64,49.23L89.28,33.61L90.55,45.33L91.19,53.13L92.46,57.04L93.1,49.23L94.38,25.81L95.02,29.71L96.29,29.71L96.93,33.61L98.84,18L99.48,18L100.75,29.71L101.39,41.42L102.03,41.42L102.67,49.23L105.22,99.98L105.86,92.17L106.49,96.07L107.13,92.17L109.04,60.94L109.68,57.04L110.32,64.84L110.96,60.94L112.23,64.84L112.87,76.55L114.78,84.36L115.42,80.46L116.7,68.75L117.33,80.46L117.97,84.36L118.61,99.98L119.89,123.4L120.52,131.2L122.44,123.4L123.07,123.4L123.71,119.49L124.35,127.3L125.62,135.11L126.26,154.63L126.9,178.05" style="vector-effect: none; fill: none; stroke: rgb(99, 110, 250); stroke-opacity: 1; stroke-width: 2px; opacity: 1;"/></g><g class="points"/><g class="text"/></g></g></g></g><g class="zerolinelayer-above"/><path class="xlines-above crisp" d="M0,0" style="fill: none;"/><path class="ylines-above crisp" d="M0,0" style="fill: none;"/><g class="overlines-above"/><g class="xaxislayer-above"><g class="x4tick"><text text-anchor="middle" x="0" y="433" transform="translate(493.09999999999997,0)" style="font-family: 'Open Sans', verdana, arial, sans-serif; font-size: 12px; fill: rgb(42, 63, 95); fill-opacity: 1; white-space: pre;">0</text></g><g class="x4tick"><text text-anchor="middle" x="0" y="433" style="font-family: 'Open Sans', verdana, arial, sans-serif; font-size: 12px; fill: rgb(42, 63, 95); fill-opacity: 1; white-space: pre;" transform="translate(518.61,0)">200</text></g><g class="x4tick"><text text-anchor="middle" x="0" y="433" style="font-family: 'Open Sans', verdana, arial, sans-serif; font-size: 12px; fill: rgb(42, 63, 95); fill-opacity: 1; white-space: pre;" transform="translate(544.12,0)">400</text></g><g class="x4tick"><text text-anchor="middle" x="0" y="433" style="font-family: 'Open Sans', verdana, arial, sans-serif; font-size: 12px; fill: rgb(42, 63, 95); fill-opacity: 1; white-space: pre;" transform="translate(569.62,0)">600</text></g><g class="x4tick"><text text-anchor="middle" x="0" y="433" style="font-family: 'Open Sans', verdana, arial, sans-serif; font-size: 12px; fill: rgb(42, 63, 95); fill-opacity: 1; white-space: pre;" transform="translate(595.13,0)">800</text></g></g><g class="yaxislayer-above"/><g class="overaxes-above"/></g></g><g class="polarlayer"/><g class="smithlayer"/><g class="ternarylayer"/><g class="geolayer"/><g class="funnelarealayer"/><g class="pielayer"/><g class="iciclelayer"/><g class="treemaplayer"/><g class="sunburstlayer"/><g class="glimages"/><defs id="topdefs-1c4fd6"><g class="clips"/></defs><g class="layer-above"><g class="imagelayer"/><g class="shapelayer"/></g><g class="infolayer"><g class="g-gtitle"/><g class="g-xtitle"><text class="xtitle" x="143.45" y="460.3" text-anchor="middle" style="opacity: 1; font-family: 'Open Sans', verdana, arial, sans-serif; font-size: 14px; fill: rgb(42, 63, 95); fill-opacity: 1; white-space: pre;">time</text></g><g class="g-x2title"><text class="x2title" x="281.15" y="460.3" text-anchor="middle" style="opacity: 1; font-family: 'Open Sans', verdana, arial, sans-serif; font-size: 14px; fill: rgb(42, 63, 95); fill-opacity: 1; white-space: pre;">time</text></g><g class="g-x3title"><text class="x3title" x="418.84999999999997" y="460.3" text-anchor="middle" style="opacity: 1; font-family: 'Open Sans', verdana, arial, sans-serif; font-size: 14px; fill: rgb(42, 63, 95); fill-opacity: 1; white-space: pre;">time</text></g><g class="g-x4title"><text class="x4title" x="556.55" y="460.3" text-anchor="middle" style="opacity: 1; font-family: 'Open Sans', verdana, arial, sans-serif; font-size: 14px; fill: rgb(42, 63, 95); fill-opacity: 1; white-space: pre;">time</text></g><g class="g-ytitle"><text class="ytitle" transform="rotate(-90,44.334375,240)" x="44.334375" y="240" text-anchor="middle" style="opacity: 1; font-family: 'Open Sans', verdana, arial, sans-serif; font-size: 14px; fill: rgb(42, 63, 95); fill-opacity: 1; white-space: pre;">length</text></g><g class="g-y2title"/><g class="g-y3title"/><g class="g-y4title"/><g class="annotation" data-index="0" style="opacity: 1;"><g class="annotation-text-g" transform="rotate(0,143.45,50.5)"><g class="cursor-pointer" transform="translate(101,41)"><rect class="bg" x="0.5" y="0.5" width="84" height="18" style="stroke-width: 1px; stroke: rgb(0, 0, 0); stroke-opacity: 0; fill: rgb(0, 0, 0); fill-opacity: 0;"/><text class="annotation-text" text-anchor="middle" x="42.3515625" y="14" style="font-family: 'Open Sans', verdana, arial, sans-serif; font-size: 12px; fill: rgb(42, 63, 95); fill-opacity: 1; white-space: pre;">policy=oldest</text></g></g></g><g class="annotation" data-index="1" style="opacity: 1;"><g class="annotation-text-g" transform="rotate(0,281.15,50.5)"><g class="cursor-pointer" transform="translate(236,41)"><rect class="bg" x="0.5" y="0.5" width="90" height="18" style="stroke-width: 1px; stroke: rgb(0, 0, 0); stroke-opacity: 0; fill: rgb(0, 0, 0); fill-opacity: 0;"/><text class="annotation-text" text-anchor="middle" x="45.609375" y="14" style="font-family: 'Open Sans', verdana, arial, sans-serif; font-size: 12px; fill: rgb(42, 63, 95); fill-opacity: 1; white-space: pre;">policy=newest</text></g></g></g><g class="annotation" data-index="2" style="opacity: 1;"><g class="annotation-text-g" transform="rotate(0,418.84999999999997,50.5)"><g class="cursor-pointer" transform="translate(370,41)"><rect class="bg" x="0.5" y="0.5" width="97" height="18" style="stroke-width: 1px; stroke: rgb(0, 0, 0); stroke-opacity: 0; fill: rgb(0, 0, 0); fill-opacity: 0;"/><text class="annotation-text" text-anchor="middle" x="48.8203125" y="14" style="font-family: 'Open Sans', verdana, arial, sans-serif; font-size: 12px; fill: rgb(42, 63, 95); fill-opacity: 1; white-space: pre;">policy=shortest</text></g></g></g><g class="annotation" data-index="3" style="opacity: 1;"><g class="annotation-text-g" transform="rotate(0,556.55,50.5)"><g class="cursor-pointer" transform="translate(511,41)"><rect class="bg" x="0.5" y="0.5" width="91" height="18" style="stroke-width: 1px; stroke: rgb(0, 0, 0); stroke-opacity: 0; fill: rgb(0, 0, 0); fill-opacity: 0;"/><text class="annotation-text" text-anchor="middle" x="46.1484375" y="14" style="font-family: 'Open Sans', verdana, arial, sans-serif; font-size: 12px; fill: rgb(42, 63, 95); fill-opacity: 1; white-space: pre;">policy=longest</text></g></g></g></g></svg>