<svg class="main-svg" xmlns="http://www.w3.org/2000/svg" xmlns:xlink="http://www.w3.org/1999/xlink" width="700" height="500" style="" viewBox="0 0 700 500"><rect x="0" y="0" width="700" height="500" style="fill: rgb(255, 255, 255); fill-opacity: 1;"/><defs id="defs-6ebb3c"><g class="clips"><clipPath id="clip6ebb3cxyplot" class="plotclip"><rect width="126.89999999999999" height="360"/></clipPath><clipPath id="clip6ebb3cx2y2plot" class="plotclip"><rect width="126.89999999999999" height="360"/></clipPath><clipPath id="clip6ebb3cx3y3plot" class="plotclip"><rect width="126.89999999999999" height="360"/></clipPath><clipPath id="clip6ebb3cx4y4plot" class="plotclip"><rect width="126.89999999999999" height="360"/></clipPath><clipPath class="axesclip" id="clip6ebb3cx"><rect x="80" y="0" width="126.89999999999999" height="500"/></clipPath><clipPath class="axesclip" id="clip6ebb3cy"><rect x="0" y="60" width="700" height="360"/></clipPath><clipPath class="axesclip" id="clip6ebb3cxy"><rect x="80" y="60" width="126.89999999999999" height="360"/></clipPath><clipPath class="axesclip" id="clip6ebb3cy2"><rect x="0" y="60" width="700" height="360"/></clipPath><clipPath class="axesclip" id="clip6ebb3cxy2"><rect x="80" y="60" width="126.89999999999999" height="360"/></clipPath><clipPath class="axesclip" id="clip6ebb3cy3"><rect x="0" y="60" width="700" height="360"/></clipPath><clipPath class="axesclip" id="clip6ebb3cxy3"><rect x="80" y="60" width="126.89999999999999" height="360"/></clipPath><clipPath class="axesclip" id="clip6ebb3cy4"><rect x="0" y="60" width="700" height="360"/></clipPath><clipPath class="axesclip" id="clip6ebb3cxy4"><rect x="80" y="60" width="126.89999999999999" height="360"/></clipPath><clipPath class="axesclip" id="clip6ebb3cx2"><rect x="217.7" y="0" width="126.89999999999999" height="500"/></clipPath><clipPath class="axesclip" id="clip6ebb3cx2y"><rect x="217.7" y="60" width="126.89999999999999" height="360"/></clipPath><clipPath class="axesclip" id="clip6ebb3cx2y2"><rect x="217.7" y="60" width="126.89999999999999" height="360"/></clipPath><clipPath class="axesclip" id="clip6ebb3cx2y3"><rect x="217.7" y="60" width="126.89999999999999" height="360"/></clipPath><clipPath class="axesclip" id="clip6ebb3cx2y4"><rect x="217.7" y="60" width="126.89999999999999" height="360"/></clipPath><clipPath class="axesclip" id="clip6ebb3cx3"><rect x="355.4" y="0" width="126.89999999999999" height="500"/></clipPath><clipPath class="axesclip" id="clip6ebb3cx3y"><rect x="355.4" y="60" width="126.89999999999999" height="360"/></clipPath><clipPath class="axesclip" id="clip6ebb3cx3y2"><rect x="355.4" y="60" width="126.89999999999999" height="360"/></clipPath><clipPath class="axesclip" id="clip6ebb3cx3y3"><rect x="355.4" y="60" width="126.89999999999999" height="360"/></clipPath><clipPath class="axesclip" id="clip6ebb3cx3y4"><rect x="355.4" y="60" width="126.89999999999999" height="360"/></clipPath><clipPath class="axesclip" id="clip6ebb3cx4"><rect x="493.09999999999997" y="0" width="126.89999999999999" height="500"/></clipPath><clipPath class="axesclip" id="clip6ebb3cx4y"><rect x="493.09999999999997" y="60" width="126.89999999999999" height="360"/></clipPath><clipPath class="axesclip" id="clip6ebb3cx4y2"><rect x="493.09999999999997" y="60" width="126.89999999999999" height="360"/></clipPath><clipPath class="axesclip" id="clip6ebb3cx4y3"><rect x="493.09999999999997" y="60" width="126.89999999999999" height="360"/></clipPath><clipPath class="axesclip" id="clip6ebb3cx4y4"><rect x="493.09999999999997" y="60" width="126.89999999999999" height="360"/></clipPath></g><g class="gradients"/><g class="patterns"/></defs><g class="bglayer"><rect class="bg" x="80" y="60" width="126.89999999999999" height="360" style="fill: rgb(229, 236, 246); fill-opacity: 1; stroke-width: 0;"/><rect class="bg" x="217.7" y="60" width="126.89999999999999" height="360" style="fill: rgb(229, 236, 246); fill-opacity: 1; stroke-width: 0;"/><rect class="bg" x="355.4" y="60" width="126.89999999999999" height="360" style="fill: rgb(229, 236, 246); fill-opacity: 1; stroke-width: 0;"/><rect class="bg" x="493.09999999999997" y="60" width="126.89999999999999" height="360" style="fill: rgb(229, 236, 246); fill-opacity: 1; stroke-width: 0;"/></g><g class="layer-below"><g class="imagelayer"/><g class="shapelayer"/></g><g class="cartesianlayer"><g class="subplot xy"><g class="layer-subplot"><g class="shapelayer"/><g class="imagelayer"/></g><g class="minor-gridlayer"><g class="x"/><g class="y"/></g><g class="gridlayer"><g class="x"><path class="xgrid crisp" transform="translate(105.51,0)" d="M0,60v360" style="stroke: rgb(255, 255, 255); stroke-opacity: 1; stroke-width: 1px;"/><path class="xgrid crisp" transform="translate(131.02,0)" d="M0,60v360" style="stroke: rgb(255, 255, 255); stroke-opacity: 1; stroke-width: 1px;"/><path class="xgrid crisp" transform="translate(156.51999999999998,0)" d="M0,60v360" style="stroke: rgb(255, 255, 255); stroke-opacity: 1; stroke-width: 1px;"/><path class="xgrid crisp" transform="translate(182.03,0)" d="M0,60v360" style="stroke: rgb(255, 255, 255); stroke-opacity: 1; stroke-width: 1px;"/></g><g class="y"><path class="ygrid crisp" transform="translate(0,357)" d="M80,0h126.89999999999999" style="stroke: rgb(255, 255, 255); stroke-opacity: 1; stroke-width: 1px;"/><path class="ygrid crisp" transform="translate(0,312)" d="M80,0h126.89999999999999" style="stroke: rgb(255, 255, 255); stroke-opacity: 1; stroke-width: 1px;"/><path class="ygrid crisp" transform="translate(0,267)" d="M80,0h126.89999999999999" style="stroke: rgb(255, 255, 255); stroke-opacity: 1; stroke-width: 1px;"/><path class="ygrid crisp" transform="translate(0,222)" d="M80,0h126.89999999999999" style="stroke: rgb(255, 255, 255); stroke-opacity: 1; stroke-width: 1px;"/><path class="ygrid crisp" transform="translate(0,177)" d="M80,0h126.89999999999999" style="stroke: rgb(255, 255, 255); stroke-opacity: 1; stroke-width: 1px;"/><path class="ygrid crisp" transform="translate(0,132)" d="M80,0h126.89999999999999" style="stroke: rgb(255, 255, 255); stroke-opacity: 1; stroke-width: 1px;"/><path class="ygrid crisp" transform="translate(0,87)" d="M80,0h126.89999999999999" style="stroke: rgb(255, 255, 255); stroke-opacity: 1; stroke-width: 1px;"/></g></g><g class="zerolinelayer"><path class="xzl zl crisp" transform="translate(80,0)" d="M0,60v360" style="stroke: rgb(255, 255, 255); stroke-opacity: 1; stroke-width: 2px;"/><path class="yzl zl crisp" transform="translate(0,402)" d="M80,0h126.89999999999999" style="stroke: rgb(255, 255, 255); stroke-opacity: 1; stroke-width: 2px;"/></g><g class="layer-between"><g class="shapelayer"/><g class="imagelayer"/></g><path class="xlines-below"/><path class="ylines-below"/><g class="overlines-below"/><g class="xaxislayer-below"/><g class="yaxislayer-below"/><g class="overaxes-below"/><g class="overplot"><g class="xy" transform="translate(80,60)" clip-path="url(#clip6ebb3cxyplot)"><g class="scatterlayer mlayer"><g class="trace scatter trace72501d" style="stroke-miterlimit: 2; opacity: 1;"><g class="fills"/><g class="errorbars"/><g class="lines"><path class="js-line" d="M0,342L0.64,342L1.28,315L1.91,306L2.55,342L3.19,342L3.83,333L5.1,315L5.74,333L6.38,324L7.01,333L7.65,333L8.29,324L9.57,297L10.2,324L11.48,342L12.12,342L12.75,342L13.39,333L14.67,342L15.3,342L15.94,324L16.58,333L17.22,333L17.86,324L18.49,306L19.13,324L20.41,297L21.04,306L21.68,288L22.32,324L23.59,342L24.23,342L24.87,342" style="vector-effect: none; fill: none; stroke: rgb(99, 110, 250); stroke-opacity: 1; stroke-width: 2px; opacity: 1;"/></g><g class="points"/><g class="text"/></g></g></g></g><g class="zerolinelayer-above"/><path class="xlines-above crisp" d="M0,0" style="fill: none;"/><path class="ylines-above crisp" d="M0,0" style="fill: none;"/><g class="overlines-above"/><g class="xaxislayer-above"><g class="xtick"><text text-anchor="middle" x="0" y="433" transform="translate(80,0)" style="font-family: 'Open Sans', verdana, arial, sans-serif; font-size: 12px; fill: rgb(42, 63, 95); fill-opacity: 1; white-space: pre;">0</text></g><g class="xtick"><text text-anchor="middle" x="0" y="433" style="font-family: 'Open Sans', verdana, arial, sans-serif; font-size: 12px; fill: rgb(42, 63, 95); fill-opacity: 1; white-space: pre;" transform="translate(105.51,0)">200</text></g><g class="xtick"><text text-anchor="middle" x="0" y="433" style="font-family: 'Open Sans', verdana, arial, sans-serif; font-size: 12px; fill: rgb(42, 63, 95); fill-opacity: 1; white-space: pre;" transform="translate(131.02,0)">400</text></g><g class="xtick"><text text-anchor="middle" x="0" y="433" style="font-family: 'Open Sans', verdana, arial, sans-serif; font-size: 12px; fill: rgb(42, 63, 95); fill-opacity: 1; white-space: pre;" transform="translate(156.51999999999998,0)">600</text></g><g class="xtick"><text text-anchor="middle" x="0" y="433" style="font-family: 'Open Sans', verdana, arial, sans-serif; font-size: 12px; fill: rgb(42, 63, 95); fill-opacity: 1; white-space: pre;" transform="translate(182.03,0)">800</text></g></g><g class="yaxislayer-above"><g class="ytick"><text text-anchor="end" x="79" y="4.199999999999999" transform="translate(0,402)" style="font-family: 'Open Sans', verdana, arial, sans-serif; font-size: 12px; fill: rgb(42, 63, 95); fill-opacity: 1; white-space: pre;">0</text></g><g class="ytick"><text text-anchor="end" x="79" y="4.199999999999999" style="font-family: 'Open Sans', verdana, arial, sans-serif; font-size: 12px; fill: rgb(42, 63, 95); fill-opacity: 1; white-space: pre;" transform="translate(0,357)">5</text></g><g class="ytick"><text text-anchor="end" x="79" y="4.199999999999999" style="font-family: 'Open Sans', verdana, arial, sans-serif; font-size: 12px; fill: rgb(42, 63, 95); fill-opacity: 1; white-space: pre;" transform="translate(0,312)">10</text></g><g class="ytick"><text text-anchor="end" x="79" y="4.199999999999999" style="font-family: 'Open Sans', verdana, arial, sans-serif; font-size: 12px; fill: rgb(42, 63, 95); fill-opacity: 1; white-space: pre;" transform="translate(0,267)">15</text></g><g class="ytick"><text text-anchor="end" x="79" y="4.199999999999999" style="font-family: 'Open Sans', verdana, arial, sans-serif; font-size: 12px; fill: rgb(42, 63, 95); fill-opacity: 1; white-space: pre;" transform="translate(0,222)">20</text></g><g class="ytick"><text text-anchor="end" x="79" y="4.199999999999999" style="font-family: 'Open Sans', verdana, arial, sans-serif; font-size: 12px; fill: rgb(42, 63, 95); fill-opacity: 1; white-space: pre;" transform="translate(0,177)">25</text></g><g class="ytick"><text text-anchor="end" x="79" y="4.199999999999999" style="font-family: 'Open Sans', verdana, arial, sans-serif; font-size: 12px; fill: rgb(42, 63, 95); fill-opacity: 1; white-space: pre;" transform="translate(0,132)">30</text></g><g class="ytick"><text text-anchor="end" x="79" y="4.199999999999999" style="font-family: 'Open Sans', verdana, arial, sans-serif; font-size: 12px; fill: rgb(42, 63, 95); fill-opacity: 1; white-space: pre;" transform="translate(0,87)">35</text></g></g><g class="overaxes-above"/></g><g class="subplot x2y2"><g class="layer-subplot"><g class="shapelayer"/><g class="imagelayer"/></g><g class="minor-gridlayer"><g class="x2"/><g class="y2"/></g><g class="gridlayer"><g class="x2"><path class="x2grid crisp" transform="translate(243.20999999999998,0)" d="M0,60v360" style="stroke: rgb(255, 255, 255); stroke-opacity: 1; stroke-width: 1px;"/><path class="x2grid crisp" transform="translate(268.71999999999997,0)" d="M0,60v360" style="stroke: rgb(255, 255, 255); stroke-opacity: 1; stroke-width: 1px;"/><path class="x2grid crisp" transform="translate(294.21999999999997,0)" d="M0,60v360" style="stroke: rgb(255, 255, 255); stroke-opacity: 1; stroke-width: 1px;"/><path class="x2grid crisp" transform="translate(319.73,0)" d="M0,60v360" style="stroke: rgb(255, 255, 255); stroke-opacity: 1; stroke-width: 1px;"/></g><g class="y2"><path class="y2grid crisp" transform="translate(0,357)" d="M217.7,0h126.89999999999999" style="stroke: rgb(255, 255, 255); stroke-opacity: 1; stroke-width: 1px;"/><path class="y2grid crisp" transform="translate(0,312)" d="M217.7,0h126.89999999999999" style="stroke: rgb(255, 255, 255); stroke-opacity: 1; stroke-width: 1px;"/><path class="y2grid crisp" transform="translate(0,267)" d="M217.7,0h126.89999999999999" style="stroke: rgb(255, 255, 255); stroke-opacity: 1; stroke-width: 1px;"/><path class="y2grid crisp" transform="translate(0,222)" d="M217.7,0h126.89999999999999" style="stroke: rgb(255, 255, 255); stroke-opacity: 1; stroke-width: 1px;"/><path class="y2grid crisp" transform="translate(0,177)" d="M217.7,0h126.89999999999999" style="stroke: rgb(255, 255, 255); stroke-opacity: 1; stroke-width: 1px;"/><path class="y2grid crisp" transform="translate(0,132)" d="M217.7,0h126.89999999999999" style="stroke: rgb(255, 255, 255); stroke-opacity: 1; stroke-width: 1px;"/><path class="y2grid crisp" transform="translate(0,87)" d="M217.7,0h126.89999999999999" style="stroke: rgb(255, 255, 255); stroke-opacity: 1; stroke-width: 1px;"/></g></g><g class="zerolinelayer"><path class="x2zl zl crisp" transform="translate(217.7,0)" d="M0,60v360" style="stroke: rgb(255, 255, 255); stroke-opacity: 1; stroke-width: 2px;"/><path class="y2zl zl crisp" transform="translate(0,402)" d="M217.7,0h126.89999999999999" style="stroke: rgb(255, 255, 255); stroke-opacity: 1; stroke-width: 2px;"/></g><g class="layer-between"><g class="shapelayer"/><g class="imagelayer"/></g><path class="xlines-below"/><path class="ylines-below"/><g class="overlines-below"/><g class="xaxislayer-below"/><g class="yaxislayer-below"/><g class="overaxes-below"/><g class="overplot"><g class="x2y2" transform="translate(217.7,60)" clip-path="url(#clip6ebb3cx2y2plot)"><g class="scatterlayer mlayer"><g class="trace scatter trace4ed52b" style="stroke-miterlimit: 2; opacity: 1;"><g class="fills"/><g class="errorbars"/><g class="lines"><path class="js-line" d="M0,342L1.91,324L2.55,288L3.19,306L3.83,270L4.46,261L5.1,270L7.01,225L7.65,243L8.29,207L8.93,243L10.2,216L10.84,225L12.12,216L12.75,234L13.39,234L14.03,252L14.67,252L15.3,234L16.58,234L17.22,252L18.49,288L19.13,270L19.77,270L20.41,279L21.04,297L21.68,270L24.87,315" style="vector-effect: none; fill: none; stroke: rgb(99, 110, 250); stroke-opacity: 1; stroke-width: 2px; opacity: 1;"/></g><g class="points"/><g class="text"/></g></g></g></g><g class="zerolinelayer-above"/><path class="xlines-above crisp" d="M0,0" style="fill: none;"/><path class="ylines-above crisp" d="M0,0" style="fill: none;"/><g class="overlines-above"/><g class="xaxislayer-above"><g class="x2tick"><text text-anchor="middle" x="0" y="433" transform="translate(217.7,0)" style="font-family: 'Open Sans', verdana, arial, sans-serif; font-size: 12px; fill: rgb(42, 63, 95); fill-opacity: 1; white-space: pre;">0</text></g><g class="x2tick"><text text-anchor="middle" x="0" y="433" style="font-family: 'Open Sans', verdana, arial, sans-serif; font-size: 12px; fill: rgb(42, 63, 95); fill-opacity: 1; white-space: pre;" transform="translate(243.20999999999998,0)">200</text></g><g class="x2tick"><text text-anchor="middle" x="0" y="433" style="font-family: 'Open Sans', verdana, arial, sans-serif; font-size: 12px; fill: rgb(42, 63, 95); fill-opacity: 1; white-space: pre;" transform="translate(268.71999999999997,0)">400</text></g><g class="x2tick"><text text-anchor="middle" x="0" y="433" style="font-family: 'Open Sans', verdana, arial, sans-serif; font-size: 12px; fill: rgb(42, 63, 95); fill-opacity: 1; white-space: pre;" transform="translate(294.21999999999997,0)">600</text></g><g class="x2tick"><text text-anchor="middle" x="0" y="433" style="font-family: 'Open Sans', verdana, arial, sans-serif; font-size: 12px; fill: rgb(42, 63, 95); fill-opacity: 1; white-space: pre;" transform="translate(319.73,0)">800</text></g></g><g class="yaxislayer-above"/><g class="overaxes-above"/></g><g class="subplot x3y3"><g class="layer-subplot"><g class="shapelayer"/><g class="imagelayer"/></g><g class="minor-gridlayer"><g class="x3"/><g class="y3"/></g><g class="gridlayer"><g class="x3"><path class="x3grid crisp" transform="translate(380.90999999999997,0)" d="M0,60v360" style="stroke: rgb(255, 255, 255); stroke-opacity: 1; stroke-width: 1px;"/><path class="x3grid crisp" transform="translate(406.41999999999996,0)" d="M0,60v360" style="stroke: rgb(255, 255, 255); stroke-opacity: 1; stroke-width: 1px;"/><path class="x3grid crisp" transform="translate(431.91999999999996,0)" d="M0,60v360" style="stroke: rgb(255, 255, 255); stroke-opacity: 1; stroke-width: 1px;"/><path class="x3grid crisp" transform="translate(457.42999999999995,0)" d="M0,60v360" style="stroke: rgb(255, 255, 255); stroke-opacity: 1; stroke-width: 1px;"/></g><g class="y3"><path class="y3grid crisp" transform="translate(0,357)" d="M355.4,0h126.89999999999999" style="stroke: rgb(255, 255, 255); stroke-opacity: 1; stroke-width: 1px;"/><path class="y3grid crisp" transform="translate(0,312)" d="M355.4,0h126.89999999999999" style="stroke: rgb(255, 255, 255); stroke-opacity: 1; stroke-width: 1px;"/><path class="y3grid crisp" transform="translate(0,267)" d="M355.4,0h126.89999999999999" style="stroke: rgb(255, 255, 255); stroke-opacity: 1; stroke-width: 1px;"/><path class="y3grid crisp" transform="translate(0,222)" d="M355.4,0h126.89999999999999" style="stroke: rgb(255, 255, 255); stroke-opacity: 1; stroke-width: 1px;"/><path class="y3grid crisp" transform="translate(0,177)" d="M355.4,0h126.89999999999999" style="stroke: rgb(255, 255, 255); stroke-opacity: 1; stroke-width: 1px;"/><path class="y3grid crisp" transform="translate(0,132)" d="M355.4,0h126.89999999999999" style="stroke: rgb(255, 255, 255); stroke-opacity: 1; stroke-width: 1px;"/><path class="y3grid crisp" transform="translate(0,87)" d="M355.4,0h126.89999999999999" style="stroke: rgb(255, 255, 255); stroke-opacity: 1; stroke-width: 1px;"/></g></g><g class="zerolinelayer"><path class="x3zl zl crisp" transform="translate(355.4,0)" d="M0,60v360" style="stroke: rgb(255, 255, 255); stroke-opacity: 1; stroke-width: 2px;"/><path class="y3zl zl crisp" transform="translate(0,402)" d="M355.4,0h126.89999999999999" style="stroke: rgb(255, 255, 255); stroke-opacity: 1; stroke-width: 2px;"/></g><g class="layer-between"><g class="shapelayer"/><g class="imagelayer"/></g><path class="xlines-below"/><path class="ylines-below"/><g class="overlines-below"/><g class="xaxislayer-below"/><g class="yaxislayer-below"/><g class="overaxes-below"/><g class="overplot"><g class="x3y3" transform="translate(355.4,60)" clip-path="url(#clip6ebb3cx3y3plot)"><g class="scatterlayer mlayer"><g class="trace scatter trace48b44e" style="stroke-miterlimit: 2; opacity: 1;"><g class="fills"/><g class="errorbars"/><g class="lines"><path class="js-line" d="M0,342L3.83,342L4.46,324L5.1,297L5.74,306L6.38,333L7.01,315L8.29,315L8.93,324L9.57,324L10.2,333L10.84,333L11.48,342L13.39,342L14.03,333L14.67,324L15.3,279L15.94,270L16.58,279L17.86,315L18.49,315L19.77,270L20.41,279L22.32,225L22.96,243L24.23,279L24.87,297L25.51,306L26.15,297L27.42,315L28.06,306L28.7,306L29.33,324L30.61,315L31.25,333L31.88,342L32.52,324L33.16,306L33.8,333L34.44,342L35.07,315L36.35,342L36.99,342L41.45,342L42.09,324L43.36,288L44,306L47.83,252L48.46,270L49.74,234L50.38,234L51.65,234L52.29,225L54.2,288L54.84,279L56.12,243L56.75,261L58.03,198L58.67,216L59.31,216L59.94,234L60.58,207L61.22,216L63.13,180L63.77,180L64.41,153L65.04,180L65.68,198L66.32,189L66.96,207L67.59,162L68.23,171L68.87,153L69.51,144L70.15,162L70.78,144L71.42,171L72.06,189L72.7,171L73.97,198L74.61,198L75.88,216L76.52,198L78.44,153L79.07,153L79.71,126L80.35,135L80.99,126L81.62,135L82.9,108L83.54,135L84.17,135L84.81,81L85.45,63L86.09,72L87.36,54L88,45L88.64,54L89.28,81L91.19,135L91.83,117L92.46,117L93.1,90L93.74,108L94.38,90L95.02,90L95.65,108L96.29,108L96.93,117L97.57,108L98.2,72L98.84,45L99.48,63L100.75,36L101.39,45L102.03,27L102.67,36L103.94,18L104.58,27L105.86,45L106.49,36L107.13,36L107.77,72L108.41,72L109.04,63L110.96,90L111.6,117L112.23,90L112.87,99L114.15,72L114.78,63L116.06,63L116.7,27L117.33,18L117.97,27L118.61,63L119.25,54L119.89,45L120.52,63L121.16,63L121.8,72L123.71,99L124.35,90L124.99,108L125.62,99L126.26,108L126.9,81" style="vector-effect: none; fill: none; stroke: rgb(99, 110, 250); stroke-opacity: 1; stroke-width: 2px; opacity: 1;"/></g><g class="points"/><g class="text"/></g></g></g></g><g class="zerolinelayer-above"/><path class="xlines-above crisp" d="M0,0" style="fill: none;"/><path class="ylines-above crisp" d="M0,0" style="fill: none;"/><g class="overlines-above"/><g class="xaxislayer-above"><g class="x3tick"><text text-anchor="middle" x="0" y="433" transform="translate(355.4,0)" style="font-family: 'Open Sans', verdana, arial, sans-serif; font-size: 12px; fill: rgb(42, 63, 95); fill-opacity: 1; white-space: pre;">0</text></g><g class="x3tick"><text text-anchor="middle" x="0" y="433" style="font-family: 'Open Sans', verdana, arial, sans-serif; font-size: 12px; fill: rgb(42, 63, 95); fill-opacity: 1; white-space: pre;" transform="translate(380.90999999999997,0)">200</text></g><g class="x3tick"><text text-anchor="middle" x="0" y="433" style="font-family: 'Open Sans', verdana, arial, sans-serif; font-size: 12px; fill: rgb(42, 63, 95); fill-opacity: 1; white-space: pre;" transform="translate(406.41999999999996,0)">400</text></g><g class="x3tick"><text text-anchor="middle" x="0" y="433" style="font-family: 'Open Sans', verdana, arial, sans-serif; font-size: 12px; fill: rgb(42, 63, 95); fill-opacity: 1; white-space: pre;" transform="translate(431.91999999999996,0)">600</text></g><g class="x3tick"><text text-anchor="middle" x="0" y="433" style="font-family: 'Open Sans', verdana, arial, sans-serif; font-size: 12px; fill: rgb(42, 63, 95); fill-opacity: 1; white-space: pre;" transform="translate(457.42999999999995,0)">800</text></g></g><g class="yaxislayer-above"/><g class="overaxes-above"/></g><g class="subplot x4y4"><g class="layer-subplot"><g class="shapelayer"/><g class="imagelayer"/></g><g class="minor-gridlayer"><g class="x4"/><g class="y4"/></g><g class="gridlayer"><g class="x4"><path class="x4grid crisp" transform="translate(518.61,0)" d="M0,60v360" style="stroke: rgb(255, 255, 255); stroke-opacity: 1; stroke-width: 1px;"/><path class="x4grid crisp" transform="translate(544.12,0)" d="M0,60v360" style="stroke: rgb(255, 255, 255); stroke-opacity: 1; stroke-width: 1px;"/><path class="x4grid crisp" transform="translate(569.62,0)" d="M0,60v360" style="stroke: rgb(255, 255, 255); stroke-opacity: 1; stroke-width: 1px;"/><path class="x4grid crisp" transform="translate(595.13,0)" d="M0,60v360" style="stroke: rgb(255, 255, 255); stroke-opacity: 1; stroke-width: 1px;"/></g><g class="y4"><path class="y4grid crisp" transform="translate(0,357)" d="M493.09999999999997,0h126.89999999999999" style="stroke: rgb(255, 255, 255); stroke-opacity: 1; stroke-width: 1px;"/><path class="y4grid crisp" transform="translate(0,312)" d="M493.09999999999997,0h126.89999999999999" style="stroke: rgb(255, 255, 255); stroke-opacity: 1; stroke-width: 1px;"/><path class="y4grid crisp" transform="translate(0,267)" d="M493.09999999999997,0h126.89999999999999" style="stroke: rgb(255, 255, 255); stroke-opacity: 1; stroke-width: 1px;"/><path class="y4grid crisp" transform="translate(0,222)" d="M493.09999999999997,0h126.89999999999999" style="stroke: rgb(255, 255, 255); stroke-opacity: 1; stroke-width: 1px;"/><path class="y4grid crisp" transform="translate(0,177)" d="M493.09999999999997,0h126.89999999999999" style="stroke: rgb(255, 255, 255); stroke-opacity: 1; stroke-width: 1px;"/><path class="y4grid crisp" transform="translate(0,132)" d="M493.09999999999997,0h126.89999999999999" style="stroke: rgb(255, 255, 255); stroke-opacity: 1; stroke-width: 1px;"/><path class="y4grid crisp" transform="translate(0,87)" d="M493.09999999999997,0h126.89999999999999" style="stroke: rgb(255, 255, 255); stroke-opacity: 1; stroke-width: 1px;"/></g></g><g class="zerolinelayer"><path class="x4zl zl crisp" transform="translate(493.09999999999997,0)" d="M0,60v360" style="stroke: rgb(255, 255, 255); stroke-opacity: 1; stroke-width: 2px;"/><path class="y4zl zl crisp" transform="translate(0,402)" d="M493.09999999999997,0h126.89999999999999" style="stroke: rgb(255, 255, 255); stroke-opacity: 1; stroke-width: 2px;"/></g><g class="layer-between"><g class="shapelayer"/><g class="imagelayer"/></g><path class="xlines-below"/><path class="ylines-below"/><g class="overlines-below"/><g class="xaxislayer-below"/><g class="yaxislayer-below"/><g class="overaxes-below"/><g class="overplot"><g class="x4y4" transform="translate(493.09999999999997,60)" clip-path="url(#clip6ebb3cx4y4plot)"><g class="scatterlayer mlayer"><g class="trace scatter trace2b912c" style="stroke-miterlimit: 2; opacity: 1;"><g class="fills"/><g class="errorbars"/><g class="lines"><path class="js-line" d="M0,342L0.64,342L1.28,315L1.91,261L2.55,279L3.83,297L4.46,288L5.74,288L6.38,306L7.01,279L7.65,288L8.29,297L8.93,270L9.57,279L10.2,243L12.12,216L12.75,243L14.03,198L14.67,225L15.3,225L15.94,216L18.49,162L19.13,153L20.41,153L21.04,180L22.96,198L23.59,189L24.23,171L24.87,189L25.51,207L26.15,162L27.42,189L28.06,189L29.97,225L30.61,234L31.25,234L31.88,252L32.52,261L33.16,252L33.8,252L34.44,270L36.35,306L36.99,306L38.26,306L38.9,270L41.45,171L42.09,189L42.73,189L43.36,180L44.64,153L45.28,162L45.91,180L46.55,171L48.46,207L49.1,180L49.74,180L50.38,189L51.02,216L51.65,207L53.57,144L54.2,108L54.84,108L55.48,126L56.12,117L56.75,126L58.67,108L59.31,108L63.77,45L64.41,63L65.04,81L65.68,54L66.32,54L66.96,63L68.23,90L68.87,108L70.15,135L70.78,117L71.42,108L72.06,144L72.7,126L73.33,135L73.97,135L74.61,153L75.88,189L76.52,216L77.8,234L78.44,243L79.07,234L79.71,207L80.35,207L80.99,198L81.62,198L82.26,189L82.9,198L83.54,189L84.17,189L84.81,162L86.09,198L86.73,171L87.36,171L88,144L88.64,153L89.28,135L91.83,189L92.46,189L93.1,180L93.74,189L94.38,144L95.02,171L96.29,171L96.93,198L99.48,234L100.12,225L101.39,225L102.03,216L103.31,216L103.94,225L104.58,225L105.22,234L107.13,234L107.77,243L110.32,243L110.96,252L113.51,288L114.15,279L114.78,279L115.42,243L116.06,252L116.7,279L117.97,234L118.61,252L120.52,198L121.16,180L121.8,189L122.44,180L124.35,144L124.99,144L126.9,162" style="vector-effect: none; fill: none; stroke: rgb(99, 110, 250); stroke-opacity: 1; stroke-width: 2px; opacity: 1;"/></g><g class="points"/><g class="text"/></g></g></g></g><g class="zerolinelayer-above"/><path class="xlines-above crisp" d="M0,0" style="fill: none;"/><path class="ylines-above crisp" d="M0,0" style="fill: none;"/><g class="overlines-above"/><g class="xaxislayer-above"><g class="x4tick"><text text-anchor="middle" x="0" y="433" transform="translate(493.09999999999997,0)" style="font-family: 'Open Sans', verdana, arial, sans-serif; font-size: 12px; fill: rgb(42, 63, 95); fill-opacity: 1; white-space: pre;">0</text></g><g class="x4tick"><text text-anchor="middle" x="0" y="433" style="font-family: 'Open Sans', verdana, arial, sans-serif; font-size: 12px; fill: rgb(42, 63, 95); fill-opacity: 1; white-space: pre;" transform="translate(518.61,0)">200</text></g><g class="x4tick"><text text-anchor="middle" x="0" y="433" style="font-family: 'Open Sans', verdana, arial, sans-serif; font-size: 12px; fill: rgb(42, 63, 95); fill-opacity: 1; white-space: pre;" transform="translate(544.12,0)">400</text></g><g class="x4tick"><text text-anchor="middle" x="0" y="433" style="font-family: 'Open Sans', verdana, arial, sans-serif; font-size: 12px; fill: rgb(42, 63, 95); fill-opacity: 1; white-space: pre;" transform="translate(569.62,0)">600</text></g><g class="x4tick"><text text-anchor="middle" x="0" y="433" style="font-family: 'Open Sans', verdana, arial, sans-serif; font-size: 12px; fill: rgb(42, 63, 95); fill-opacity: 1; white-space: pre;" transform="translate(595.13,0)">800</text></g></g><g class="yaxislayer-above"/><g class="overaxes-above"/></g></g><g class="polarlayer"/><g class="smithlayer"/><g class="ternarylayer"/><g class="geolayer"/><g class="funnelarealayer"/><g class="pielayer"/><g class="iciclelayer"/><g class="treemaplayer"/><g class="sunburstlayer"/><g class="glimages"/><defs id="topdefs-6ebb3c"><g class="clips"/></defs><g class="layer-above"><g class="imagelayer"/><g class="shapelayer"/></g><g class="infolayer"><g class="g-gtitle"/><g class="g-xtitle"><text class="xtitle" x="143.45" y="460.3" text-anchor="middle" style="opacity: 1; font-family: 'Open Sans', verdana, arial, sans-serif; font-size: 14px; fill: rgb(42, 63, 95); fill-opacity: 1; white-space: pre;">time</text></g><g class="g-x2title"><text class="x2title" x="281.15" y="460.3" text-anchor="middle" style="opacity: 1; font-family: 'Open Sans', verdana, arial, sans-serif; font-size: 14px; fill: rgb(42, 63, 95); fill-opacity: 1; white-space: pre;">time</text></g><g class="g-x3title"><text class="x3title" x="418.84999999999997" y="460.3" text-anchor="middle" style="opacity: 1; font-family: 'Open Sans', verdana, arial, sans-serif; font-size: 14px; fill: rgb(42, 63, 95); fill-opacity: 1; white-space: pre;">time</text></g><g class="g-x4title"><text class="x4title" x="556.55" y="460.3" text-anchor="middle" style="opacity: 1; font-family: 'Open Sans', verdana, arial, sans-serif; font-size: 14px; fill: rgb(42, 63, 95); fill-opacity: 1; white-space: pre;">time</text></g><g class="g-ytitle"><text class="ytitle" transform="rotate(-90,44.334375,240)" x="44.334375" y="240" text-anchor="middle" style="opacity: 1; font-family: 'Open Sans', verdana, arial, sans-serif; font-size: 14px; fill: rgb(42, 63, 95); fill-opacity: 1; white-space: pre;">length</text></g><g class="g-y2title"/><g class="g-y3title"/><g class="g-y4title"/><g class="annotation" data-index="0" style="opacity: 1;"><g class="annotation-text-g" transform="rotate(0,143.45,50.5)"><g class="cursor-pointer" transform="translate(122,41)"><rect class="bg" x="0.5" y="0.5" width="41" height="18" style="stroke-width: 1px; stroke: rgb(0, 0, 0); stroke-opacity: 0; fill: rgb(0, 0, 0); fill-opacity: 0;"/><text class="annotation-text" text-anchor="middle" x="20.875" y="14" style="font-family: 'Open Sans', verdana, arial, sans-serif; font-size: 12px; fill: rgb(42, 63, 95); fill-opacity: 1; white-space: pre;">iter=0</text></g></g></g><g class="annotation" data-index="1" style="opacity: 1;"><g class="annotation-text-g" transform="rotate(0,281.15,50.5)"><g class="cursor-pointer" transform="translate(260,41)"><rect class="bg" x="0.5" y="0.5" width="41" height="18" style="stroke-width: 1px; stroke: rgb(0, 0, 0); stroke-opacity: 0; fill: rgb(0, 0, 0); fill-opacity: 0;"/><text class="annotation-text" text-anchor="middle" x="20.875" y="14" style="font-family: 'Open Sans', verdana, arial, sans-serif; font-size: 12px; fill: rgb(42, 63, 95); fill-opacity: 1; white-space: pre;">iter=1</text></g></g></g><g class="annotation" data-index="2" style="opacity: 1;"><g class="annotation-text-g" transform="rotate(0,418.84999999999997,50.5)"><g class="cursor-pointer" transform="translate(398,41)"><rect class="bg" x="0.5" y="0.5" width="41" height="18" style="stroke-width: 1px; stroke: rgb(0, 0, 0); stroke-opacity: 0; fill: rgb(0, 0, 0); fill-opacity: 0;"/><text class="annotation-text" text-anchor="middle" x="20.875" y="14" style="font-family: 'Open Sans', verdana, arial, sans-serif; font-size: 12px; fill: rgb(42, 63, 95); fill-opacity: 1; white-space: pre;">iter=2</text></g></g></g><g class="annotation" data-index="3" style="opacity: 1;"><g class="annotation-text-g" transform="rotate(0,556.55,50.5)"><g class="cursor-pointer" transform="translate(536,41)"><rect class="bg" x="0.5" y="0.5" width="41" height="18" style="stroke-width: 1px; stroke: rgb(0, 0, 0); stroke-opacity: 0; fill: rgb(0, 0, 0); fill-opacity: 0;"/><text class="annotation-text" text-anchor="middle" x="20.875" y="14" style="font-family: 'Open Sans', verdana, arial, sans-serif; font-size: 12px; fill: rgb(42, 63, 95); fill-opacity: 1; white-space: pre;">iter=3</text></g></g></g></g></svg>