<svg class="main-svg" xmlns="http://www.w3.org/2000/svg" xmlns:xlink="http://www.w3.org/1999/xlink" width="700" height="500" style="" viewBox="0 0 700 500"><rect x="0" y="0" width="700" height="500" style="fill: rgb(255, 255, 255); fill-opacity: 1;"/><defs id="defs-072ee1"><g class="clips"><clipPath id="clip072ee1xyplot" class="plotclip"><rect width="126.89999999999999" height="360"/></clipPath><clipPath id="clip072ee1x2y2plot" class="plotclip"><rect width="126.89999999999999" height="360"/></clipPath><clipPath id="clip072ee1x3y3plot" class="plotclip"><rect width="126.89999999999999" height="360"/></clipPath><clipPath id="clip072ee1x4y4plot" class="plotclip"><rect width="126.89999999999999" height="360"/></clipPath><clipPath class="axesclip" id="clip072ee1x"><rect x="80" y="0" width="126.89999999999999" height="500"/></clipPath><clipPath class="axesclip" id="clip072ee1y"><rect x="0" y="60" width="700" height="360"/></clipPath><clipPath class="axesclip" id="clip072ee1xy"><rect x="80" y="60" width="126.89999999999999" height="360"/></clipPath><clipPath class="axesclip" id="clip072ee1y2"><rect x="0" y="60" width="700" height="360"/></clipPath><clipPath class="axesclip" id="clip072ee1xy2"><rect x="80" y="60" width="126.89999999999999" height="360"/></clipPath><clipPath class="axesclip" id="clip072ee1y3"><rect x="0" y="60" width="700" height="360"/></clipPath><clipPath class="axesclip" id="clip072ee1xy3"><rect x="80" y="60" width="126.89999999999999" height="360"/></clipPath><clipPath class="axesclip" id="clip072ee1y4"><rect x="0" y="60" width="700" height="360"/></clipPath><clipPath class="axesclip" id="clip072ee1xy4"><rect x="80" y="60" width="126.89999999999999" height="360"/></clipPath><clipPath class="axesclip" id="clip072ee1x2"><rect x="217.7" y="0" width="126.89999999999999" height="500"/></clipPath><clipPath class="axesclip" id="clip072ee1x2y"><rect x="217.7" y="60" width="126.89999999999999" height="360"/></clipPath><clipPath class="axesclip" id="clip072ee1x2y2"><rect x="217.7" y="60" width="126.89999999999999" height="360"/></clipPath><clipPath class="axesclip" id="clip072ee1x2y3"><rect x="217.7" y="60" width="126.89999999999999" height="360"/></clipPath><clipPath class="axesclip" id="clip072ee1x2y4"><rect x="217.7" y="60" width="126.89999999999999" height="360"/></clipPath><clipPath class="axesclip" id="clip072ee1x3"><rect x="355.4" y="0" width="126.89999999999999" height="500"/></clipPath><clipPath class="axesclip" id="clip072ee1x3y"><rect x="355.4" y="60" width="126.89999999999999" height="360"/></clipPath><clipPath class="axesclip" id="clip072ee1x3y2"><rect x="355.4" y="60" width="126.89999999999999" height="360"/></clipPath><clipPath class="axesclip" id="clip072ee1x3y3"><rect x="355.4" y="60" width="126.89999999999999" height="360"/></clipPath><clipPath class="axesclip" id="clip072ee1x3y4"><rect x="355.4" y="60" width="126.89999999999999" height="360"/></clipPath><clipPath class="axesclip" id="clip072ee1x4"><rect x="493.09999999999997" y="0" width="126.89999999999999" height="500"/></clipPath><clipPath class="axesclip" id="clip072ee1x4y"><rect x="493.09999999999997" y="60" width="126.89999999999999" height="360"/></clipPath><clipPath class="axesclip" id="clip072ee1x4y2"><rect x="493.09999999999997" y="60" width="126.89999999999999" height="360"/></clipPath><clipPath class="axesclip" id="clip072ee1x4y3"><rect x="493.09999999999997" y="60" width="126.89999999999999" height="360"/></clipPath><clipPath class="axesclip" id="clip072ee1x4y4"><rect x="493.09999999999997" y="60" width="126.89999999999999" height="360"/></clipPath></g><g class="gradients"/><g class="patterns"/></defs><g class="bglayer"><rect class="bg" x="80" y="60" width="126.89999999999999" height="360" style="fill: rgb(229, 236, 246); fill-opacity: 1; stroke-width: 0;"/><rect class="bg" x="217.7" y="60" width="126.89999999999999" height="360" style="fill: rgb(229, 236, 246); fill-opacity: 1; stroke-width: 0;"/><rect class="bg" x="355.4" y="60" width="126.89999999999999" height="360" style="fill: rgb(229, 236, 246); fill-opacity: 1; stroke-width: 0;"/><rect class="bg" x="493.09999999999997" y="60" width="126.89999999999999" height="360" style="fill: rgb(229, 236, 246); fill-opacity: 1; stroke-width: 0;"/></g><g class="layer-below"><g class="imagelayer"/><g class="shapelayer"/></g><g class="cartesianlayer"><g class="subplot xy"><g class="layer-subplot"><g class="shapelayer"/><g class="imagelayer"/></g><g class="minor-gridlayer"><g class="x"/><g class="y"/></g><g class="gridlayer"><g class="x"><path class="xgrid crisp" transform="translate(143.45,0)" d="M0,60v360" style="stroke: rgb(255, 255, 255); stroke-opacity: 1; stroke-width: 1px;"/></g><g class="y"><path class="ygrid crisp" transform="translate(0,357)" d="M80,0h126.89999999999999" style="stroke: rgb(255, 255, 255); stroke-opacity: 1; stroke-width: 1px;"/><path class="ygrid crisp" transform="translate(0,312)" d="M80,0h126.89999999999999" style="stroke: rgb(255, 255, 255); stroke-opacity: 1; stroke-width: 1px;"/><path class="ygrid crisp" transform="translate(0,267)" d="M80,0h126.89999999999999" style="stroke: rgb(255, 255, 255); stroke-opacity: 1; stroke-width: 1px;"/><path class="ygrid crisp" transform="translate(0,222)" d="M80,0h126.89999999999999" style="stroke: rgb(255, 255, 255); stroke-opacity: 1; stroke-width: 1px;"/><path class="ygrid crisp" transform="translate(0,177)" d="M80,0h126.89999999999999" style="stroke: rgb(255, 255, 255); stroke-opacity: 1; stroke-width: 1px;"/><path class="ygrid crisp" transform="translate(0,132)" d="M80,0h126.89999999999999" style="stroke: rgb(255, 255, 255); stroke-opacity: 1; stroke-width: 1px;"/><path class="ygrid crisp" transform="translate(0,87)" d="M80,0h126.89999999999999" style="stroke: rgb(255, 255, 255); stroke-opacity: 1; stroke-width: 1px;"/></g></g><g class="zerolinelayer"><path class="xzl zl crisp" transform="translate(80,0)" d="M0,60v360" style="stroke: rgb(255, 255, 255); stroke-opacity: 1; stroke-width: 2px;"/><path class="yzl zl crisp" transform="translate(0,402)" d="M80,0h126.89999999999999" style="stroke: rgb(255, 255, 255); stroke-opacity: 1; stroke-width: 2px;"/></g><g class="layer-between"><g class="shapelayer"/><g class="imagelayer"/></g><path class="xlines-below"/><path class="ylines-below"/><g class="overlines-below"/><g class="xaxislayer-below"/><g class="yaxislayer-below"/><g class="overaxes-below"/><g class="overplot"><g class="xy" transform="translate(80,60)" clip-path="url(#clip072ee1xyplot)"><g class="scatterlayer mlayer"><g class="trace scatter trace1ed090" style="stroke-miterlimit: 2; opacity: 1;"><g class="fills"/><g class="errorbars"/><g class="lines"><path class="js-line" d="M0,342L0.63,342L1.27,315L1.9,306L2.54,342L3.17,342L3.81,333L5.08,315L5.71,333L6.34,324L6.98,333L7.61,333L8.25,324L9.52,297L10.15,324L11.42,342L12.06,342L12.69,342L13.32,333L14.59,342L15.23,342L15.86,324L16.5,333L17.13,333L17.77,324L18.4,306L19.03,324L20.3,297L20.94,306L21.57,288L22.21,324L23.48,342L24.11,342L24.75,342L25.38,324" style="vector-effect: none; fill: none; stroke: rgb(99, 110, 250); stroke-opacity: 1; stroke-width: 2px; opacity: 1;"/></g><g class="points"/><g class="text"/></g></g></g></g><g class="zerolinelayer-above"/><path class="xlines-above crisp" d="M0,0" style="fill: none;"/><path class="ylines-above crisp" d="M0,0" style="fill: none;"/><g class="overlines-above"/><g class="xaxislayer-above"><g class="xtick"><text text-anchor="middle" x="0" y="433" transform="translate(80,0)" style="font-family: 'Open Sans', verdana, arial, sans-serif; font-size: 12px; fill: rgb(42, 63, 95); fill-opacity: 1; white-space: pre;">0</text></g><g class="xtick"><text text-anchor="middle" x="0" y="433" style="font-family: 'Open Sans', verdana, arial, sans-serif; font-size: 12px; fill: rgb(42, 63, 95); fill-opacity: 1; white-space: pre;" transform="translate(143.45,0)">500</text></g><g class="xtick"><text text-anchor="middle" x="0" y="433" style="font-family: 'Open Sans', verdana, arial, sans-serif; font-size: 12px; fill: rgb(42, 63, 95); fill-opacity: 1; white-space: pre;" transform="translate(206.9,0)">1000</text></g></g><g class="yaxislayer-above"><g class="ytick"><text text-anchor="end" x="79" y="4.199999999999999" transform="translate(0,402)" style="font-family: 'Open Sans', verdana, arial, sans-serif; font-size: 12px; fill: rgb(42, 63, 95); fill-opacity: 1; white-space: pre;">0</text></g><g class="ytick"><text text-anchor="end" x="79" y="4.199999999999999" style="font-family: 'Open Sans', verdana, arial, sans-serif; font-size: 12px; fill: rgb(42, 63, 95); fill-opacity: 1; white-space: pre;" transform="translate(0,357)">5</text></g><g class="ytick"><text text-anchor="end" x="79" y="4.199999999999999" style="font-family: 'Open Sans', verdana, arial, sans-serif; font-size: 12px; fill: rgb(42, 63, 95); fill-opacity: 1; white-space: pre;" transform="translate(0,312)">10</text></g><g class="ytick"><text text-anchor="end" x="79" y="4.199999999999999" style="font-family: 'Open Sans', verdana, arial, sans-serif; font-size: 12px; fill: rgb(42, 63, 95); fill-opacity: 1; white-space: pre;" transform="translate(0,267)">15</text></g><g class="ytick"><text text-anchor="end" x="79" y="4.199999999999999" style="font-family: 'Open Sans', verdana, arial, sans-serif; font-size: 12px; fill: rgb(42, 63, 95); fill-opacity: 1; white-space: pre;" transform="translate(0,222)">20</text></g><g class="ytick"><text text-anchor="end" x="79" y="4.199999999999999" style="font-family: 'Open Sans', verdana, arial, sans-serif; font-size: 12px; fill: rgb(42, 63, 95); fill-opacity: 1; white-space: pre;" transform="translate(0,177)">25</text></g><g class="ytick"><text text-anchor="end" x="79" y="4.199999999999999" style="font-family: 'Open Sans', verdana, arial, sans-serif; font-size: 12px; fill: rgb(42, 63, 95); fill-opacity: 1; white-space: pre;" transform="translate(0,132)">30</text></g><g class="ytick"><text text-anchor="end" x="79" y="4.199999999999999" style="font-family: 'Open Sans', verdana, arial, sans-serif; font-size: 12px; fill: rgb(42, 63, 95); fill-opacity: 1; white-space: pre;" transform="translate(0,87)">35</text></g></g><g class="overaxes-above"/></g><g class="subplot x2y2"><g class="layer-subplot"><g class="shapelayer"/><g class="imagelayer"/></g><g class="minor-gridlayer"><g class="x2"/><g class="y2"/></g><g class="gridlayer"><g class="x2"><path class="x2grid crisp" transform="translate(281.15,0)" d="M0,60v360" style="stroke: rgb(255, 255, 255); stroke-opacity: 1; stroke-width: 1px;"/></g><g class="y2"><path class="y2grid crisp" transform="translate(0,357)" d="M217.7,0h126.89999999999999" style="stroke: rgb(255, 255, 255); stroke-opacity: 1; stroke-width: 1px;"/><path class="y2grid crisp" transform="translate(0,312)" d="M217.7,0h126.89999999999999" style="stroke: rgb(255, 255, 255); stroke-opacity: 1; stroke-width: 1px;"/><path class="y2grid crisp" transform="translate(0,267)" d="M217.7,0h126.89999999999999" style="stroke: rgb(255, 255, 255); stroke-opacity: 1; stroke-width: 1px;"/><path class="y2grid crisp" transform="translate(0,222)" d="M217.7,0h126.89999999999999" style="stroke: rgb(255, 255, 255); stroke-opacity: 1; stroke-width: 1px;"/><path class="y2grid crisp" transform="translate(0,177)" d="M217.7,0h126.89999999999999" style="stroke: rgb(255, 255, 255); stroke-opacity: 1; stroke-width: 1px;"/><path class="y2grid crisp" transform="translate(0,132)" d="M217.7,0h126.89999999999999" style="stroke: rgb(255, 255, 255); stroke-opacity: 1; stroke-width: 1px;"/><path class="y2grid crisp" transform="translate(0,87)" d="M217.7,0h126.89999999999999" style="stroke: rgb(255, 255, 255); stroke-opacity: 1; stroke-width: 1px;"/></g></g><g class="zerolinelayer"><path class="x2zl zl crisp" transform="translate(217.7,0)" d="M0,60v360" style="stroke: rgb(255, 255, 255); stroke-opacity: 1; stroke-width: 2px;"/><path class="y2zl zl crisp" transform="translate(0,402)" d="M217.7,0h126.89999999999999" style="stroke: rgb(255, 255, 255); stroke-opacity: 1; stroke-width: 2px;"/></g><g class="layer-between"><g class="shapelayer"/><g class="imagelayer"/></g><path class="xlines-below"/><path class="ylines-below"/><g class="overlines-below"/><g class="xaxislayer-below"/><g class="yaxislayer-below"/><g class="overaxes-below"/><g class="overplot"><g class="x2y2" transform="translate(217.7,60)" clip-path="url(#clip072ee1x2y2plot)"><g class="scatterlayer mlayer"><g class="trace scatter trace4b44db" style="stroke-miterlimit: 2; opacity: 1;"><g class="fills"/><g class="errorbars"/><g class="lines"><path class="js-line" d="M0,342L1.9,324L2.54,288L3.17,306L3.81,270L4.44,261L5.08,270L6.98,225L7.61,243L8.25,207L8.88,243L10.15,216L10.79,225L12.06,216L12.69,234L13.32,234L13.96,252L14.59,252L15.23,234L16.5,234L17.13,252L18.4,288L19.03,270L19.67,270L20.3,279L20.94,297L21.57,270L25.38,324" style="vector-effect: none; fill: none; stroke: rgb(99, 110, 250); stroke-opacity: 1; stroke-width: 2px; opacity: 1;"/></g><g class="points"/><g class="text"/></g></g></g></g><g class="zerolinelayer-above"/><path class="xlines-above crisp" d="M0,0" style="fill: none;"/><path class="ylines-above crisp" d="M0,0" style="fill: none;"/><g class="overlines-above"/><g class="xaxislayer-above"><g class="x2tick"><text text-anchor="middle" x="0" y="433" transform="translate(217.7,0)" style="font-family: 'Open Sans', verdana, arial, sans-serif; font-size: 12px; fill: rgb(42, 63, 95); fill-opacity: 1; white-space: pre;">0</text></g><g class="x2tick"><text text-anchor="middle" x="0" y="433" style="font-family: 'Open Sans', verdana, arial, sans-serif; font-size: 12px; fill: rgb(42, 63, 95); fill-opacity: 1; white-space: pre;" transform="translate(281.15,0)">500</text></g><g class="x2tick"><text text-anchor="middle" x="0" y="433" style="font-family: 'Open Sans', verdana, arial, sans-serif; font-size: 12px; fill: rgb(42, 63, 95); fill-opacity: 1; white-space: pre;" transform="translate(344.6,0)">1000</text></g></g><g class="yaxislayer-above"/><g class="overaxes-above"/></g><g class="subplot x3y3"><g class="layer-subplot"><g class="shapelayer"/><g class="imagelayer"/></g><g class="minor-gridlayer"><g class="x3"/><g class="y3"/></g><g class="gridlayer"><g class="x3"><path class="x3grid crisp" transform="translate(418.84999999999997,0)" d="M0,60v360" style="stroke: rgb(255, 255, 255); stroke-opacity: 1; stroke-width: 1px;"/></g><g class="y3"><path class="y3grid crisp" transform="translate(0,357)" d="M355.4,0h126.89999999999999" style="stroke: rgb(255, 255, 255); stroke-opacity: 1; stroke-width: 1px;"/><path class="y3grid crisp" transform="translate(0,312)" d="M355.4,0h126.89999999999999" style="stroke: rgb(255, 255, 255); stroke-opacity: 1; stroke-width: 1px;"/><path class="y3grid crisp" transform="translate(0,267)" d="M355.4,0h126.89999999999999" style="stroke: rgb(255, 255, 255); stroke-opacity: 1; stroke-width: 1px;"/><path class="y3grid crisp" transform="translate(0,222)" d="M355.4,0h126.89999999999999" style="stroke: rgb(255, 255, 255); stroke-opacity: 1; stroke-width: 1px;"/><path class="y3grid crisp" transform="translate(0,177)" d="M355.4,0h126.89999999999999" style="stroke: rgb(255, 255, 255); stroke-opacity: 1; stroke-width: 1px;"/><path class="y3grid crisp" transform="translate(0,132)" d="M355.4,0h126.89999999999999" style="stroke: rgb(255, 255, 255); stroke-opacity: 1; stroke-width: 1px;"/><path class="y3grid crisp" transform="translate(0,87)" d="M355.4,0h126.89999999999999" style="stroke: rgb(255, 255, 255); stroke-opacity: 1; stroke-width: 1px;"/></g></g><g class="zerolinelayer"><path class="x3zl zl crisp" transform="translate(355.4,0)" d="M0,60v360" style="stroke: rgb(255, 255, 255); stroke-opacity: 1; stroke-width: 2px;"/><path class="y3zl zl crisp" transform="translate(0,402)" d="M355.4,0h126.89999999999999" style="stroke: rgb(255, 255, 255); stroke-opacity: 1; stroke-width: 2px;"/></g><g class="layer-between"><g class="shapelayer"/><g class="imagelayer"/></g><path class="xlines-below"/><path class="ylines-below"/><g class="overlines-below"/><g class="xaxislayer-below"/><g class="yaxislayer-below"/><g class="overaxes-below"/><g class="overplot"><g class="x3y3" transform="translate(355.4,60)" clip-path="url(#clip072ee1x3y3plot)"><g class="scatterlayer mlayer"><g class="trace scatter tracece10f2" style="stroke-miterlimit: 2; opacity: 1;"><g class="fills"/><g class="errorbars"/><g class="lines"><path class="js-line" d="M0,342L3.81,342L4.44,324L5.08,297L5.71,306L6.34,333L6.98,315L8.25,315L8.88,324L9.52,324L10.15,333L10.79,333L11.42,342L13.32,342L13.96,333L14.59,324L15.23,279L15.86,270L16.5,279L17.77,315L18.4,315L19.67,270L20.3,279L22.21,225L22.84,243L24.11,279L24.75,297L25.38,306L26.01,297L27.28,315L27.92,306L28.55,306L29.19,324L30.46,315L31.09,333L31.73,342L32.36,324L32.99,306L33.63,333L34.26,342L34.9,315L36.17,342L36.8,342L41.24,342L41.88,324L43.15,288L43.78,306L47.59,252L48.22,270L49.49,234L50.13,234L51.39,234L52.03,225L53.93,288L54.57,279L55.84,243L56.47,261L57.74,198L58.37,216L59.01,216L59.64,234L60.28,207L60.91,216L62.82,180L63.45,180L64.08,153L64.72,180L65.35,198L65.99,189L66.62,207L67.26,162L67.89,171L68.53,153L69.16,144L69.79,162L70.43,144L71.06,171L71.7,189L72.33,171L73.6,198L74.24,198L75.51,216L76.14,198L78.04,153L78.68,153L79.31,126L79.95,135L80.58,126L81.22,135L82.48,108L83.12,135L83.75,135L84.39,81L85.02,63L85.66,72L86.93,54L87.56,45L88.2,54L88.83,81L90.73,135L91.37,117L92,117L92.64,90L93.27,108L93.91,90L94.54,90L95.17,108L95.81,108L96.44,117L97.08,108L97.71,72L98.35,45L98.98,63L100.25,36L100.89,45L101.52,27L102.15,36L103.42,18L104.06,27L105.33,45L105.96,36L106.6,36L107.23,72L107.86,72L108.5,63L110.4,90L111.04,117L111.67,90L112.31,99L113.58,72L114.21,63L115.48,63L116.11,27L116.75,18L117.38,27L118.02,63L118.65,54L119.29,45L119.92,63L120.56,63L121.19,72L123.09,99L123.73,90L124.36,108L125,99L125.63,108L126.27,81L126.9,90" style="vector-effect: none; fill: none; stroke: rgb(99, 110, 250); stroke-opacity: 1; stroke-width: 2px; opacity: 1;"/></g><g class="points"/><g class="text"/></g></g></g></g><g class="zerolinelayer-above"/><path class="xlines-above crisp" d="M0,0" style="fill: none;"/><path class="ylines-above crisp" d="M0,0" style="fill: none;"/><g class="overlines-above"/><g class="xaxislayer-above"><g class="x3tick"><text text-anchor="middle" x="0" y="433" transform="translate(355.4,0)" style="font-family: 'Open Sans', verdana, arial, sans-serif; font-size: 12px; fill: rgb(42, 63, 95); fill-opacity: 1; white-space: pre;">0</text></g><g class="x3tick"><text text-anchor="middle" x="0" y="433" style="font-family: 'Open Sans', verdana, arial, sans-serif; font-size: 12px; fill: rgb(42, 63, 95); fill-opacity: 1; white-space: pre;" transform="translate(418.84999999999997,0)">500</text></g><g class="x3tick"><text text-anchor="middle" x="0" y="433" style="font-family: 'Open Sans', verdana, arial, sans-serif; font-size: 12px; fill: rgb(42, 63, 95); fill-opacity: 1; white-space: pre;" transform="translate(482.29999999999995,0)">1000</text></g></g><g class="yaxislayer-above"/><g class="overaxes-above"/></g><g class="subplot x4y4"><g class="layer-subplot"><g class="shapelayer"/><g class="imagelayer"/></g><g class="minor-gridlayer"><g class="x4"/><g class="y4"/></g><g class="gridlayer"><g class="x4"><path class="x4grid crisp" transform="translate(556.55,0)" d="M0,60v360" style="stroke: rgb(255, 255, 255); stroke-opacity: 1; stroke-width: 1px;"/></g><g class="y4"><path class="y4grid crisp" transform="translate(0,357)" d="M493.09999999999997,0h126.89999999999999" style="stroke: rgb(255, 255, 255); stroke-opacity: 1; stroke-width: 1px;"/><path class="y4grid crisp" transform="translate(0,312)" d="M493.09999999999997,0h126.89999999999999" style="stroke: rgb(255, 255, 255); stroke-opacity: 1; stroke-width: 1px;"/><path class="y4grid crisp" transform="translate(0,267)" d="M493.09999999999997,0h126.89999999999999" style="stroke: rgb(255, 255, 255); stroke-opacity: 1; stroke-width: 1px;"/><path class="y4grid crisp" transform="translate(0,222)" d="M493.09999999999997,0h126.89999999999999" style="stroke: rgb(255, 255, 255); stroke-opacity: 1; stroke-width: 1px;"/><path class="y4grid crisp" transform="translate(0,177)" d="M493.09999999999997,0h126.89999999999999" style="stroke: rgb(255, 255, 255); stroke-opacity: 1; stroke-width: 1px;"/><path class="y4grid crisp" transform="translate(0,132)" d="M493.09999999999997,0h126.89999999999999" style="stroke: rgb(255, 255, 255); stroke-opacity: 1; stroke-width: 1px;"/><path class="y4grid crisp" transform="translate(0,87)" d="M493.09999999999997,0h126.89999999999999" style="stroke: rgb(255, 255, 255); stroke-opacity: 1; stroke-width: 1px;"/></g></g><g class="zerolinelayer"><path class="x4zl zl crisp" transform="translate(493.09999999999997,0)" d="M0,60v360" style="stroke: rgb(255, 255, 255); stroke-opacity: 1; stroke-width: 2px;"/><path class="y4zl zl crisp" transform="translate(0,402)" d="M493.09999999999997,0h126.89999999999999" style="stroke: rgb(255, 255, 255); stroke-opacity: 1; stroke-width: 2px;"/></g><g class="layer-between"><g class="shapelayer"/><g class="imagelayer"/></g><path class="xlines-below"/><path class="ylines-below"/><g class="overlines-below"/><g class="xaxislayer-below"/><g class="yaxislayer-below"/><g class="overaxes-below"/><g class="overplot"><g class="x4y4" transform="translate(493.09999999999997,60)" clip-path="url(#clip072ee1x4y4plot)"><g class="scatterlayer mlayer"><g class="trace scatter trace8e9782" style="stroke-miterlimit: 2; opacity: 1;"><g class="fills"/><g class="errorbars"/><g class="lines"><path class="js-line" d="M0,342L0.63,342L1.27,315L1.9,261L2.54,279L3.81,297L4.44,288L5.71,288L6.34,306L6.98,279L7.61,288L8.25,297L8.88,270L9.52,279L10.15,243L12.06,216L12.69,243L13.96,198L14.59,225L15.23,225L15.86,216L18.4,162L19.03,153L20.3,153L20.94,180L22.84,198L23.48,189L24.11,171L24.75,189L25.38,207L26.01,162L27.28,189L27.92,189L29.82,225L30.46,234L31.09,234L31.73,252L32.36,261L32.99,252L33.63,252L34.26,270L36.17,306L36.8,306L38.07,306L38.7,270L41.24,171L41.88,189L42.51,189L43.15,180L44.41,153L45.05,162L45.68,180L46.32,171L48.22,207L48.86,180L49.49,180L50.13,189L50.76,216L51.39,207L53.3,144L53.93,108L54.57,108L55.2,126L55.84,117L56.47,126L58.37,108L59.01,108L63.45,45L64.08,63L64.72,81L65.35,54L65.99,54L66.62,63L67.89,90L68.53,108L69.79,135L70.43,117L71.06,108L71.7,144L72.33,126L72.97,135L73.6,135L74.24,153L75.51,189L76.14,216L77.41,234L78.04,243L78.68,234L79.31,207L79.95,207L80.58,198L81.22,198L81.85,189L82.48,198L83.12,189L83.75,189L84.39,162L85.66,198L86.29,171L86.93,171L87.56,144L88.2,153L88.83,135L91.37,189L92,189L92.64,180L93.27,189L93.91,144L94.54,171L95.81,171L96.44,198L98.98,234L99.62,225L100.89,225L101.52,216L102.79,216L103.42,225L104.06,225L104.69,234L106.6,234L107.23,243L109.77,243L110.4,252L112.94,288L113.58,279L114.21,279L114.84,243L115.48,252L116.11,279L117.38,234L118.02,252L119.92,198L120.56,180L121.19,189L121.82,180L123.73,144L124.36,144L126.9,180" style="vector-effect: none; fill: none; stroke: rgb(99, 110, 250); stroke-opacity: 1; stroke-width: 2px; opacity: 1;"/></g><g class="points"/><g class="text"/></g></g></g></g><g class="zerolinelayer-above"/><path class="xlines-above crisp" d="M0,0" style="fill: none;"/><path class="ylines-above crisp" d="M0,0" style="fill: none;"/><g class="overlines-above"/><g class="xaxislayer-above"><g class="x4tick"><text text-anchor="middle" x="0" y="433" transform="translate(493.09999999999997,0)" style="font-family: 'Open Sans', verdana, arial, sans-serif; font-size: 12px; fill: rgb(42, 63, 95); fill-opacity: 1; white-space: pre;">0</text></g><g class="x4tick"><text text-anchor="middle" x="0" y="433" style="font-family: 'Open Sans', verdana, arial, sans-serif; font-size: 12px; fill: rgb(42, 63, 95); fill-opacity: 1; white-space: pre;" transform="translate(556.55,0)">500</text></g><g class="x4tick"><text text-anchor="middle" x="0" y="433" style="font-family: 'Open Sans', verdana, arial, sans-serif; font-size: 12px; fill: rgb(42, 63, 95); fill-opacity: 1; white-space: pre;" transform="translate(620,0)">1000</text></g></g><g class="yaxislayer-above"/><g class="overaxes-above"/></g></g><g class="polarlayer"/><g class="smithlayer"/><g class="ternarylayer"/><g class="geolayer"/><g class="funnelarealayer"/><g class="pielayer"/><g class="iciclelayer"/><g class="treemaplayer"/><g class="sunburstlayer"/><g class="glimages"/><defs id="topdefs-072ee1"><g class="clips"/></defs><g class="layer-above"><g class="imagelayer"/><g class="shapelayer"/></g><g class="infolayer"><g class="g-gtitle"/><g class="g-xtitle"><text class="xtitle" x="143.45" y="460.3" text-anchor="middle" style="opacity: 1; font-family: 'Open Sans', verdana, arial, sans-serif; font-size: 14px; fill: rgb(42, 63, 95); fill-opacity: 1; white-space: pre;">time</text></g><g class="g-x2title"><text class="x2title" x="281.15" y="460.3" text-anchor="middle" style="opacity: 1; font-family: 'Open Sans', verdana, arial, sans-serif; font-size: 14px; fill: rgb(42, 63, 95); fill-opacity: 1; white-space: pre;">time</text></g><g class="g-x3title"><text class="x3title" x="418.84999999999997" y="460.3" text-anchor="middle" style="opacity: 1; font-family: 'Open Sans', verdana, arial, sans-serif; font-size: 14px; fill: rgb(42, 63, 95); fill-opacity: 1; white-space: pre;">time</text></g><g class="g-x4title"><text class="x4title" x="556.55" y="460.3" text-anchor="middle" style="opacity: 1; font-family: 'Open Sans', verdana, arial, sans-serif; font-size: 14px; fill: rgb(42, 63, 95); fill-opacity: 1; white-space: pre;">time</text></g><g class="g-ytitle"><text class="ytitle" transform="rotate(-90,44.334375,240)" x="44.334375" y="240" text-anchor="middle" style="opacity: 1; font-family: 'Open Sans', verdana, arial, sans-serif; font-size: 14px; fill: rgb(42, 63, 95); fill-opacity: 1; white-space: pre;">length</text></g><g class="g-y2title"/><g class="g-y3title"/><g class="g-y4title"/><g class="annotation" data-index="0" style="opacity: 1;"><g class="annotation-text-g" transform="rotate(0,143.45,50.5)"><g class="cursor-pointer" transform="translate(122,41)"><rect class="bg" x="0.5" y="0.5" width="41" height="18" style="stroke-width: 1px; stroke: rgb(0, 0, 0); stroke-opacity: 0; fill: rgb(0, 0, 0); fill-opacity: 0;"/><text class="annotation-text" text-anchor="middle" x="20.875" y="14" style="font-family: 'Open Sans', verdana, arial, sans-serif; font-size: 12px; fill: rgb(42, 63, 95); fill-opacity: 1; white-space: pre;">iter=0</text></g></g></g><g class="annotation" data-index="1" style="opacity: 1;"><g class="annotation-text-g" transform="rotate(0,281.15,50.5)"><g class="cursor-pointer" transform="translate(260,41)"><rect class="bg" x="0.5" y="0.5" width="41" height="18" style="stroke-width: 1px; stroke: rgb(0, 0, 0); stroke-opacity: 0; fill: rgb(0, 0, 0); fill-opacity: 0;"/><text class="annotation-text" text-anchor="middle" x="20.875" y="14" style="font-family: 'Open Sans', verdana, arial, sans-serif; font-size: 12px; fill: rgb(42, 63, 95); fill-opacity: 1; white-space: pre;">iter=1</text></g></g></g><g class="annotation" data-index="2" style="opacity: 1;"><g class="annotation-text-g" transform="rotate(0,418.84999999999997,50.5)"><g class="cursor-pointer" transform="translate(398,41)"><rect class="bg" x="0.5" y="0.5" width="41" height="18" style="stroke-width: 1px; stroke: rgb(0, 0, 0); stroke-opacity: 0; fill: rgb(0, 0, 0); fill-opacity: 0;"/><text class="annotation-text" text-anchor="middle" x="20.875" y="14" style="font-family: 'Open Sans', verdana, arial, sans-serif; font-size: 12px; fill: rgb(42, 63, 95); fill-opacity: 1; white-space: pre;">iter=2</text></g></g></g><g class="annotation" data-index="3" style="opacity: 1;"><g class="annotation-text-g" transform="rotate(0,556.55,50.5)"><g class="cursor-pointer" transform="translate(536,41)"><rect class="bg" x="0.5" y="0.5" width="41" height="18" style="stroke-width: 1px; stroke: rgb(0, 0, 0); stroke-opacity: 0; fill: rgb(0, 0, 0); fill-opacity: 0;"/><text class="annotation-text" text-anchor="middle" x="20.875" y="14" style="font-family: 'Open Sans', verdana, arial, sans-serif; font-size: 12px; fill: rgb(42, 63, 95); fill-opacity: 1; white-space: pre;">iter=3</text></g></g></g></g></svg>