<svg class="main-svg" xmlns="http://www.w3.org/2000/svg" xmlns:xlink="http://www.w3.org/1999/xlink" width="700" height="500" style="" viewBox="0 0 700 500"><rect x="0" y="0" width="700" height="500" style="fill: rgb(255, 255, 255); fill-opacity: 1;"/><defs id="defs-282495"><g class="clips"><clipPath id="clip282495xyplot" class="plotclip"><rect width="172.79999999999998" height="360"/></clipPath><clipPath id="clip282495x2y2plot" class="plotclip"><rect width="172.79999999999998" height="360"/></clipPath><clipPath id="clip282495x3y3plot" class="plotclip"><rect width="172.79999999999998" height="360"/></clipPath><clipPath class="axesclip" id="clip282495x"><rect x="80" y="0" width="172.79999999999998" height="500"/></clipPath><clipPath class="axesclip" id="clip282495y"><rect x="0" y="60" width="700" height="360"/></clipPath><clipPath class="axesclip" id="clip282495xy"><rect x="80" y="60" width="172.79999999999998" height="360"/></clipPath><clipPath class="axesclip" id="clip282495y2"><rect x="0" y="60" width="700" height="360"/></clipPath><clipPath class="axesclip" id="clip282495xy2"><rect x="80" y="60" width="172.79999999999998" height="360"/></clipPath><clipPath class="axesclip" id="clip282495y3"><rect x="0" y="60" width="700" height="360"/></clipPath><clipPath class="axesclip" id="clip282495xy3"><rect x="80" y="60" width="172.79999999999998" height="360"/></clipPath><clipPath class="axesclip" id="clip282495x2"><rect x="263.6" y="0" width="172.79999999999998" height="500"/></clipPath><clipPath class="axesclip" id="clip282495x2y"><rect x="263.6" y="60" width="172.79999999999998" height="360"/></clipPath><clipPath class="axesclip" id="clip282495x2y2"><rect x="263.6" y="60" width="172.79999999999998" height="360"/></clipPath><clipPath class="axesclip" id="clip282495x2y3"><rect x="263.6" y="60" width="172.79999999999998" height="360"/></clipPath><clipPath class="axesclip" id="clip282495x3"><rect x="447.2" y="0" width="172.79999999999998" height="500"/></clipPath><clipPath class="axesclip" id="clip282495x3y"><rect x="447.2" y="60" width="172.79999999999998" height="360"/></clipPath><clipPath class="axesclip" id="clip282495x3y2"><rect x="447.2" y="60" width="172.79999999999998" height="360"/></clipPath><clipPath class="axesclip" id="clip282495x3y3"><rect x="447.2" y="60" width="172.79999999999998" height="360"/></clipPath></g><g class="gradients"/><g class="patterns"/></defs><g class="bglayer"><rect class="bg" x="80" y="60" width="172.79999999999998" height="360" style="fill: rgb(229, 236, 246); fill-opacity: 1; stroke-width: 0;"/><rect class="bg" x="263.6" y="60" width="172.79999999999998" height="360" style="fill: rgb(229, 236, 246); fill-opacity: 1; stroke-width: 0;"/><rect class="bg" x="447.2" y="60" width="172.79999999999998" height="360" style="fill: rgb(229, 236, 246); fill-opacity: 1; stroke-width: 0;"/></g><g class="layer-below"><g class="imagelayer"/><g class="shapelayer"/></g><g class="cartesianlayer"><g class="subplot xy"><g class="layer-subplot"><g class="shapelayer"/><g class="imagelayer"/></g><g class="minor-gridlayer"><g class="x"/><g class="y"/></g><g class="gridlayer"><g class="x"><path class="xgrid crisp" transform="translate(114.66,0)" d="M0,60v360" style="stroke: rgb(255, 255, 255); stroke-opacity: 1; stroke-width: 1px;"/><path class="xgrid crisp" transform="translate(149.32,0)" d="M0,60v360" style="stroke: rgb(255, 255, 255); stroke-opacity: 1; stroke-width: 1px;"/><path class="xgrid crisp" transform="translate(183.97,0)" d="M0,60v360" style="stroke: rgb(255, 255, 255); stroke-opacity: 1; stroke-width: 1px;"/><path class="xgrid crisp" transform="translate(218.63,0)" d="M0,60v360" style="stroke: rgb(255, 255, 255); stroke-opacity: 1; stroke-width: 1px;"/></g><g class="y"><path class="ygrid crisp" transform="translate(0,331.63)" d="M80,0h172.79999999999998" style="stroke: rgb(255, 255, 255); stroke-opacity: 1; stroke-width: 1px;"/><path class="ygrid crisp" transform="translate(0,261.27)" d="M80,0h172.79999999999998" style="stroke: rgb(255, 255, 255); stroke-opacity: 1; stroke-width: 1px;"/><path class="ygrid crisp" transform="translate(0,190.9)" d="M80,0h172.79999999999998" style="stroke: rgb(255, 255, 255); stroke-opacity: 1; stroke-width: 1px;"/><path class="ygrid crisp" transform="translate(0,120.53999999999999)" d="M80,0h172.79999999999998" style="stroke: rgb(255, 255, 255); stroke-opacity: 1; stroke-width: 1px;"/></g></g><g class="zerolinelayer"><path class="xzl zl crisp" transform="translate(80,0)" d="M0,60v360" style="stroke: rgb(255, 255, 255); stroke-opacity: 1; stroke-width: 2px;"/><path class="yzl zl crisp" transform="translate(0,402)" d="M80,0h172.79999999999998" style="stroke: rgb(255, 255, 255); stroke-opacity: 1; stroke-width: 2px;"/></g><g class="layer-between"><g class="shapelayer"/><g class="imagelayer"/></g><path class="xlines-below"/><path class="ylines-below"/><g class="overlines-below"/><g class="xaxislayer-below"/><g class="yaxislayer-below"/><g class="overaxes-below"/><g class="overplot"><g class="xy" transform="translate(80,60)" clip-path="url(#clip282495xyplot)"><g class="scatterlayer mlayer"><g class="trace scatter trace1f9bb2" style="stroke-miterlimit: 2; opacity: 1;"><g class="fills"/><g class="errorbars"/><g class="lines"><path class="js-line" d="M0,342L0.81,342L1.44,331.16L1.59,333.98L2.16,329.23L2.87,316.63L2.96,326.24L3.08,327.79L3.36,326.73L3.91,342L4.67,342L5.05,339.04L6.09,332.08L6.44,332.43L7.25,324.94L7.39,331.27L7.55,328.1L7.8,335.03L7.95,337.46L8.17,339.64L8.48,333.56L8.7,333.94L9.04,329.72L9.77,337.14L10.15,331.45L11.07,342L11.32,338.76L13.39,310.51L13.53,324.87L13.75,320.89L14.04,326.73L14.29,325.96L16.11,342L16.44,342" style="vector-effect: none; fill: none; stroke: rgb(99, 110, 250); stroke-opacity: 1; stroke-width: 2px; opacity: 1;"/></g><g class="points"/><g class="text"/></g></g></g></g><g class="zerolinelayer-above"/><path class="xlines-above crisp" d="M0,0" style="fill: none;"/><path class="ylines-above crisp" d="M0,0" style="fill: none;"/><g class="overlines-above"/><g class="xaxislayer-above"><g class="xtick"><text text-anchor="middle" x="0" y="433" transform="translate(80,0)" style="font-family: 'Open Sans', verdana, arial, sans-serif; font-size: 12px; fill: rgb(42, 63, 95); fill-opacity: 1; white-space: pre;">0</text></g><g class="xtick"><text text-anchor="middle" x="0" y="433" style="font-family: 'Open Sans', verdana, arial, sans-serif; font-size: 12px; fill: rgb(42, 63, 95); fill-opacity: 1; white-space: pre;" transform="translate(114.66,0)">200</text></g><g class="xtick"><text text-anchor="middle" x="0" y="433" style="font-family: 'Open Sans', verdana, arial, sans-serif; font-size: 12px; fill: rgb(42, 63, 95); fill-opacity: 1; white-space: pre;" transform="translate(149.32,0)">400</text></g><g class="xtick"><text text-anchor="middle" x="0" y="433" style="font-family: 'Open Sans', verdana, arial, sans-serif; font-size: 12px; fill: rgb(42, 63, 95); fill-opacity: 1; white-space: pre;" transform="translate(183.97,0)">600</text></g><g class="xtick"><text text-anchor="middle" x="0" y="433" style="font-family: 'Open Sans', verdana, arial, sans-serif; font-size: 12px; fill: rgb(42, 63, 95); fill-opacity: 1; white-space: pre;" transform="translate(218.63,0)">800</text></g></g><g class="yaxislayer-above"><g class="ytick"><text text-anchor="end" x="79" y="4.199999999999999" transform="translate(0,402)" style="font-family: 'Open Sans', verdana, arial, sans-serif; font-size: 12px; fill: rgb(42, 63, 95); fill-opacity: 1; white-space: pre;">0</text></g><g class="ytick"><text text-anchor="end" x="79" y="4.199999999999999" style="font-family: 'Open Sans', verdana, arial, sans-serif; font-size: 12px; fill: rgb(42, 63, 95); fill-opacity: 1; white-space: pre;" transform="translate(0,331.63)">20</text></g><g class="ytick"><text text-anchor="end" x="79" y="4.199999999999999" style="font-family: 'Open Sans', verdana, arial, sans-serif; font-size: 12px; fill: rgb(42, 63, 95); fill-opacity: 1; white-space: pre;" transform="translate(0,261.27)">40</text></g><g class="ytick"><text text-anchor="end" x="79" y="4.199999999999999" style="font-family: 'Open Sans', verdana, arial, sans-serif; font-size: 12px; fill: rgb(42, 63, 95); fill-opacity: 1; white-space: pre;" transform="translate(0,190.9)">60</text></g><g class="ytick"><text text-anchor="end" x="79" y="4.199999999999999" style="font-family: 'Open Sans', verdana, arial, sans-serif; font-size: 12px; fill: rgb(42, 63, 95); fill-opacity: 1; white-space: pre;" transform="translate(0,120.53999999999999)">80</text></g></g><g class="overaxes-above"/></g><g class="subplot x2y2"><g class="layer-subplot"><g class="shapelayer"/><g class="imagelayer"/></g><g class="minor-gridlayer"><g class="x2"/><g class="y2"/></g><g class="gridlayer"><g class="x2"><path class="x2grid crisp" transform="translate(298.26,0)" d="M0,60v360" style="stroke: rgb(255, 255, 255); stroke-opacity: 1; stroke-width: 1px;"/><path class="x2grid crisp" transform="translate(332.92,0)" d="M0,60v360" style="stroke: rgb(255, 255, 255); stroke-opacity: 1; stroke-width: 1px;"/><path class="x2grid crisp" transform="translate(367.57000000000005,0)" d="M0,60v360" style="stroke: rgb(255, 255, 255); stroke-opacity: 1; stroke-width: 1px;"/><path class="x2grid crisp" transform="translate(402.23,0)" d="M0,60v360" style="stroke: rgb(255, 255, 255); stroke-opacity: 1; stroke-width: 1px;"/></g><g class="y2"><path class="y2grid crisp" transform="translate(0,331.63)" d="M263.6,0h172.79999999999998" style="stroke: rgb(255, 255, 255); stroke-opacity: 1; stroke-width: 1px;"/><path class="y2grid crisp" transform="translate(0,261.27)" d="M263.6,0h172.79999999999998" style="stroke: rgb(255, 255, 255); stroke-opacity: 1; stroke-width: 1px;"/><path class="y2grid crisp" transform="translate(0,190.9)" d="M263.6,0h172.79999999999998" style="stroke: rgb(255, 255, 255); stroke-opacity: 1; stroke-width: 1px;"/><path class="y2grid crisp" transform="translate(0,120.53999999999999)" d="M263.6,0h172.79999999999998" style="stroke: rgb(255, 255, 255); stroke-opacity: 1; stroke-width: 1px;"/></g></g><g class="zerolinelayer"><path class="x2zl zl crisp" transform="translate(263.6,0)" d="M0,60v360" style="stroke: rgb(255, 255, 255); stroke-opacity: 1; stroke-width: 2px;"/><path class="y2zl zl crisp" transform="translate(0,402)" d="M263.6,0h172.79999999999998" style="stroke: rgb(255, 255, 255); stroke-opacity: 1; stroke-width: 2px;"/></g><g class="layer-between"><g class="shapelayer"/><g class="imagelayer"/></g><path class="xlines-below"/><path class="ylines-below"/><g class="overlines-below"/><g class="xaxislayer-below"/><g class="yaxislayer-below"/><g class="overaxes-below"/><g class="overplot"><g class="x2y2" transform="translate(263.6,60)" clip-path="url(#clip282495x2y2plot)"><g class="scatterlayer mlayer"><g class="trace scatter trace2e849c" style="stroke-miterlimit: 2; opacity: 1;"><g class="fills"/><g class="errorbars"/><g class="lines"><path class="js-line" d="M0,342L0.67,337.71L1.55,342L3.55,342L3.86,336.16L4.58,329.47L4.84,333.31L5.27,328.49L5.68,330.57L6.35,325.89L6.42,337.6L7.2,323.25L7.59,322.09L8,315.61L8.38,309.84L8.56,316.32L9.27,314.66L10.38,325.01L10.79,318.85L11.89,302.6L12.08,315.79L12.63,312.97L12.71,316.25L12.85,314.38L12.95,328.24L14.38,342L15.27,342L15.76,337.11L16.1,339.04L16.23,341.79L17.31,330.53L18.21,318.96L18.35,336.76L19,330.71L19.41,329.19L19.61,332.11L19.99,330.57L20.83,319.48L21.05,325.36L22.12,311.53L22.84,301.61L23.11,308.01L23.98,291.44L24.21,300.06L24.62,302.38L28.13,249.75L28.5,266.32L30.24,247.85L30.41,252.88L31.36,234.34L31.91,239.62L32.39,243.03L32.71,242.12L34.23,211.33L34.74,216.61L35.03,213.02L35.27,209.92L35.73,207.04L35.91,207.92L36.14,236.06L37.31,217.87L37.62,219L37.73,231.03L38.27,227.48L38.44,242.64L38.72,241.87L38.8,248.48L39.24,266.95L39.92,254.46L40.31,247.43L40.47,251.65L41.12,273.08L42.47,260.13L42.71,263.12L43.43,254.54L43.56,257.7L44.34,261.96L44.57,258.26L44.69,290.25L44.84,290L45.33,296.68L46.29,286.66L46.64,281.13L46.73,287.5L47.02,284.79L47.49,280.01L47.78,277.65L47.95,288.06L48.14,313.61L48.7,305.94L48.94,306.08L49.36,306.82L49.84,298.72L50.04,306.92L51.86,286.94L52.05,291.86L53.14,318.25L53.83,311.39L54.17,315.65L54.7,342L55.54,342L55.9,339.26L56.18,339.43L56.67,342L56.92,339.96L57.2,340.45L57.45,342L59.13,322.54L59.9,328.77L61.29,305.02L61.49,322.12L64.45,292.88L64.85,323.28L65.29,326.63L65.55,323.07L65.99,325.39L66.3,322.58L66.49,332.71L66.66,337.14L67.57,324.76L67.82,337.22L68.11,334.12L68.81,342L69.73,337.39L69.85,337.64L70.08,338.2L71.08,342L71.47,335.32L72.68,314.63L72.78,329.93L74.13,303.16L74.77,305.23L74.86,306.99L76.11,297.14L76.38,298.51L76.83,296.26L76.97,301.82L77.22,305.94L77.42,326.34L77.66,325.6L77.84,327.86L78.01,328.7L78.27,328.21L78.86,320.57L79.25,320.78L79.47,317.72L79.64,317.09L79.75,319.94L81.84,295L82.88,285.95L83.39,275.64L83.88,278.49L84.31,277.51L86.02,261.22L86.25,269.77L86.41,278.71" style="vector-effect: none; fill: none; stroke: rgb(99, 110, 250); stroke-opacity: 1; stroke-width: 2px; opacity: 1;"/></g><g class="points"/><g class="text"/></g></g></g></g><g class="zerolinelayer-above"/><path class="xlines-above crisp" d="M0,0" style="fill: none;"/><path class="ylines-above crisp" d="M0,0" style="fill: none;"/><g class="overlines-above"/><g class="xaxislayer-above"><g class="x2tick"><text text-anchor="middle" x="0" y="433" transform="translate(263.6,0)" style="font-family: 'Open Sans', verdana, arial, sans-serif; font-size: 12px; fill: rgb(42, 63, 95); fill-opacity: 1; white-space: pre;">0</text></g><g class="x2tick"><text text-anchor="middle" x="0" y="433" style="font-family: 'Open Sans', verdana, arial, sans-serif; font-size: 12px; fill: rgb(42, 63, 95); fill-opacity: 1; white-space: pre;" transform="translate(298.26,0)">200</text></g><g class="x2tick"><text text-anchor="middle" x="0" y="433" style="font-family: 'Open Sans', verdana, arial, sans-serif; font-size: 12px; fill: rgb(42, 63, 95); fill-opacity: 1; white-space: pre;" transform="translate(332.92,0)">400</text></g><g class="x2tick"><text text-anchor="middle" x="0" y="433" style="font-family: 'Open Sans', verdana, arial, sans-serif; font-size: 12px; fill: rgb(42, 63, 95); fill-opacity: 1; white-space: pre;" transform="translate(367.57000000000005,0)">600</text></g><g class="x2tick"><text text-anchor="middle" x="0" y="433" style="font-family: 'Open Sans', verdana, arial, sans-serif; font-size: 12px; fill: rgb(42, 63, 95); fill-opacity: 1; white-space: pre;" transform="translate(402.23,0)">800</text></g></g><g class="yaxislayer-above"/><g class="overaxes-above"/></g><g class="subplot x3y3"><g class="layer-subplot"><g class="shapelayer"/><g class="imagelayer"/></g><g class="minor-gridlayer"><g class="x3"/><g class="y3"/></g><g class="gridlayer"><g class="x3"><path class="x3grid crisp" transform="translate(481.86,0)" d="M0,60v360" style="stroke: rgb(255, 255, 255); stroke-opacity: 1; stroke-width: 1px;"/><path class="x3grid crisp" transform="translate(516.52,0)" d="M0,60v360" style="stroke: rgb(255, 255, 255); stroke-opacity: 1; stroke-width: 1px;"/><path class="x3grid crisp" transform="translate(551.17,0)" d="M0,60v360" style="stroke: rgb(255, 255, 255); stroke-opacity: 1; stroke-width: 1px;"/><path class="x3grid crisp" transform="translate(585.8299999999999,0)" d="M0,60v360" style="stroke: rgb(255, 255, 255); stroke-opacity: 1; stroke-width: 1px;"/></g><g class="y3"><path class="y3grid crisp" transform="translate(0,331.63)" d="M447.2,0h172.79999999999998" style="stroke: rgb(255, 255, 255); stroke-opacity: 1; stroke-width: 1px;"/><path class="y3grid crisp" transform="translate(0,261.27)" d="M447.2,0h172.79999999999998" style="stroke: rgb(255, 255, 255); stroke-opacity: 1; stroke-width: 1px;"/><path class="y3grid crisp" transform="translate(0,190.9)" d="M447.2,0h172.79999999999998" style="stroke: rgb(255, 255, 255); stroke-opacity: 1; stroke-width: 1px;"/><path class="y3grid crisp" transform="translate(0,120.53999999999999)" d="M447.2,0h172.79999999999998" style="stroke: rgb(255, 255, 255); stroke-opacity: 1; stroke-width: 1px;"/></g></g><g class="zerolinelayer"><path class="x3zl zl crisp" transform="translate(447.2,0)" d="M0,60v360" style="stroke: rgb(255, 255, 255); stroke-opacity: 1; stroke-width: 2px;"/><path class="y3zl zl crisp" transform="translate(0,402)" d="M447.2,0h172.79999999999998" style="stroke: rgb(255, 255, 255); stroke-opacity: 1; stroke-width: 2px;"/></g><g class="layer-between"><g class="shapelayer"/><g class="imagelayer"/></g><path class="xlines-below"/><path class="ylines-below"/><g class="overlines-below"/><g class="xaxislayer-below"/><g class="yaxislayer-below"/><g class="overaxes-below"/><g class="overplot"><g class="x3y3" transform="translate(447.2,60)" clip-path="url(#clip282495x3y3plot)"><g class="scatterlayer mlayer"><g class="trace scatter trace6b2011" style="stroke-miterlimit: 2; opacity: 1;"><g class="fills"/><g class="errorbars"/><g class="lines"><path class="js-line" d="M0,342L0.47,335.53L0.88,342L1.68,335.03L1.92,337.99L3.22,342L3.96,333.42L4.37,336.51L4.64,332.61L5.11,332.96L5.75,342L8.09,324.73L9.01,342L9.39,342L9.82,339.47L11.15,324.51L11.29,335.42L12.12,319.83L12.42,339.22L12.76,342L13.22,337.29L14,323.74L14.34,327.72L15.13,323.49L15.69,337.11L16.45,342L16.69,338.17L16.74,338.34L17.26,342L17.88,342L18.49,339.5L19.32,342L19.6,340.06L20.02,336.48L20.35,342L21.66,342L22.03,335.84L22.29,342L22.6,336.9L22.96,331.66L24.49,308.08L25,309.42L25.39,304.53L25.72,299.6L25.9,303.51L26.23,304.49L26.86,295.84L27.21,310.79L27.57,313.36L28.29,304.46L29.87,286.62L30.04,289.12L30.38,284.86L30.81,285.04L31.05,289.72L32.17,279.8L32.63,288.49L34.66,262.03L34.8,267.31L35.6,278.92L36.09,269.52L37.1,252.56L37.3,258.05L37.74,263.37L38.38,264.1L38.78,256.51L38.98,270.4L40.74,249.72L40.88,251.09L41,263.86L41.24,263.65L41.84,287.4L42.7,303.62L42.78,302.7L43.25,298.8L44.77,270.44L45.05,274.73L45.43,274.8L45.63,271.81L46.24,273.85L46.4,272.55L47.36,262.66L47.52,264.39L48.16,252.28L48.52,254.92L48.83,249.93L49.02,254.89L49.57,244.51L50.47,226.85L50.55,234.41L50.8,255.03L51.41,242.75L51.83,247.32L52.27,246.06L53.69,228.08L53.8,229.38L54.08,230.51L54.44,232.26L55.36,222.06L55.92,223.29L56.06,220.79L56.3,225.44L56.55,224.21L56.8,223.79L57.05,226.71L57.89,219.53L58.19,218.09L58.39,221.46L58.56,227.9L59.23,214.74L60.65,193.11L60.93,195.57L61.1,213.62L61.26,233.64L61.77,224.7L61.95,221.15L62.25,219.46L62.35,235.15L62.86,236.8L63.22,231.17L63.75,221.81L64.09,215.9L64.58,206.72L64.74,218.65L65.37,208.52L65.5,218.12L65.73,218.3L66.19,220.2L67.16,208.97L67.61,223.5L69.94,187.3L70.2,208.16L70.47,209.71L71.1,202.22L73.15,168.97L73.38,183.57L74.01,174.92L74.15,192.26L74.74,187.23L74.87,205.24L75.07,217.45L75.78,206.16L76.27,198.49L76.4,207.74L76.63,204.58L76.85,202.68L78.51,174.46L78.9,177.41L79.17,180.26L79.91,172.35L80.85,159.15L85.49,111.55L85.59,112.15L86.06,113.52L86.31,109.09L86.55,117.25L86.83,123.16L87,125.31L87.45,117.18L88.67,127.67L89.01,152.19L89.44,163.52L89.88,155.85L90.8,143.71L91,144.17L91.44,143.64L91.96,158.38L92.38,156.23L92.7,151.84L93.48,143.5L93.96,151.98L95.35,139.87L95.51,149.37L95.68,146.66L96.11,146.88L96.34,162.53L96.6,174.67L96.85,194.27L97.07,198.63L97.82,183.64L98.11,181.78L99.04,168.62L99.51,174.28L99.87,169.88L102.61,135.97L103.24,147.44L105.36,113.38L105.93,114.51L106.45,106.31L106.74,109.58L106.91,121.09L107.32,123.69L107.48,120.45L108.34,106.7L108.84,114.26L109.35,108.95L109.47,114.82L109.89,112.57L110.45,106.13L111.7,85.69L112.06,86.5L112.42,85.8L113.12,75.84L113.34,72.01L113.81,71.37L114.08,84.46L114.51,92.02L115.02,83.09L115.47,83.48L115.58,90.76L117.62,125.48L118.6,110.81L118.7,123.97L119,122.63L119.71,140.01L119.9,136.5L120.26,140.16L120.45,138.78L120.73,139.1L121.14,173.12L121.78,171.26L122.46,162.07L122.92,160.35L123.19,162.39L125.29,135.44L125.61,147.26L126.15,154.3L126.35,153.28L126.5,172.81L127.55,161.41L127.91,169.29L130.14,134.88L130.33,146.84L134.25,89.7L134.8,92.31L135.03,89.88L135.27,96.95L135.38,95.26L135.83,102.12L135.94,105.68L136.45,95.82L136.81,92.87L136.98,100.33L138.44,89.84L138.66,110.32L139.73,97.16L140.31,95.58L140.62,102.44L141.25,97.2L142.57,153.91L143.33,146.8L143.4,158.52L143.95,150.75L144.24,166.72L144.47,167.35L144.68,166.23L144.98,170.98L146.57,153.6L146.75,152.36L148.45,136.78L148.58,139.66L148.83,145.12L149.05,145.01L149.53,139.38L149.8,136.6L150.03,142.62L150.37,144.62L150.84,140.61L153.45,104.87L154.23,91.6L155.33,79.46L155.66,93.71L156.61,120.21L156.82,119.78L156.93,119.15L157.26,128.02L157.7,120.66L158.12,112.57L158.74,103.42L158.93,117.25L159.21,125.8L159.48,121.3L160.23,108.67L161.45,84.85L161.55,87.24L161.93,93.19L162.42,96.7L163.4,83.02L164.66,76.02L164.98,76.23L165.17,89.1L165.84,75.77L165.98,77.6L166.21,73.27L166.41,71.23L167.03,86.89L167.54,83.09L168.41,66.9L169.61,52.58L170.07,71.23L172.8,18" style="vector-effect: none; fill: none; stroke: rgb(99, 110, 250); stroke-opacity: 1; stroke-width: 2px; opacity: 1;"/></g><g class="points"/><g class="text"/></g></g></g></g><g class="zerolinelayer-above"/><path class="xlines-above crisp" d="M0,0" style="fill: none;"/><path class="ylines-above crisp" d="M0,0" style="fill: none;"/><g class="overlines-above"/><g class="xaxislayer-above"><g class="x3tick"><text text-anchor="middle" x="0" y="433" transform="translate(447.2,0)" style="font-family: 'Open Sans', verdana, arial, sans-serif; font-size: 12px; fill: rgb(42, 63, 95); fill-opacity: 1; white-space: pre;">0</text></g><g class="x3tick"><text text-anchor="middle" x="0" y="433" style="font-family: 'Open Sans', verdana, arial, sans-serif; font-size: 12px; fill: rgb(42, 63, 95); fill-opacity: 1; white-space: pre;" transform="translate(481.86,0)">200</text></g><g class="x3tick"><text text-anchor="middle" x="0" y="433" style="font-family: 'Open Sans', verdana, arial, sans-serif; font-size: 12px; fill: rgb(42, 63, 95); fill-opacity: 1; white-space: pre;" transform="translate(516.52,0)">400</text></g><g class="x3tick"><text text-anchor="middle" x="0" y="433" style="font-family: 'Open Sans', verdana, arial, sans-serif; font-size: 12px; fill: rgb(42, 63, 95); fill-opacity: 1; white-space: pre;" transform="translate(551.17,0)">600</text></g><g class="x3tick"><text text-anchor="middle" x="0" y="433" style="font-family: 'Open Sans', verdana, arial, sans-serif; font-size: 12px; fill: rgb(42, 63, 95); fill-opacity: 1; white-space: pre;" transform="translate(585.8299999999999,0)">800</text></g></g><g class="yaxislayer-above"/><g class="overaxes-above"/></g></g><g class="polarlayer"/><g class="smithlayer"/><g class="ternarylayer"/><g class="geolayer"/><g class="funnelarealayer"/><g class="pielayer"/><g class="iciclelayer"/><g class="treemaplayer"/><g class="sunburstlayer"/><g class="glimages"/><defs id="topdefs-282495"><g class="clips"/></defs><g class="layer-above"><g class="imagelayer"/><g class="shapelayer"/></g><g class="infolayer"><g class="g-gtitle"/><g class="g-xtitle"><text class="xtitle" x="166.39999999999998" y="460.3" text-anchor="middle" style="opacity: 1; font-family: 'Open Sans', verdana, arial, sans-serif; font-size: 14px; fill: rgb(42, 63, 95); fill-opacity: 1; white-space: pre;">t_start</text></g><g class="g-x2title"><text class="x2title" x="350" y="460.3" text-anchor="middle" style="opacity: 1; font-family: 'Open Sans', verdana, arial, sans-serif; font-size: 14px; fill: rgb(42, 63, 95); fill-opacity: 1; white-space: pre;">t_start</text></g><g class="g-x3title"><text class="x3title" x="533.6" y="460.3" text-anchor="middle" style="opacity: 1; font-family: 'Open Sans', verdana, arial, sans-serif; font-size: 14px; fill: rgb(42, 63, 95); fill-opacity: 1; white-space: pre;">t_start</text></g><g class="g-ytitle"><text class="ytitle" transform="rotate(-90,44.334375,240)" x="44.334375" y="240" text-anchor="middle" style="opacity: 1; font-family: 'Open Sans', verdana, arial, sans-serif; font-size: 14px; fill: rgb(42, 63, 95); fill-opacity: 1; white-space: pre;">delay</text></g><g class="g-y2title"/><g class="g-y3title"/><g class="annotation" data-index="0" style="opacity: 1;"><g class="annotation-text-g" transform="rotate(0,166.39999999999998,50.5)"><g class="cursor-pointer" transform="translate(131,41)"><rect class="bg" x="0.5" y="0.5" width="69" height="18" style="stroke-width: 1px; stroke: rgb(0, 0, 0); stroke-opacity: 0; fill: rgb(0, 0, 0); fill-opacity: 0;"/><text class="annotation-text" text-anchor="middle" x="35.140625" y="14" style="font-family: 'Open Sans', verdana, arial, sans-serif; font-size: 12px; fill: rgb(42, 63, 95); fill-opacity: 1; white-space: pre;">t_sim=100</text></g></g></g><g class="annotation" data-index="1" style="opacity: 1;"><g class="annotation-text-g" transform="rotate(0,349.99999999999994,50.5)"><g class="cursor-pointer" transform="translate(315,41)"><rect class="bg" x="0.5" y="0.5" width="69" height="18" style="stroke-width: 1px; stroke: rgb(0, 0, 0); stroke-opacity: 0; fill: rgb(0, 0, 0); fill-opacity: 0;"/><text class="annotation-text" text-anchor="middle" x="35.140625" y="14" style="font-family: 'Open Sans', verdana, arial, sans-serif; font-size: 12px; fill: rgb(42, 63, 95); fill-opacity: 1; white-space: pre;">t_sim=500</text></g></g></g><g class="annotation" data-index="2" style="opacity: 1;"><g class="annotation-text-g" transform="rotate(0,533.5999999999999,50.5)"><g class="cursor-pointer" transform="translate(495,41)"><rect class="bg" x="0.5" y="0.5" width="77" height="18" style="stroke-width: 1px; stroke: rgb(0, 0, 0); stroke-opacity: 0; fill: rgb(0, 0, 0); fill-opacity: 0;"/><text class="annotation-text" text-anchor="middle" x="38.9609375" y="14" style="font-family: 'Open Sans', verdana, arial, sans-serif; font-size: 12px; fill: rgb(42, 63, 95); fill-opacity: 1; white-space: pre;">t_sim=1000</text></g></g></g></g></svg>